<svg width="24" height="24" viewBox="0 0 24 24" xmlns="http://www.w3.org/2000/svg" fill="currentColor"><path d="M6 17C5.71667 17 5.479 16.904 5.287 16.712C5.09567 16.5207 5 16.2833 5 16V10.975C5 10.6917 5.09567 10.4583 5.287 10.275C5.479 10.0917 5.71667 10 6 10C6.28333 10 6.521 10.0957 6.713 10.287C6.90433 10.479 7 10.7167 7 11V16.025C7 16.3083 6.90433 16.5417 6.713 16.725C6.521 16.9083 6.28333 17 6 17ZM12 17C11.7167 17 11.4793 16.904 11.288 16.712C11.096 16.5207 11 16.2833 11 16V10.975C11 10.6917 11.096 10.4583 11.288 10.275C11.4793 10.0917 11.7167 10 12 10C12.2833 10 12.521 10.0957 12.713 10.287C12.9043 10.479 13 10.7167 13 11V16.025C13 16.3083 12.9043 16.5417 12.713 16.725C12.521 16.9083 12.2833 17 12 17ZM2.975 21C2.69167 21 2.45833 20.904 2.275 20.712C2.09167 20.5207 2 20.2833 2 20C2 19.7167 2.096 19.4793 2.288 19.288C2.47933 19.096 2.71667 19 3 19H21.025C21.3083 19 21.5417 19.096 21.725 19.288C21.9083 19.4793 22 19.7167 22 20C22 20.2833 21.904 20.5207 21.712 20.712C21.5207 20.904 21.2833 21 21 21H2.975ZM18 17C17.7167 17 17.4793 16.904 17.288 16.712C17.096 16.5207 17 16.2833 17 16V10.975C17 10.6917 17.096 10.4583 17.288 10.275C17.4793 10.0917 17.7167 10 18 10C18.2833 10 18.5207 10.0957 18.712 10.287C18.904 10.479 19 10.7167 19 11V16.025C19 16.3083 18.904 16.5417 18.712 16.725C18.5207 16.9083 18.2833 17 18 17ZM12.9 1.45L21.325 5.65C21.5417 5.76667 21.7083 5.929 21.825 6.137C21.9417 6.34567 22 6.575 22 6.825C22 7.15833 21.8793 7.43733 21.638 7.662C21.396 7.88733 21.1083 8 20.775 8H3.25C2.91667 8 2.625 7.88733 2.375 7.662C2.125 7.43733 2 7.15833 2 6.825C2 6.59167 2.05433 6.36667 2.163 6.15C2.271 5.93333 2.44167 5.775 2.675 5.675L11.1 1.45C11.3833 1.31667 11.6833 1.25 12 1.25C12.3167 1.25 12.6167 1.31667 12.9 1.45Z"/></svg>