<svg width="24" height="24" viewBox="0 0 24 24" xmlns="http://www.w3.org/2000/svg" fill="currentColor"><g clip-path="url(#clip0_1113_7032)"><path d="M14 13C14.55 13 14.9833 12.8417 15.3 12.525C15.6167 12.2083 15.8167 11.9083 15.9 11.625C15.95 11.4583 16.0627 11.3127 16.238 11.188C16.4127 11.0627 16.6167 11 16.85 11H20V4H8V11H11.15C11.3833 11 11.5873 11.0667 11.762 11.2C11.9373 11.3333 12.05 11.475 12.1 11.625C12.1833 11.9083 12.3833 12.2083 12.7 12.525C13.0167 12.8417 13.45 13 14 13ZM8 18C7.45 18 6.97933 17.8043 6.588 17.413C6.196 17.021 6 16.55 6 16V4C6 3.45 6.196 2.979 6.588 2.587C6.97933 2.19567 7.45 2 8 2H20C20.55 2 21.021 2.19567 21.413 2.587C21.8043 2.979 22 3.45 22 4V16C22 16.55 21.8043 17.021 21.413 17.413C21.021 17.8043 20.55 18 20 18H8ZM4 22C3.45 22 2.97933 21.8043 2.588 21.413C2.196 21.021 2 20.55 2 20V7C2 6.71667 2.096 6.479 2.288 6.287C2.47933 6.09567 2.71667 6 3 6C3.28333 6 3.521 6.09567 3.713 6.287C3.90433 6.479 4 6.71667 4 7V20H17C17.2833 20 17.5207 20.096 17.712 20.288C17.904 20.4793 18 20.7167 18 21C18 21.2833 17.904 21.5207 17.712 21.712C17.5207 21.904 17.2833 22 17 22H4Z"/></g><defs><clipPath id="clip0_1113_7032"><rect width="24" height="24"/></clipPath></defs></svg>