<svg width="24" height="24" viewBox="0 0 24 24" xmlns="http://www.w3.org/2000/svg" fill="currentColor"><g clip-path="url(#clip0_1113_7026)"><path d="M8.75 11.5C8.53333 11.5 8.35433 11.429 8.213 11.287C8.071 11.1457 8 10.9667 8 10.75C8 10.5333 8.071 10.354 8.213 10.212C8.35433 10.0707 8.53333 10 8.75 10H15.25C15.4667 10 15.646 10.0707 15.788 10.212C15.9293 10.354 16 10.5333 16 10.75C16 10.9667 15.9293 11.1457 15.788 11.287C15.646 11.429 15.4667 11.5 15.25 11.5H8.75ZM9.75 14.5C9.53333 14.5 9.35433 14.429 9.213 14.287C9.071 14.1457 9 13.9667 9 13.75C9 13.5333 9.071 13.354 9.213 13.212C9.35433 13.0707 9.53333 13 9.75 13H14.25C14.4667 13 14.646 13.0707 14.788 13.212C14.9293 13.354 15 13.5333 15 13.75C15 13.9667 14.9293 14.1457 14.788 14.287C14.646 14.429 14.4667 14.5 14.25 14.5H9.75ZM7 23C6.45 23 5.97933 22.8043 5.588 22.413C5.196 22.021 5 21.55 5 21V3C5 2.45 5.196 1.979 5.588 1.587C5.97933 1.19567 6.45 1 7 1H17C17.55 1 18.021 1.19567 18.413 1.587C18.8043 1.979 19 2.45 19 3V21C19 21.55 18.8043 22.021 18.413 22.413C18.021 22.8043 17.55 23 17 23H7ZM7 18H17V6H7V18Z"/></g><defs><clipPath id="clip0_1113_7026"><rect width="24" height="24"/></clipPath></defs></svg>