<svg width="24" height="24" viewBox="0 0 24 24" xmlns="http://www.w3.org/2000/svg" fill="currentColor"><g clip-path="url(#clip0_1113_7023)"><path d="M12 15.575C12.1333 15.575 12.2583 15.554 12.375 15.512C12.4917 15.4707 12.6 15.4 12.7 15.3L15.3 12.7C15.4833 12.5167 15.575 12.2833 15.575 12C15.575 11.7167 15.4833 11.4833 15.3 11.3C15.1167 11.1167 14.8833 11.025 14.6 11.025C14.3167 11.025 14.0833 11.1167 13.9 11.3L13 12.2V9C13 8.71667 12.9043 8.479 12.713 8.287C12.521 8.09567 12.2833 8 12 8C11.7167 8 11.4793 8.09567 11.288 8.287C11.096 8.479 11 8.71667 11 9V12.2L10.1 11.3C9.91667 11.1167 9.68333 11.025 9.4 11.025C9.11667 11.025 8.88333 11.1167 8.7 11.3C8.51667 11.4833 8.425 11.7167 8.425 12C8.425 12.2833 8.51667 12.5167 8.7 12.7L11.3 15.3C11.4 15.4 11.5083 15.4707 11.625 15.512C11.7417 15.554 11.8667 15.575 12 15.575ZM12 22C10.6167 22 9.31667 21.7373 8.1 21.212C6.88333 20.6873 5.825 19.975 4.925 19.075C4.025 18.175 3.31267 17.1167 2.788 15.9C2.26267 14.6833 2 13.3833 2 12C2 10.6167 2.26267 9.31667 2.788 8.1C3.31267 6.88333 4.025 5.825 4.925 4.925C5.825 4.025 6.88333 3.31233 8.1 2.787C9.31667 2.26233 10.6167 2 12 2C13.3833 2 14.6833 2.26233 15.9 2.787C17.1167 3.31233 18.175 4.025 19.075 4.925C19.975 5.825 20.6873 6.88333 21.212 8.1C21.7373 9.31667 22 10.6167 22 12C22 13.3833 21.7373 14.6833 21.212 15.9C20.6873 17.1167 19.975 18.175 19.075 19.075C18.175 19.975 17.1167 20.6873 15.9 21.212C14.6833 21.7373 13.3833 22 12 22Z"/></g><defs><clipPath id="clip0_1113_7023"><rect width="24" height="24"/></clipPath></defs></svg>