<svg width="24" height="24" viewBox="0 0 24 24" xmlns="http://www.w3.org/2000/svg" fill="currentColor"><g clip-path="url(#clip0_1113_7017)"><path d="M12.7 15.3L15.3 12.7C15.4833 12.5167 15.575 12.2833 15.575 12C15.575 11.7167 15.4833 11.4833 15.3 11.3L12.675 8.675C12.4917 8.49167 12.2627 8.404 11.988 8.412C11.7127 8.42067 11.4833 8.51667 11.3 8.7C11.1167 8.88333 11.025 9.11667 11.025 9.4C11.025 9.68333 11.1167 9.91667 11.3 10.1L12.2 11H8.975C8.69167 11 8.45833 11.0957 8.275 11.287C8.09167 11.479 8 11.7167 8 12C8 12.2833 8.096 12.5207 8.288 12.712C8.47933 12.904 8.71667 13 9 13H12.2L11.275 13.925C11.0917 14.1083 11.004 14.3377 11.012 14.613C11.0207 14.8877 11.1167 15.1167 11.3 15.3C11.4833 15.4833 11.7167 15.575 12 15.575C12.2833 15.575 12.5167 15.4833 12.7 15.3ZM12 22C10.6167 22 9.31667 21.7373 8.1 21.212C6.88333 20.6873 5.825 19.975 4.925 19.075C4.025 18.175 3.31267 17.1167 2.788 15.9C2.26267 14.6833 2 13.3833 2 12C2 10.6167 2.26267 9.31667 2.788 8.1C3.31267 6.88333 4.025 5.825 4.925 4.925C5.825 4.025 6.88333 3.31233 8.1 2.787C9.31667 2.26233 10.6167 2 12 2C13.3833 2 14.6833 2.26233 15.9 2.787C17.1167 3.31233 18.175 4.025 19.075 4.925C19.975 5.825 20.6873 6.88333 21.212 8.1C21.7373 9.31667 22 10.6167 22 12C22 13.3833 21.7373 14.6833 21.212 15.9C20.6873 17.1167 19.975 18.175 19.075 19.075C18.175 19.975 17.1167 20.6873 15.9 21.212C14.6833 21.7373 13.3833 22 12 22Z"/></g><defs><clipPath id="clip0_1113_7017"><rect width="24" height="24"/></clipPath></defs></svg>