<svg width="24" height="24" viewBox="0 0 24 24" xmlns="http://www.w3.org/2000/svg" fill="currentColor"><g clip-path="url(#clip0_1113_6987)"><path d="M16.175 9.99999H7V19C7 19.2833 6.90433 19.5207 6.713 19.712C6.521 19.904 6.28333 20 6 20C5.71667 20 5.479 19.904 5.287 19.712C5.09567 19.5207 5 19.2833 5 19V9.99999C5 9.44999 5.196 8.97899 5.588 8.58699C5.97933 8.19565 6.45 7.99999 7 7.99999H16.175L13.3 5.09999C13.1167 4.91665 13.0207 4.68732 13.012 4.41199C13.004 4.13732 13.1 3.89999 13.3 3.69999C13.4833 3.51665 13.7167 3.42499 14 3.42499C14.2833 3.42499 14.5167 3.51665 14.7 3.69999L19.3 8.29999C19.5 8.49999 19.6 8.73332 19.6 8.99999C19.6 9.26665 19.5 9.49999 19.3 9.69999L14.7 14.3C14.5 14.5 14.2667 14.5957 14 14.587C13.7333 14.579 13.5 14.475 13.3 14.275C13.1167 14.075 13.0207 13.8417 13.012 13.575C13.004 13.3083 13.1 13.075 13.3 12.875L16.175 9.99999Z"/></g><defs><clipPath id="clip0_1113_6987"><rect width="24" height="24"/></clipPath></defs></svg>