<svg width="24" height="24" viewBox="0 0 24 24" xmlns="http://www.w3.org/2000/svg" fill="currentColor"><g clip-path="url(#clip0_1113_6984)"><path d="M12 20C11.7167 20 11.4794 19.904 11.288 19.712C11.096 19.5207 11 19.2833 11 19V7.82499L6.12502 12.7C5.92502 12.9 5.68736 13 5.41202 13C5.13736 13 4.90002 12.9 4.70002 12.7C4.50002 12.5 4.40002 12.2667 4.40002 12C4.40002 11.7333 4.50002 11.5 4.70002 11.3L11.3 4.69999C11.4 4.59999 11.5084 4.52899 11.625 4.48699C11.7417 4.44565 11.8667 4.42499 12 4.42499C12.1334 4.42499 12.2627 4.44565 12.388 4.48699C12.5127 4.52899 12.6167 4.59999 12.7 4.69999L19.3 11.3C19.5 11.5 19.6 11.7333 19.6 12C19.6 12.2667 19.5 12.5 19.3 12.7C19.1 12.9 18.8624 13 18.587 13C18.3124 13 18.075 12.9 17.875 12.7L13 7.82499V19C13 19.2833 12.9044 19.5207 12.713 19.712C12.521 19.904 12.2834 20 12 20Z"/></g><defs><clipPath id="clip0_1113_6984"><rect width="24" height="24"/></clipPath></defs></svg>