<svg width="24" height="24" viewBox="0 0 24 24" xmlns="http://www.w3.org/2000/svg" fill="currentColor"><g clip-path="url(#clip0_1113_6990)"><path d="M7.82502 9.99999L10.7 12.875C10.8834 13.0583 10.975 13.2873 10.975 13.562C10.975 13.8373 10.8834 14.075 10.7 14.275C10.5 14.475 10.2627 14.575 9.98802 14.575C9.71269 14.575 9.47502 14.475 9.27502 14.275L4.70002 9.69999C4.50002 9.49999 4.40002 9.26666 4.40002 8.99999C4.40002 8.73332 4.50002 8.49999 4.70002 8.29999L9.30002 3.69999C9.48336 3.51666 9.71269 3.42066 9.98802 3.41199C10.2627 3.40399 10.5 3.49999 10.7 3.69999C10.8834 3.88332 10.975 4.11666 10.975 4.39999C10.975 4.68332 10.8834 4.91666 10.7 5.09999L7.82502 7.99999H17C17.55 7.99999 18.021 8.19566 18.413 8.58699C18.8044 8.97899 19 9.44999 19 9.99999V19C19 19.2833 18.904 19.5207 18.712 19.712C18.5207 19.904 18.2834 20 18 20C17.7167 20 17.4794 19.904 17.288 19.712C17.096 19.5207 17 19.2833 17 19V9.99999H7.82502Z"/></g><defs><clipPath id="clip0_1113_6990"><rect width="24" height="24"/></clipPath></defs></svg>