<svg width="24" height="24" viewBox="0 0 24 24" fill="none" xmlns="http://www.w3.org/2000/svg" stroke="currentColor"><path d="M7.13506 11.189L3.33031 4.38052C2.89282 3.59765 2.67408 3.20621 2.71094 2.88573C2.7431 2.60611 2.89161 2.353 3.12001 2.18852C3.38179 2 3.8302 2 4.72702 2H6.96184C7.29513 2 7.46178 2 7.61126 2.04813C7.74353 2.09073 7.86547 2.16042 7.9693 2.25276C8.08664 2.35712 8.17123 2.5007 8.34041 2.78788L12 9L15.6596 2.78788C15.8288 2.5007 15.9134 2.35712 16.0307 2.25276C16.1346 2.16042 16.2565 2.09073 16.3888 2.04813C16.5382 2 16.7049 2 17.0382 2H19.273C20.1698 2 20.6182 2 20.88 2.18852C21.1084 2.353 21.2569 2.60611 21.2891 2.88573C21.326 3.20621 21.1072 3.59765 20.6697 4.38052L16.865 11.189M10.5 14L12 13V18M10.75 18H13.25M16.5962 10.9038C19.1346 13.4422 19.1346 17.5578 16.5962 20.0962C14.0578 22.6346 9.94223 22.6346 7.40382 20.0962C4.86541 17.5578 4.86541 13.4422 7.40382 10.9038C9.94222 8.3654 14.0578 8.3654 16.5962 10.9038Z" stroke-width="2" stroke-linecap="round" stroke-linejoin="round"/></svg>