<svg width="24" height="24" viewBox="0 0 24 24" xmlns="http://www.w3.org/2000/svg" fill="currentColor"><g clip-path="url(#clip0_1113_6972)"><path d="M9.02498 19C8.69164 19 8.37931 18.925 8.08798 18.775C7.79598 18.625 7.55831 18.4167 7.37498 18.15L3.84998 13.15C3.59998 12.8 3.47498 12.4167 3.47498 12C3.47498 11.5833 3.59998 11.2 3.84998 10.85L7.37498 5.85C7.55831 5.58333 7.79598 5.375 8.08798 5.225C8.37931 5.075 8.69164 5 9.02498 5H19.025C19.575 5 20.046 5.196 20.438 5.588C20.8293 5.97933 21.025 6.45 21.025 7V17C21.025 17.55 20.8293 18.021 20.438 18.413C20.046 18.8043 19.575 19 19.025 19H9.02498ZM10.7 15.3C10.8833 15.4833 11.1166 15.575 11.4 15.575C11.6833 15.575 11.9166 15.4833 12.1 15.3L14 13.4L15.9 15.3C16.0833 15.4833 16.3166 15.575 16.6 15.575C16.8833 15.575 17.1166 15.4833 17.3 15.3C17.4833 15.1167 17.575 14.8833 17.575 14.6C17.575 14.3167 17.4833 14.0833 17.3 13.9L15.4 12L17.3 10.1C17.4833 9.91667 17.575 9.68333 17.575 9.4C17.575 9.11667 17.4833 8.88333 17.3 8.7C17.1166 8.51667 16.8833 8.425 16.6 8.425C16.3166 8.425 16.0833 8.51667 15.9 8.7L14 10.6L12.1 8.7C11.9166 8.51667 11.6833 8.425 11.4 8.425C11.1166 8.425 10.8833 8.51667 10.7 8.7C10.5166 8.88333 10.425 9.11667 10.425 9.4C10.425 9.68333 10.5166 9.91667 10.7 10.1L12.6 12L10.7 13.9C10.5166 14.0833 10.425 14.3167 10.425 14.6C10.425 14.8833 10.5166 15.1167 10.7 15.3Z"/></g><defs><clipPath id="clip0_1113_6972"><rect width="24" height="24"/></clipPath></defs></svg>