<svg width="24" height="24" viewBox="0 0 24 24" fill="none" xmlns="http://www.w3.org/2000/svg" stroke="currentColor"><path d="M9.35416 21C10.0593 21.6224 10.9855 22 12 22C13.0144 22 13.9407 21.6224 14.6458 21M18 8V2M15 5H21M13 2.08389C12.6717 2.02841 12.3373 2 12 2C10.4087 2 8.88257 2.63214 7.75735 3.75736C6.63213 4.88258 5.99999 6.4087 5.99999 8C5.99999 11.0902 5.22046 13.206 4.34965 14.6054C3.61512 15.7859 3.24785 16.3761 3.26131 16.5408C3.27622 16.7231 3.31485 16.7926 3.46176 16.9016C3.59445 17 4.19258 17 5.38884 17H18.6111C19.8073 17 20.4055 17 20.5381 16.9016C20.6851 16.7926 20.7237 16.7231 20.7386 16.5408C20.7521 16.3761 20.3848 15.7858 19.6502 14.6052C19.1581 13.8144 18.6952 12.7948 18.3857 11.5" stroke-width="2" stroke-linecap="round" stroke-linejoin="round"/></svg>