<svg width="24" height="24" viewBox="0 0 24 24" fill="none" xmlns="http://www.w3.org/2000/svg" stroke="currentColor"><path d="M14 21H10M18 8C18 6.4087 17.3679 4.88258 16.2426 3.75736C15.1174 2.63214 13.5913 2 12 2C10.4087 2 8.88258 2.63214 7.75736 3.75736C6.63214 4.88258 6 6.4087 6 8C6 11.0902 5.22047 13.206 4.34966 14.6054C3.61513 15.7859 3.24786 16.3761 3.26132 16.5408C3.27624 16.7231 3.31486 16.7926 3.46178 16.9016C3.59446 17 4.19259 17 5.38885 17H18.6111C19.8074 17 20.4055 17 20.5382 16.9016C20.6851 16.7926 20.7238 16.7231 20.7387 16.5408C20.7521 16.3761 20.3849 15.7859 19.6503 14.6054C18.7795 13.206 18 11.0902 18 8Z" stroke-width="2" stroke-linecap="round" stroke-linejoin="round"/></svg>