<svg width="24" height="24" viewBox="0 0 24 24" fill="none" xmlns="http://www.w3.org/2000/svg" stroke="currentColor"><path d="M8.99997 11.2222L12.7778 15M7.97485 20.9749C6.60801 22.3417 4 22 2 22C3.0251 20 1.65827 17.392 3.0251 16.0251C4.39194 14.6583 6.60801 14.6583 7.97485 16.0251C9.34168 17.392 9.34168 19.608 7.97485 20.9749ZM11.9216 15.9246L21.0587 6.05653C21.8635 5.18737 21.8375 3.83758 20.9999 2.99999C20.1624 2.1624 18.8126 2.13645 17.9434 2.94123L8.07534 12.0783C7.5654 12.5505 7.31043 12.7866 7.16173 13.0384C6.80514 13.6421 6.79079 14.3885 7.12391 15.0056C7.26283 15.2629 7.50853 15.5086 7.99995 16C8.49136 16.4914 8.73707 16.7371 8.99438 16.876C9.6114 17.2091 10.3578 17.1948 10.9616 16.8382C11.2134 16.6895 11.4494 16.4345 11.9216 15.9246Z" stroke-width="2" stroke-linecap="round" stroke-linejoin="round"/></svg>