<svg width="24" height="24" viewBox="0 0 24 24" xmlns="http://www.w3.org/2000/svg" fill="currentColor"><path d="M4 14C4 12.1167 4.55833 10.3083 5.675 8.57501C6.79167 6.84167 8.325 5.32501 10.275 4.02501C10.6417 3.77501 11.0208 3.76251 11.4125 3.98751C11.8042 4.21251 12 4.55001 12 5.00001V6.30001C12 6.86667 12.1958 7.34167 12.5875 7.72501C12.9792 8.10834 13.4583 8.30001 14.025 8.30001C14.3083 8.30001 14.5792 8.23751 14.8375 8.11251C15.0958 7.98751 15.325 7.80834 15.525 7.57501C15.6583 7.40834 15.8292 7.30417 16.0375 7.26251C16.2458 7.22084 16.4417 7.26667 16.625 7.40001C17.675 8.15001 18.5 9.10834 19.1 10.275C19.7 11.4417 20 12.6833 20 14C20 15.4667 19.6417 16.8042 18.925 18.0125C18.2083 19.2208 17.2667 20.175 16.1 20.875C16.3833 20.475 16.6042 20.0375 16.7625 19.5625C16.9208 19.0875 17 18.5833 17 18.05C17 17.3833 16.875 16.7542 16.625 16.1625C16.375 15.5708 16.0167 15.0417 15.55 14.575L12 11.1L8.475 14.575C7.99167 15.0583 7.625 15.5917 7.375 16.175C7.125 16.7583 7 17.3833 7 18.05C7 18.5833 7.07917 19.0875 7.2375 19.5625C7.39583 20.0375 7.61667 20.475 7.9 20.875C6.73333 20.175 5.79167 19.2208 5.075 18.0125C4.35833 16.8042 4 15.4667 4 14ZM12 13.9L14.125 15.975C14.4083 16.2583 14.625 16.575 14.775 16.925C14.925 17.275 15 17.65 15 18.05C15 18.8667 14.7083 19.5625 14.125 20.1375C13.5417 20.7125 12.8333 21 12 21C11.1667 21 10.4583 20.7125 9.875 20.1375C9.29167 19.5625 9 18.8667 9 18.05C9 17.6667 9.075 17.2958 9.225 16.9375C9.375 16.5792 9.59167 16.2583 9.875 15.975L12 13.9Z"/></svg>