<svg width="24" height="24" viewBox="0 0 24 24" xmlns="http://www.w3.org/2000/svg" fill="currentColor"><g clip-path="url(#clip0_1113_6921)"><path d="M6.70005 14.7C6.51672 14.5167 6.42505 14.2833 6.42505 14C6.42505 13.7167 6.51672 13.4833 6.70005 13.3L11.3 8.69999C11.4 8.59999 11.5084 8.52899 11.625 8.48699C11.7417 8.44565 11.8667 8.42499 12 8.42499C12.1334 8.42499 12.2627 8.44999 12.388 8.49999C12.5127 8.54999 12.6167 8.61665 12.7 8.69999L17.3 13.3C17.4834 13.4833 17.575 13.7167 17.575 14C17.575 14.2833 17.4834 14.5167 17.3 14.7C17.1167 14.8833 16.8834 14.975 16.6 14.975C16.3167 14.975 16.0834 14.8833 15.9 14.7L12 10.8L8.10005 14.7C7.91672 14.8833 7.68338 14.975 7.40005 14.975C7.11672 14.975 6.88338 14.8833 6.70005 14.7Z"/></g><defs><clipPath id="clip0_1113_6921"><rect width="24" height="24"/></clipPath></defs></svg>