<svg width="24" height="24" viewBox="0 0 24 24" xmlns="http://www.w3.org/2000/svg" fill="currentColor"><g clip-path="url(#clip0_1113_6930)"><path d="M12 14.975C11.8667 14.975 11.7377 14.95 11.613 14.9C11.4877 14.85 11.3834 14.7833 11.3 14.7L6.70005 10.1C6.51672 9.91665 6.42505 9.68332 6.42505 9.39999C6.42505 9.11665 6.51672 8.88332 6.70005 8.69999C6.88338 8.51665 7.11672 8.42499 7.40005 8.42499C7.68338 8.42499 7.91672 8.51665 8.10005 8.69999L12 12.6L15.9 8.69999C16.0834 8.51665 16.3167 8.42499 16.6 8.42499C16.8834 8.42499 17.1167 8.51665 17.3 8.69999C17.4834 8.88332 17.575 9.11665 17.575 9.39999C17.575 9.68332 17.4834 9.91665 17.3 10.1L12.7 14.7C12.6 14.8 12.4917 14.8707 12.375 14.912C12.2584 14.954 12.1334 14.975 12 14.975Z"/></g><defs><clipPath id="clip0_1113_6930"><rect width="24" height="24"/></clipPath></defs></svg>