<svg width="24" height="24" viewBox="0 0 24 24" xmlns="http://www.w3.org/2000/svg" fill="currentColor"><g clip-path="url(#clip0_1113_6933)"><path d="M6.70005 11.7C6.51672 11.5167 6.42505 11.2833 6.42505 11C6.42505 10.7167 6.51672 10.4833 6.70005 10.3L11.3 5.69999C11.4 5.59999 11.5084 5.52932 11.625 5.48799C11.7417 5.44599 11.8667 5.42499 12 5.42499C12.1334 5.42499 12.2584 5.44599 12.375 5.48799C12.4917 5.52932 12.6 5.59999 12.7 5.69999L17.3 10.3C17.4834 10.4833 17.579 10.7123 17.587 10.987C17.5957 11.2623 17.5 11.5 17.3 11.7C17.1167 11.8833 16.8834 11.975 16.6 11.975C16.3167 11.975 16.0834 11.8833 15.9 11.7L12 7.82499L8.10005 11.7C7.91672 11.8833 7.68738 11.9793 7.41205 11.988C7.13738 11.996 6.90005 11.9 6.70005 11.7ZM6.70005 17.7C6.51672 17.5167 6.42505 17.2833 6.42505 17C6.42505 16.7167 6.51672 16.4833 6.70005 16.3L11.3 11.7C11.4 11.6 11.5084 11.529 11.625 11.487C11.7417 11.4457 11.8667 11.425 12 11.425C12.1334 11.425 12.2584 11.4457 12.375 11.487C12.4917 11.529 12.6 11.6 12.7 11.7L17.3 16.3C17.4834 16.4833 17.579 16.7123 17.587 16.987C17.5957 17.2623 17.5 17.5 17.3 17.7C17.1167 17.8833 16.8834 17.975 16.6 17.975C16.3167 17.975 16.0834 17.8833 15.9 17.7L12 13.825L8.10005 17.7C7.91672 17.8833 7.68738 17.9793 7.41205 17.988C7.13738 17.996 6.90005 17.9 6.70005 17.7Z"/></g><defs><clipPath id="clip0_1113_6933"><rect width="24" height="24"/></clipPath></defs></svg>