<svg width="24" height="24" viewBox="0 0 24 24" xmlns="http://www.w3.org/2000/svg" fill="currentColor"><g clip-path="url(#clip0_1113_6942)"><path d="M12 12.575C11.8667 12.575 11.7417 12.554 11.625 12.512C11.5083 12.4707 11.4 12.4 11.3 12.3L6.70002 7.7C6.51668 7.51666 6.42102 7.28733 6.41302 7.012C6.40435 6.73733 6.50002 6.5 6.70002 6.3C6.88335 6.11666 7.11668 6.025 7.40002 6.025C7.68335 6.025 7.91668 6.11666 8.10002 6.3L12 10.175L15.9 6.3C16.0833 6.11666 16.3123 6.02066 16.587 6.012C16.8623 6.004 17.1 6.1 17.3 6.3C17.4833 6.48333 17.575 6.71666 17.575 7C17.575 7.28333 17.4833 7.51666 17.3 7.7L12.7 12.3C12.6 12.4 12.4917 12.4707 12.375 12.512C12.2583 12.554 12.1333 12.575 12 12.575ZM12 18.575C11.8667 18.575 11.7417 18.554 11.625 18.512C11.5083 18.4707 11.4 18.4 11.3 18.3L6.70002 13.7C6.51668 13.5167 6.42102 13.2873 6.41302 13.012C6.40435 12.7373 6.50002 12.5 6.70002 12.3C6.88335 12.1167 7.11668 12.025 7.40002 12.025C7.68335 12.025 7.91668 12.1167 8.10002 12.3L12 16.175L15.9 12.3C16.0833 12.1167 16.3123 12.0207 16.587 12.012C16.8623 12.004 17.1 12.1 17.3 12.3C17.4833 12.4833 17.575 12.7167 17.575 13C17.575 13.2833 17.4833 13.5167 17.3 13.7L12.7 18.3C12.6 18.4 12.4917 18.4707 12.375 18.512C12.2583 18.554 12.1333 18.575 12 18.575Z"/></g><defs><clipPath id="clip0_1113_6942"><rect width="24" height="24"/></clipPath></defs></svg>