<svg width="24" height="24" viewBox="0 0 24 24" xmlns="http://www.w3.org/2000/svg" fill="currentColor"><g clip-path="url(#clip0_1113_6939)"><path d="M16.9 17.3L12.3 12.7C12.2 12.6 12.1294 12.4917 12.088 12.375C12.046 12.2584 12.025 12.1334 12.025 12C12.025 11.8667 12.046 11.7417 12.088 11.625C12.1294 11.5084 12.2 11.4 12.3 11.3L16.9 6.70002C17.0834 6.51669 17.3124 6.42069 17.587 6.41202C17.8624 6.40402 18.1 6.50002 18.3 6.70002C18.4834 6.88335 18.575 7.11669 18.575 7.40002C18.575 7.68335 18.4834 7.91669 18.3 8.10002L14.425 12L18.3 15.9C18.4834 16.0834 18.579 16.3124 18.587 16.587C18.5957 16.8624 18.5 17.1 18.3 17.3C18.1167 17.4834 17.8834 17.575 17.6 17.575C17.3167 17.575 17.0834 17.4834 16.9 17.3ZM10.3 17.3L5.70005 12.7C5.60005 12.6 5.52938 12.4917 5.48805 12.375C5.44605 12.2584 5.42505 12.1334 5.42505 12C5.42505 11.8667 5.44605 11.7417 5.48805 11.625C5.52938 11.5084 5.60005 11.4 5.70005 11.3L10.3 6.70002C10.4834 6.51669 10.7127 6.42069 10.988 6.41202C11.2627 6.40402 11.5 6.50002 11.7 6.70002C11.8834 6.88335 11.975 7.11669 11.975 7.40002C11.975 7.68335 11.8834 7.91669 11.7 8.10002L7.82505 12L11.7 15.9C11.8834 16.0834 11.9794 16.3124 11.988 16.587C11.996 16.8624 11.9 17.1 11.7 17.3C11.5167 17.4834 11.2834 17.575 11 17.575C10.7167 17.575 10.4834 17.4834 10.3 17.3Z"/></g><defs><clipPath id="clip0_1113_6939"><rect width="24" height="24"/></clipPath></defs></svg>