<svg width="24" height="24" viewBox="0 0 24 24" xmlns="http://www.w3.org/2000/svg" fill="currentColor"><g clip-path="url(#clip0_1113_6936)"><path d="M5.70002 17.3C5.51668 17.1167 5.42502 16.8833 5.42502 16.6C5.42502 16.3167 5.51668 16.0833 5.70002 15.9L9.57502 12L5.70002 8.09999C5.51668 7.91665 5.42102 7.68732 5.41302 7.41199C5.40435 7.13732 5.50002 6.89999 5.70002 6.69999C5.88335 6.51665 6.11668 6.42499 6.40002 6.42499C6.68335 6.42499 6.91668 6.51665 7.10002 6.69999L11.7 11.3C11.8 11.4 11.871 11.5083 11.913 11.625C11.9543 11.7417 11.975 11.8667 11.975 12C11.975 12.1333 11.9543 12.2583 11.913 12.375C11.871 12.4917 11.8 12.6 11.7 12.7L7.10002 17.3C6.91668 17.4833 6.68735 17.579 6.41202 17.587C6.13735 17.5957 5.90002 17.5 5.70002 17.3ZM12.3 17.3C12.1167 17.1167 12.025 16.8833 12.025 16.6C12.025 16.3167 12.1167 16.0833 12.3 15.9L16.175 12L12.3 8.09999C12.1167 7.91665 12.0207 7.68732 12.012 7.41199C12.004 7.13732 12.1 6.89999 12.3 6.69999C12.4833 6.51665 12.7167 6.42499 13 6.42499C13.2833 6.42499 13.5167 6.51665 13.7 6.69999L18.3 11.3C18.4 11.4 18.4707 11.5083 18.512 11.625C18.554 11.7417 18.575 11.8667 18.575 12C18.575 12.1333 18.554 12.2583 18.512 12.375C18.4707 12.4917 18.4 12.6 18.3 12.7L13.7 17.3C13.5167 17.4833 13.2877 17.579 13.013 17.587C12.7377 17.5957 12.5 17.5 12.3 17.3Z"/></g><defs><clipPath id="clip0_1113_6936"><rect width="24" height="24"/></clipPath></defs></svg>