<svg width="24" height="24" viewBox="0 0 24 24" xmlns="http://www.w3.org/2000/svg" fill="currentColor"><g clip-path="url(#clip0_1113_6909)"><path d="M6.5 20C4.98333 20 3.68767 19.475 2.613 18.425C1.53767 17.375 1 16.0917 1 14.575C1 13.275 1.39167 12.1167 2.175 11.1C2.95833 10.0833 3.98333 9.43335 5.25 9.15001C5.63333 7.80001 6.346 6.66668 7.388 5.75001C8.42933 4.83335 9.63333 4.27501 11 4.07501V12.15L10.1 11.275C9.91667 11.0917 9.68767 11 9.413 11C9.13767 11 8.9 11.1 8.7 11.3C8.51667 11.4833 8.425 11.7167 8.425 12C8.425 12.2833 8.51667 12.5167 8.7 12.7L11.3 15.3C11.5 15.5 11.7333 15.6 12 15.6C12.2667 15.6 12.5 15.5 12.7 15.3L15.3 12.7C15.4833 12.5167 15.5793 12.2873 15.588 12.012C15.596 11.7373 15.5 11.5 15.3 11.3C15.1167 11.1167 14.8877 11.0207 14.613 11.012C14.3377 11.004 14.1 11.0917 13.9 11.275L13 12.15V4.07501C14.7167 4.30835 16.146 5.07901 17.288 6.38701C18.4293 7.69568 19 9.23335 19 11C20.15 11.1333 21.1043 11.629 21.863 12.487C22.621 13.3457 23 14.35 23 15.5C23 16.75 22.5627 17.8127 21.688 18.688C20.8127 19.5627 19.75 20 18.5 20H6.5Z"/></g><defs><clipPath id="clip0_1113_6909"><rect width="24" height="24"/></clipPath></defs></svg>