<svg width="24" height="24" viewBox="0 0 24 24" xmlns="http://www.w3.org/2000/svg" fill="currentColor"><g clip-path="url(#clip0_1113_6906)"><path d="M16.7 17.3C16.5167 17.4834 16.2877 17.575 16.013 17.575C15.7377 17.575 15.5 17.475 15.3 17.275C15.1 17.075 15 16.8374 15 16.562C15 16.2874 15.1 16.05 15.3 15.85L19.175 11.975L15.275 8.07502C15.0917 7.89169 15.004 7.66235 15.012 7.38702C15.0207 7.11235 15.1167 6.88335 15.3 6.70002C15.4834 6.51669 15.7167 6.42502 16 6.42502C16.2834 6.42502 16.5167 6.51669 16.7 6.70002L21.3 11.3C21.5 11.5 21.6 11.7334 21.6 12C21.6 12.2667 21.5 12.5 21.3 12.7L16.7 17.3ZM7.30002 17.3L2.70002 12.7C2.50002 12.5 2.40002 12.2667 2.40002 12C2.40002 11.7334 2.50002 11.5 2.70002 11.3L7.30002 6.70002C7.48336 6.51669 7.71669 6.42069 8.00002 6.41202C8.28336 6.40402 8.52502 6.50002 8.72502 6.70002C8.92502 6.90002 9.02502 7.13735 9.02502 7.41202C9.02502 7.68735 8.92502 7.92502 8.72502 8.12502L4.82502 12.025L8.72502 15.925C8.90836 16.1084 8.99602 16.3374 8.98802 16.612C8.97936 16.8874 8.88336 17.1167 8.70002 17.3C8.51669 17.4834 8.28336 17.575 8.00002 17.575C7.71669 17.575 7.48336 17.4834 7.30002 17.3Z"/></g><defs><clipPath id="clip0_1113_6906"><rect width="24" height="24"/></clipPath></defs></svg>