<svg width="24" height="24" viewBox="0 0 24 24" xmlns="http://www.w3.org/2000/svg" fill="currentColor"><g clip-path="url(#clip0_1113_6894)"><path d="M12 5C12.2833 5 12.521 4.904 12.713 4.712C12.9043 4.52067 13 4.28333 13 4C13 3.71667 12.9043 3.479 12.713 3.287C12.521 3.09567 12.2833 3 12 3C11.7167 3 11.4793 3.09567 11.288 3.287C11.096 3.479 11 3.71667 11 4C11 4.28333 11.096 4.52067 11.288 4.712C11.4793 4.904 11.7167 5 12 5ZM5 21C4.45 21 3.979 20.8043 3.587 20.413C3.19567 20.021 3 19.55 3 19V5C3 4.45 3.19567 3.979 3.587 3.587C3.979 3.19567 4.45 3 5 3H9.175C9.35833 2.41667 9.71667 1.93733 10.25 1.562C10.7833 1.18733 11.3667 1 12 1C12.6667 1 13.2627 1.18733 13.788 1.562C14.3127 1.93733 14.6667 2.41667 14.85 3H19C19.55 3 20.021 3.19567 20.413 3.587C20.8043 3.979 21 4.45 21 5V19C21 19.55 20.8043 20.021 20.413 20.413C20.021 20.8043 19.55 21 19 21H5ZM5 19H19V5H17V6C17 6.55 16.8043 7.02067 16.413 7.412C16.021 7.804 15.55 8 15 8H9C8.45 8 7.97933 7.804 7.588 7.412C7.196 7.02067 7 6.55 7 6V5H5V19Z"/></g><defs><clipPath id="clip0_1113_6894"><rect width="24" height="24"/></clipPath></defs></svg>