<svg width="24" height="24" viewBox="0 0 24 24" xmlns="http://www.w3.org/2000/svg" fill="currentColor"><g clip-path="url(#clip0_1113_6900)"><path d="M5 23C4.71667 23 4.479 22.904 4.287 22.712C4.09567 22.5207 4 22.2833 4 22C4 21.7167 4.09567 21.4793 4.287 21.288C4.479 21.096 4.71667 21 5 21H19C19.2833 21 19.5207 21.096 19.712 21.288C19.904 21.4793 20 21.7167 20 22C20 22.2833 19.904 22.5207 19.712 22.712C19.5207 22.904 19.2833 23 19 23H5ZM5 3C4.71667 3 4.479 2.904 4.287 2.712C4.09567 2.52067 4 2.28333 4 2C4 1.71667 4.09567 1.479 4.287 1.287C4.479 1.09567 4.71667 1 5 1H19C19.2833 1 19.5207 1.09567 19.712 1.287C19.904 1.479 20 1.71667 20 2C20 2.28333 19.904 2.52067 19.712 2.712C19.5207 2.904 19.2833 3 19 3H5ZM12 13C12.8333 13 13.5417 12.7083 14.125 12.125C14.7083 11.5417 15 10.8333 15 10C15 9.16667 14.7083 8.45833 14.125 7.875C13.5417 7.29167 12.8333 7 12 7C11.1667 7 10.4583 7.29167 9.875 7.875C9.29167 8.45833 9 9.16667 9 10C9 10.8333 9.29167 11.5417 9.875 12.125C10.4583 12.7083 11.1667 13 12 13ZM4 20C3.45 20 2.97933 19.8043 2.588 19.413C2.196 19.021 2 18.55 2 18V6C2 5.45 2.196 4.97933 2.588 4.588C2.97933 4.196 3.45 4 4 4H20C20.55 4 21.021 4.196 21.413 4.588C21.8043 4.97933 22 5.45 22 6V18C22 18.55 21.8043 19.021 21.413 19.413C21.021 19.8043 20.55 20 20 20H4ZM5.75 18H18.25C17.5 17.0667 16.5917 16.3333 15.525 15.8C14.4583 15.2667 13.2833 15 12 15C10.7167 15 9.54167 15.2667 8.475 15.8C7.40833 16.3333 6.5 17.0667 5.75 18Z"/></g><defs><clipPath id="clip0_1113_6900"><rect width="24" height="24"/></clipPath></defs></svg>