<svg width="24" height="24" viewBox="0 0 24 24" xmlns="http://www.w3.org/2000/svg" fill="currentColor"><g clip-path="url(#clip0_1113_6891)"><path d="M9 18C8.45 18 7.97933 17.8043 7.588 17.413C7.196 17.021 7 16.55 7 16V4C7 3.45 7.196 2.979 7.588 2.587C7.97933 2.19567 8.45 2 9 2H18C18.55 2 19.021 2.19567 19.413 2.587C19.8043 2.979 20 3.45 20 4V16C20 16.55 19.8043 17.021 19.413 17.413C19.021 17.8043 18.55 18 18 18H9ZM9 16H18V4H9V16ZM3 15H5V13H3V15ZM3 11.5H5V9.5H3V11.5ZM10 22H12V20H10V22ZM3 18.5H5V16.5H3V18.5ZM5 22V20H3C3 20.55 3.19567 21.021 3.587 21.413C3.979 21.8043 4.45 22 5 22ZM6.5 22H8.5V20H6.5V22ZM13.5 22C14.05 22 14.521 21.8043 14.913 21.413C15.3043 21.021 15.5 20.55 15.5 20H13.5V22ZM3 8H5V6C4.45 6 3.979 6.196 3.587 6.588C3.19567 6.97933 3 7.45 3 8Z"/></g><defs><clipPath id="clip0_1113_6891"><rect width="24" height="24"/></clipPath></defs></svg>