<svg width="24" height="24" viewBox="0 0 24 24" fill="none" xmlns="http://www.w3.org/2000/svg" stroke="currentColor"><path d="M17.8778 20.0902C16.1694 21.3315 14.1118 22 12 22C9.88818 22 7.8306 21.3315 6.12212 20.0902M16.3837 3.01206C18.2818 3.93781 19.838 5.44068 20.8295 7.30528C21.8209 9.16989 22.1966 11.3005 21.9027 13.3917M2.09739 13.3916C1.80349 11.3004 2.17917 9.16979 3.1706 7.30519C4.16202 5.44059 5.71829 3.93771 7.61636 3.01196M11.4343 6.56569L6.56566 11.4343C6.36765 11.6323 6.26865 11.7313 6.23155 11.8455C6.19892 11.9459 6.19892 12.0541 6.23155 12.1545C6.26865 12.2687 6.36765 12.3677 6.56566 12.5657L11.4343 17.4343C11.6323 17.6323 11.7313 17.7313 11.8455 17.7684C11.9459 17.8011 12.0541 17.8011 12.1545 17.7684C12.2686 17.7313 12.3677 17.6323 12.5657 17.4343L17.4343 12.5657C17.6323 12.3677 17.7313 12.2687 17.7684 12.1545C17.801 12.0541 17.801 11.9459 17.7684 11.8455C17.7313 11.7313 17.6323 11.6323 17.4343 11.4343L12.5657 6.56569C12.3677 6.36768 12.2686 6.26867 12.1545 6.23158C12.0541 6.19895 11.9459 6.19895 11.8455 6.23158C11.7313 6.26867 11.6323 6.36768 11.4343 6.56569Z" stroke-width="2" stroke-linecap="round" stroke-linejoin="round"/></svg>