<svg width="24" height="24" viewBox="0 0 24 24" fill="none" xmlns="http://www.w3.org/2000/svg" stroke="currentColor"><path d="M9.75 20.75L11.223 21.5683C11.5066 21.7259 11.6484 21.8047 11.7986 21.8356C11.9315 21.8629 12.0685 21.8629 12.2015 21.8356C12.3516 21.8047 12.4934 21.7259 12.777 21.5683L14.25 20.75M5.25 18.25L3.82297 17.4572C3.52346 17.2908 3.37368 17.2076 3.26463 17.0893C3.16816 16.9846 3.09515 16.8605 3.05048 16.7253C3 16.5725 3 16.4012 3 16.0586V14.5M3 9.50002V7.94147C3 7.59883 3 7.42751 3.05048 7.27471C3.09515 7.13953 3.16816 7.01545 3.26463 6.91076C3.37368 6.79242 3.52345 6.70922 3.82297 6.54282L5.25 5.75002M9.75 3.25002L11.223 2.43171C11.5066 2.27415 11.6484 2.19537 11.7986 2.16448C11.9315 2.13715 12.0685 2.13715 12.2015 2.16448C12.3516 2.19537 12.4934 2.27415 12.777 2.43171L14.25 3.25002M18.75 5.75002L20.177 6.54282C20.4766 6.70922 20.6263 6.79242 20.7354 6.91076C20.8318 7.01545 20.9049 7.13953 20.9495 7.27471C21 7.4275 21 7.59883 21 7.94147V9.50002M21 14.5V16.0586C21 16.4012 21 16.5725 20.9495 16.7253C20.9049 16.8605 20.8318 16.9846 20.7354 17.0893C20.6263 17.2076 20.4766 17.2908 20.177 17.4572L18.75 18.25M9.75 10.75L12 12M12 12L14.25 10.75M12 12V14.5M3 7.00002L5.25 8.25002M18.75 8.25002L21 7.00002M12 19.5V22" stroke-width="2" stroke-linecap="round" stroke-linejoin="round"/></svg>