<svg width="24" height="24" viewBox="0 0 24 24" xmlns="http://www.w3.org/2000/svg" fill="currentColor"><g clip-path="url(#clip0_1113_6876)"><path d="M12 11C9.5 11 7.375 10.6083 5.625 9.825C3.875 9.04167 3 8.1 3 7C3 5.9 3.875 4.95833 5.625 4.175C7.375 3.39167 9.5 3 12 3C14.5 3 16.625 3.39167 18.375 4.175C20.125 4.95833 21 5.9 21 7C21 8.1 20.125 9.04167 18.375 9.825C16.625 10.6083 14.5 11 12 11ZM12 16C9.5 16 7.375 15.6083 5.625 14.825C3.875 14.0417 3 13.1 3 12V9.5C3 10.2333 3.34167 10.8543 4.025 11.363C4.70833 11.871 5.525 12.2833 6.475 12.6C7.425 12.9167 8.41267 13.1457 9.438 13.287C10.4627 13.429 11.3167 13.5 12 13.5C12.6833 13.5 13.5373 13.429 14.562 13.287C15.5873 13.1457 16.575 12.9167 17.525 12.6C18.475 12.2833 19.2917 11.871 19.975 11.363C20.6583 10.8543 21 10.2333 21 9.5V12C21 13.1 20.125 14.0417 18.375 14.825C16.625 15.6083 14.5 16 12 16ZM12 21C9.5 21 7.375 20.6083 5.625 19.825C3.875 19.0417 3 18.1 3 17V14.5C3 15.2333 3.34167 15.8543 4.025 16.363C4.70833 16.871 5.525 17.2833 6.475 17.6C7.425 17.9167 8.41267 18.146 9.438 18.288C10.4627 18.4293 11.3167 18.5 12 18.5C12.6833 18.5 13.5373 18.4293 14.562 18.288C15.5873 18.146 16.575 17.9167 17.525 17.6C18.475 17.2833 19.2917 16.871 19.975 16.363C20.6583 15.8543 21 15.2333 21 14.5V17C21 18.1 20.125 19.0417 18.375 19.825C16.625 20.6083 14.5 21 12 21Z"/></g><defs><clipPath id="clip0_1113_6876"><rect width="24" height="24"/></clipPath></defs></svg>