<svg width="24" height="24" viewBox="0 0 24 24" xmlns="http://www.w3.org/2000/svg" fill="currentColor"><g clip-path="url(#clip0_1113_6882)"><path d="M18 18V6H16C15.7167 6 15.4793 5.90433 15.288 5.713C15.096 5.521 15 5.28333 15 5C15 4.71667 15.096 4.479 15.288 4.287C15.4793 4.09567 15.7167 4 16 4H18C18.55 4 19.021 4.196 19.413 4.588C19.8043 4.97933 20 5.45 20 6V18C20 18.55 19.8043 19.021 19.413 19.413C19.021 19.8043 18.55 20 18 20H16C15.7167 20 15.4793 19.904 15.288 19.712C15.096 19.5207 15 19.2833 15 19C15 18.7167 15.096 18.4793 15.288 18.288C15.4793 18.096 15.7167 18 16 18H18ZM6 18H8C8.28333 18 8.521 18.096 8.713 18.288C8.90433 18.4793 9 18.7167 9 19C9 19.2833 8.90433 19.5207 8.713 19.712C8.521 19.904 8.28333 20 8 20H6C5.45 20 4.97933 19.8043 4.588 19.413C4.196 19.021 4 18.55 4 18V6C4 5.45 4.196 4.97933 4.588 4.588C4.97933 4.196 5.45 4 6 4H8C8.28333 4 8.521 4.09567 8.713 4.287C8.90433 4.479 9 4.71667 9 5C9 5.28333 8.90433 5.521 8.713 5.713C8.521 5.90433 8.28333 6 8 6H6V18Z"/></g><defs><clipPath id="clip0_1113_6882"><rect width="24" height="24"/></clipPath></defs></svg>