<!-- Generated by IcoMoon.io -->
<svg version="1.1" xmlns="http://www.w3.org/2000/svg" width="1024" height="1024" viewBox="0 0 1024 1024">
<title></title>
<g id="icomoon-ignore">
</g>
<path d="M109.714 950.857c-20.198 0-36.571 16.377-36.571 36.571s16.374 36.571 36.571 36.571h804.571c20.194 0 36.571-16.377 36.571-36.571s-16.377-36.571-36.571-36.571h-804.571zM887.808 522.094l-341.334 341.336c-19.041 19.039-49.907 19.039-68.949 0l-341.334-341.336c-9.533-9.533-14.287-21.992-14.287-34.474s4.754-24.942 14.287-34.475c19.041-19.041 49.907-19.041 68.95 0l258.096 258.097v-662.479c0-26.917 21.846-48.762 48.762-48.762s48.762 21.846 48.762 48.762v662.479l258.094-258.097c19.047-19.041 49.913-19.041 68.952 0s19.039 49.909 0 68.95z"></path>
</svg>
