<svg width="24" height="24" viewBox="0 0 24 24" xmlns="http://www.w3.org/2000/svg" fill="currentColor"><path d="M10.9999 12.975H5.8749L6.9749 14.075C7.1749 14.275 7.2749 14.5167 7.2749 14.8C7.2749 15.0834 7.1749 15.325 6.9749 15.525C6.7749 15.725 6.53324 15.825 6.2499 15.825C5.96657 15.825 5.7249 15.725 5.5249 15.525L2.6999 12.7C2.4999 12.5 2.3999 12.2667 2.3999 12C2.3999 11.7334 2.4999 11.5 2.6999 11.3L5.5249 8.47502C5.7249 8.27502 5.96257 8.17502 6.2379 8.17502C6.51257 8.17502 6.7499 8.27502 6.9499 8.47502C7.1499 8.67502 7.2499 8.91269 7.2499 9.18802C7.2499 9.46269 7.1499 9.70002 6.9499 9.90002L5.8499 11H10.9999V5.85002L9.8749 6.97502C9.6749 7.17502 9.44157 7.27502 9.1749 7.27502C8.90824 7.27502 8.6749 7.17502 8.4749 6.97502C8.2749 6.77502 8.1749 6.53736 8.1749 6.26202C8.1749 5.98736 8.2749 5.75002 8.4749 5.55002L11.2999 2.70002C11.4999 2.50002 11.7332 2.40002 11.9999 2.40002C12.2666 2.40002 12.4999 2.50002 12.6999 2.70002L15.5499 5.55002C15.7499 5.75002 15.8499 5.98336 15.8499 6.25002C15.8499 6.51669 15.7499 6.75002 15.5499 6.95002C15.3499 7.15002 15.1126 7.25002 14.8379 7.25002C14.5626 7.25002 14.3249 7.15002 14.1249 6.95002L12.9999 5.85002V11L18.1249 11.025L17.0249 9.92502C16.8249 9.72502 16.7249 9.48336 16.7249 9.20002C16.7249 8.91669 16.8249 8.67502 17.0249 8.47502C17.2249 8.27502 17.4666 8.17502 17.7499 8.17502C18.0332 8.17502 18.2749 8.27502 18.4749 8.47502L21.2999 11.3C21.4999 11.5 21.5999 11.7334 21.5999 12C21.5999 12.2667 21.4999 12.5 21.2999 12.7L18.4499 15.55C18.2499 15.75 18.0126 15.8457 17.7379 15.837C17.4626 15.829 17.2249 15.725 17.0249 15.525C16.8249 15.325 16.7249 15.0874 16.7249 14.812C16.7249 14.5374 16.8249 14.3 17.0249 14.1L18.1499 12.975H12.9999V18.125L14.0749 17.025C14.2749 16.825 14.5166 16.725 14.7999 16.725C15.0832 16.725 15.3249 16.825 15.5249 17.025C15.7249 17.225 15.8249 17.4667 15.8249 17.75C15.8249 18.0334 15.7249 18.275 15.5249 18.475L12.6999 21.3C12.4999 21.5 12.2666 21.6 11.9999 21.6C11.7332 21.6 11.4999 21.5 11.2999 21.3L8.4499 18.45C8.2499 18.25 8.15424 18.0124 8.1629 17.737C8.1709 17.4624 8.2749 17.225 8.4749 17.025C8.6749 16.825 8.91257 16.725 9.1879 16.725C9.46257 16.725 9.6999 16.825 9.8999 17.025L10.9999 18.15V12.975Z"/></svg>