<svg width="24" height="24" viewBox="0 0 24 24" xmlns="http://www.w3.org/2000/svg" fill="currentColor"><g clip-path="url(#clip0_1113_6858)"><path d="M21.875 9.04999L17.6 4.84999L18.675 3.77499C19.075 3.37499 19.5543 3.17499 20.113 3.17499C20.671 3.17499 21.1417 3.37499 21.525 3.77499L22.925 5.19999C23.3083 5.58332 23.5 6.04999 23.5 6.59999C23.5 7.14999 23.3083 7.61665 22.925 7.99999L21.875 9.04999ZM5 23.7C4.45 23.7 3.979 23.504 3.587 23.112C3.19567 22.7207 3 22.25 3 21.7V7.69999C3 7.14999 3.19567 6.67899 3.587 6.28699C3.979 5.89565 4.45 5.69999 5 5.69999H13.925L7.875 11.75C7.59167 12.0333 7.375 12.3583 7.225 12.725C7.075 13.0917 7 13.475 7 13.875V17.7C7 18.25 7.196 18.7207 7.588 19.112C7.97933 19.504 8.45 19.7 9 19.7H12.825C13.225 19.7 13.6083 19.625 13.975 19.475C14.3417 19.325 14.6667 19.1083 14.95 18.825L21 12.75V21.7C21 22.25 20.8043 22.7207 20.413 23.112C20.021 23.504 19.55 23.7 19 23.7H5ZM10 17.7C9.71667 17.7 9.47933 17.6043 9.288 17.413C9.096 17.221 9 16.9833 9 16.7V14.275C9 14.0083 9.05 13.754 9.15 13.512C9.25 13.2707 9.39167 13.0583 9.575 12.875L16.175 6.27499L20.45 10.475L13.825 17.1C13.6417 17.2833 13.4293 17.4293 13.188 17.538C12.946 17.646 12.6917 17.7 12.425 17.7H10Z"/></g><defs><clipPath id="clip0_1113_6858"><rect width="24" height="24"/></clipPath></defs></svg>