<svg width="24" height="24" viewBox="0 0 24 24" xmlns="http://www.w3.org/2000/svg" fill="currentColor"><g clip-path="url(#clip0_1113_6852)"><path d="M10.65 19.8L8.925 18.225C7.15833 16.6083 5.56267 15.004 4.138 13.412C2.71267 11.8207 2 10.0667 2 8.14999C2 6.58333 2.525 5.27499 3.575 4.22499C4.625 3.17499 5.93333 2.64999 7.5 2.64999C8.38333 2.64999 9.21667 2.83733 10 3.21199C10.7833 3.58733 11.45 4.09999 12 4.74999C12.55 4.09999 13.2167 3.58733 14 3.21199C14.7833 2.83733 15.6167 2.64999 16.5 2.64999C18.0667 2.64999 19.375 3.17499 20.425 4.22499C21.475 5.27499 22 6.58333 22 8.14999C22 10.0667 21.2917 11.825 19.875 13.425C18.4583 15.025 16.85 16.6333 15.05 18.25L13.35 19.8C12.9667 20.15 12.5167 20.325 12 20.325C11.4833 20.325 11.0333 20.15 10.65 19.8Z"/></g><defs><clipPath id="clip0_1113_6852"><rect width="24" height="24"/></clipPath></defs></svg>