<svg width="24" height="24" viewBox="0 0 24 24" fill="none" xmlns="http://www.w3.org/2000/svg" stroke="currentColor"><path d="M16 8.00001L2 22M18 15H9M6.6 19H13.3373C13.5818 19 13.7041 19 13.8192 18.9724C13.9213 18.9479 14.0188 18.9075 14.1083 18.8526C14.2092 18.7908 14.2957 18.7043 14.4686 18.5314L19.5 13.5C19.739 13.261 19.8584 13.1416 19.9546 13.0358C22.0348 10.7473 22.0348 7.25269 19.9546 4.96424C19.8584 4.85845 19.739 4.73897 19.5 4.50001C19.261 4.26105 19.1416 4.14157 19.0358 4.04541C16.7473 1.96525 13.2527 1.96525 10.9642 4.04541C10.8584 4.14157 10.739 4.26105 10.5 4.50001L5.46863 9.53138C5.29568 9.70433 5.2092 9.79081 5.14736 9.89172C5.09253 9.9812 5.05213 10.0787 5.02763 10.1808C5 10.2959 5 10.4182 5 10.6628V17.4C5 17.9601 5 18.2401 5.10899 18.454C5.20487 18.6422 5.35785 18.7951 5.54601 18.891C5.75992 19 6.03995 19 6.6 19Z" stroke-width="2" stroke-linecap="round" stroke-linejoin="round"/></svg>