<svg width="24" height="24" viewBox="0 0 24 24" xmlns="http://www.w3.org/2000/svg" fill="currentColor"><path d="M15 6.7C14.7667 6.46667 14.5083 6.28333 14.225 6.15C13.9417 6.01667 13.6083 5.95 13.225 5.95C12.925 5.95 12.6333 5.99167 12.35 6.075C12.0667 6.15833 11.8083 6.31667 11.575 6.55L10.125 5.1C10.3583 4.86667 10.675 4.65417 11.075 4.4625C11.475 4.27083 11.8417 4.15 12.175 4.1V3C12.175 2.71667 12.2708 2.47917 12.4625 2.2875C12.6542 2.09583 12.8917 2 13.175 2C13.4583 2 13.6958 2.09583 13.8875 2.2875C14.0792 2.47917 14.175 2.71667 14.175 3V4.05C14.7583 4.16667 15.2792 4.375 15.7375 4.675C16.1958 4.975 16.5917 5.35833 16.925 5.825C17.0917 6.05833 17.1208 6.30833 17.0125 6.575C16.9042 6.84167 16.7083 7.04167 16.425 7.175C16.1917 7.25833 15.95 7.25833 15.7 7.175C15.45 7.09167 15.2167 6.93333 15 6.7ZM20.275 20.9L16.375 17C16.125 17.25 15.7833 17.4542 15.35 17.6125C14.9167 17.7708 14.525 17.8667 14.175 17.9V19C14.175 19.2833 14.0792 19.5208 13.8875 19.7125C13.6958 19.9042 13.4583 20 13.175 20C12.8917 20 12.6542 19.9042 12.4625 19.7125C12.2708 19.5208 12.175 19.2833 12.175 19V17.85C11.425 17.6667 10.7708 17.3542 10.2125 16.9125C9.65417 16.4708 9.20833 15.9167 8.875 15.25C8.74167 15 8.73333 14.7333 8.85 14.45C8.96667 14.1667 9.175 13.9667 9.475 13.85C9.725 13.75 9.98333 13.75 10.25 13.85C10.5167 13.95 10.725 14.1417 10.875 14.425C11.125 14.8917 11.4583 15.2708 11.875 15.5625C12.2917 15.8542 12.7917 16 13.375 16C13.675 16 13.95 15.9625 14.2 15.8875C14.45 15.8125 14.6917 15.7 14.925 15.55L3.275 3.9C3.09167 3.71667 3 3.48333 3 3.2C3 2.91667 3.09167 2.68333 3.275 2.5C3.45833 2.31667 3.69167 2.225 3.975 2.225C4.25833 2.225 4.49167 2.31667 4.675 2.5L21.675 19.5C21.775 19.6 21.8458 19.7083 21.8875 19.825C21.9292 19.9417 21.95 20.0667 21.95 20.2C21.95 20.3333 21.9292 20.4583 21.8875 20.575C21.8458 20.6917 21.775 20.8 21.675 20.9C21.4917 21.0833 21.2583 21.175 20.975 21.175C20.6917 21.175 20.4583 21.0833 20.275 20.9Z"/></svg>