<svg width="24" height="24" viewBox="0 0 24 24" xmlns="http://www.w3.org/2000/svg" fill="currentColor"><path d="M12.775 24C11.5583 24 10.446 23.7707 9.438 23.312C8.42933 22.854 7.55833 22.246 6.825 21.488C6.09167 20.7293 5.521 19.85 5.113 18.85C4.70433 17.85 4.5 16.8167 4.5 15.75V5.75C4.5 5.4 4.621 5.104 4.863 4.862C5.10433 4.62067 5.4 4.5 5.75 4.5C6.1 4.5 6.396 4.62067 6.638 4.862C6.87933 5.104 7 5.4 7 5.75V11.5C7 11.6333 7.05 11.75 7.15 11.85C7.25 11.95 7.36667 12 7.5 12C7.63333 12 7.75 11.95 7.85 11.85C7.95 11.75 8 11.6333 8 11.5V2.75C8 2.4 8.121 2.104 8.363 1.862C8.60433 1.62067 8.9 1.5 9.25 1.5C9.6 1.5 9.89567 1.62067 10.137 1.862C10.379 2.104 10.5 2.4 10.5 2.75V10.5C10.5 10.6333 10.55 10.75 10.65 10.85C10.75 10.95 10.8667 11 11 11C11.1333 11 11.25 10.95 11.35 10.85C11.45 10.75 11.5 10.6333 11.5 10.5V1.25C11.5 0.9 11.621 0.604 11.863 0.362C12.1043 0.120667 12.4 0 12.75 0C13.1 0 13.3957 0.120667 13.637 0.362C13.879 0.604 14 0.9 14 1.25V10.5C14 10.6333 14.05 10.75 14.15 10.85C14.25 10.95 14.3667 11 14.5 11C14.6333 11 14.75 10.95 14.85 10.85C14.95 10.75 15 10.6333 15 10.5V3.25C15 2.9 15.121 2.604 15.363 2.362C15.6043 2.12067 15.9 2 16.25 2C16.6 2 16.896 2.12067 17.138 2.362C17.3793 2.604 17.5 2.9 17.5 3.25V14.025C16.5667 14.1583 15.7917 14.5377 15.175 15.163C14.5583 15.7877 14.1833 16.5417 14.05 17.425C14.0167 17.575 14.0543 17.7083 14.163 17.825C14.271 17.9417 14.4083 18 14.575 18C14.6917 18 14.7917 17.9623 14.875 17.887C14.9583 17.8123 15.0083 17.7083 15.025 17.575C15.125 16.8417 15.4583 16.2293 16.025 15.738C16.5917 15.246 17.25 15 18 15C18.1333 15 18.25 14.95 18.35 14.85C18.45 14.75 18.5 14.6333 18.5 14.5V9.25C18.5 8.9 18.621 8.60433 18.863 8.363C19.1043 8.121 19.4 8 19.75 8C20.1 8 20.396 8.121 20.638 8.363C20.8793 8.60433 21 8.9 21 9.25V15.75C21 16.8167 20.8 17.8457 20.4 18.837C20 19.829 19.4373 20.7083 18.712 21.475C17.9873 22.2417 17.121 22.854 16.113 23.312C15.1043 23.7707 13.9917 24 12.775 24Z"/></svg>