<svg width="24" height="24" viewBox="0 0 24 24" xmlns="http://www.w3.org/2000/svg" fill="currentColor"><path d="M11.9999 2.40002C6.6983 2.40002 2.3999 6.69842 2.3999 12C2.3999 16.4984 5.4975 20.2624 9.6735 21.304C9.6287 21.1744 9.5999 21.024 9.5999 20.8376V19.1968C9.2103 19.1968 8.5575 19.1968 8.3935 19.1968C7.7367 19.1968 7.1527 18.9144 6.8695 18.3896C6.5551 17.8064 6.5007 16.9144 5.7215 16.3688C5.4903 16.1872 5.6663 15.98 5.9327 16.008C6.4247 16.1472 6.8327 16.4848 7.2167 16.9856C7.5991 17.4872 7.7791 17.6008 8.4935 17.6008C8.8399 17.6008 9.3583 17.5808 9.8463 17.504C10.1087 16.8376 10.5623 16.224 11.1167 15.9344C7.9199 15.6056 6.3943 14.0152 6.3943 11.856C6.3943 10.9264 6.7903 10.0272 7.4631 9.26962C7.2423 8.51762 6.9647 6.98402 7.5479 6.40002C8.9863 6.40002 9.8559 7.33282 10.0647 7.58482C10.7815 7.33922 11.5687 7.20002 12.3959 7.20002C13.2247 7.20002 14.0151 7.33922 14.7335 7.58642C14.9399 7.33602 15.8103 6.40002 17.2519 6.40002C17.8375 6.98482 17.5567 8.52482 17.3335 9.27522C18.0023 10.0312 18.3959 10.928 18.3959 11.856C18.3959 14.0136 16.8727 15.6032 13.6807 15.9336C14.5591 16.392 15.1999 17.68 15.1999 18.6504V20.8376C15.1999 20.9208 15.1815 20.9808 15.1719 21.052C18.9127 19.7408 21.5999 16.1888 21.5999 12C21.5999 6.69842 17.3015 2.40002 11.9999 2.40002Z"/></svg>