<svg width="24" height="24" viewBox="0 0 24 24" fill="none" xmlns="http://www.w3.org/2000/svg" stroke="currentColor"><path d="M18.6318 2.36829C23.1228 6.85931 23.1228 14.1407 18.6318 18.6317C14.3309 22.9326 7.47106 23.1147 2.95347 19.1782C2.75646 19.0065 2.65795 18.9206 2.61348 18.8033C2.57607 18.7045 2.57188 18.5825 2.60244 18.4814C2.63875 18.3613 2.73717 18.2629 2.934 18.0661L5.14925 15.8508M18 10.5C18 14.6421 14.6422 18 10.5 18C6.35791 18 3.00004 14.6421 3.00004 10.5C3.00004 6.35788 6.35791 3.00001 10.5 3.00001C14.6422 3.00001 18 6.35788 18 10.5Z" stroke-width="2" stroke-linecap="round" stroke-linejoin="round"/></svg>