<svg width="24" height="24" viewBox="0 0 24 24" xmlns="http://www.w3.org/2000/svg" fill="currentColor"><g clip-path="url(#clip0_1113_6840)"><path d="M7.05005 21.05C6.86671 21.2 6.67105 21.2083 6.46305 21.075C6.25438 20.9417 6.19171 20.7583 6.27505 20.525L8.15005 14.4L3.27505 10.9C3.07505 10.7667 3.01271 10.5833 3.08805 10.35C3.16271 10.1167 3.31671 10 3.55005 10H9.60005L11.525 3.6C11.5584 3.46667 11.621 3.375 11.713 3.325C11.8044 3.275 11.9 3.25 12 3.25C12.1 3.25 12.196 3.275 12.288 3.325C12.3794 3.375 12.4417 3.46667 12.475 3.6L14.4 10H20.45C20.6834 10 20.8377 10.1167 20.913 10.35C20.9877 10.5833 20.925 10.7667 20.725 10.9L15.85 14.4L17.725 20.525C17.8084 20.7583 17.746 20.9417 17.538 21.075C17.3294 21.2083 17.1334 21.2 16.95 21.05L12 17.3L7.05005 21.05Z"/></g><defs><clipPath id="clip0_1113_6840"><rect width="24" height="24"/></clipPath></defs></svg>