<svg width="24" height="24" viewBox="0 0 24 24" fill="none" xmlns="http://www.w3.org/2000/svg" stroke="currentColor"><path d="M5 9.99994V16.0111C5 16.37 5 16.5495 5.05465 16.708C5.10299 16.8481 5.18187 16.9757 5.28558 17.0816C5.40287 17.2014 5.5634 17.2816 5.88446 17.4422L11.2845 20.1422C11.5468 20.2733 11.678 20.3389 11.8156 20.3648C11.9375 20.3876 12.0625 20.3876 12.1844 20.3648C12.322 20.3389 12.4532 20.2733 12.7155 20.1422L18.1155 17.4422C18.4366 17.2816 18.5971 17.2014 18.7144 17.0816C18.8181 16.9757 18.897 16.8481 18.9453 16.708C19 16.5495 19 16.37 19 16.0111V9.99994M2 8.49994L11.6422 3.67883C11.7734 3.61324 11.839 3.58044 11.9078 3.56753C11.9687 3.5561 12.0313 3.5561 12.0922 3.56753C12.161 3.58044 12.2266 3.61324 12.3578 3.67883L22 8.49994L12.3578 13.3211C12.2266 13.3866 12.161 13.4194 12.0922 13.4324C12.0313 13.4438 11.9687 13.4438 11.9078 13.4324C11.839 13.4194 11.7734 13.3866 11.6422 13.3211L2 8.49994Z" stroke-width="2" stroke-linecap="round" stroke-linejoin="round"/></svg>