<svg width="24" height="24" viewBox="0 0 24 24" xmlns="http://www.w3.org/2000/svg" fill="currentColor"><path d="M12.5 11.95C12.9833 11.4167 13.3543 10.8083 13.613 10.125C13.871 9.44167 14 8.73333 14 8C14 7.26667 13.871 6.55833 13.613 5.875C13.3543 5.19167 12.9833 4.58333 12.5 4.05C13.5 4.18333 14.3333 4.625 15 5.375C15.6667 6.125 16 7 16 8C16 9 15.6667 9.875 15 10.625C14.3333 11.375 13.5 11.8167 12.5 11.95ZM17.525 20C17.675 19.8833 17.7917 19.7373 17.875 19.562C17.9583 19.3873 18 19.1917 18 18.975V17C18 16.4 17.8667 15.8293 17.6 15.288C17.3333 14.746 16.9833 14.2667 16.55 13.85C17.4 14.15 18.1877 14.5373 18.913 15.012C19.6377 15.4873 20 16.15 20 17V19C20 19.2833 19.904 19.5207 19.712 19.712C19.5207 19.904 19.2833 20 19 20H17.525ZM21 13C20.7167 13 20.4793 12.904 20.288 12.712C20.096 12.5207 20 12.2833 20 12V11H19C18.7167 11 18.4793 10.904 18.288 10.712C18.096 10.5207 18 10.2833 18 10C18 9.71667 18.096 9.479 18.288 9.287C18.4793 9.09567 18.7167 9 19 9H20V8C20 7.71667 20.096 7.479 20.288 7.287C20.4793 7.09567 20.7167 7 21 7C21.2833 7 21.5207 7.09567 21.712 7.287C21.904 7.479 22 7.71667 22 8V9H23C23.2833 9 23.5207 9.09567 23.712 9.287C23.904 9.479 24 9.71667 24 10C24 10.2833 23.904 10.5207 23.712 10.712C23.5207 10.904 23.2833 11 23 11H22V12C22 12.2833 21.904 12.5207 21.712 12.712C21.5207 12.904 21.2833 13 21 13ZM8 12C6.9 12 5.95833 11.6083 5.175 10.825C4.39167 10.0417 4 9.1 4 8C4 6.9 4.39167 5.95833 5.175 5.175C5.95833 4.39167 6.9 4 8 4C9.1 4 10.0417 4.39167 10.825 5.175C11.6083 5.95833 12 6.9 12 8C12 9.1 11.6083 10.0417 10.825 10.825C10.0417 11.6083 9.1 12 8 12ZM1 20C0.716667 20 0.479333 19.904 0.288 19.712C0.096 19.5207 0 19.2833 0 19V17.2C0 16.6333 0.146 16.1123 0.438 15.637C0.729333 15.1623 1.11667 14.8 1.6 14.55C2.63333 14.0333 3.68333 13.6457 4.75 13.387C5.81667 13.129 6.9 13 8 13C9.1 13 10.1833 13.129 11.25 13.387C12.3167 13.6457 13.3667 14.0333 14.4 14.55C14.8833 14.8 15.2707 15.1623 15.562 15.637C15.854 16.1123 16 16.6333 16 17.2V19C16 19.2833 15.9043 19.5207 15.713 19.712C15.521 19.904 15.2833 20 15 20H1Z"/></svg>