<svg width="24" height="24" viewBox="0 0 24 24" xmlns="http://www.w3.org/2000/svg" fill="currentColor"><path d="M18.9856 16.6463L15.7856 13.4463C15.9189 13.163 16.0189 12.8755 16.0856 12.5838C16.1523 12.2921 16.1856 11.9796 16.1856 11.6463C16.1856 10.3963 15.7481 9.33381 14.8731 8.45881C13.9981 7.58381 12.9356 7.14631 11.6856 7.14631C11.3523 7.14631 11.0398 7.17964 10.7481 7.24631C10.4564 7.31297 10.1689 7.41297 9.8856 7.54631L7.3356 4.99631C8.01893 4.71297 8.71893 4.50047 9.4356 4.35881C10.1523 4.21714 10.9023 4.14631 11.6856 4.14631C14.0689 4.14631 16.2106 4.77547 18.1106 6.03381C20.0106 7.29214 21.4356 8.92964 22.3856 10.9463C22.4356 11.0296 22.4689 11.1338 22.4856 11.2588C22.5023 11.3838 22.5106 11.513 22.5106 11.6463C22.5106 11.7796 22.4981 11.9088 22.4731 12.0338C22.4481 12.1588 22.4189 12.263 22.3856 12.3463C22.0023 13.1963 21.5231 13.988 20.9481 14.7213C20.3731 15.4546 19.7189 16.0963 18.9856 16.6463ZM18.7856 22.0463L15.2856 18.5963C14.7023 18.7796 14.1148 18.9171 13.5231 19.0088C12.9314 19.1005 12.3189 19.1463 11.6856 19.1463C9.30226 19.1463 7.1606 18.5171 5.2606 17.2588C3.3606 16.0005 1.9356 14.363 0.985596 12.3463C0.935596 12.263 0.902262 12.1588 0.885596 12.0338C0.868929 11.9088 0.860596 11.7796 0.860596 11.6463C0.860596 11.513 0.868929 11.388 0.885596 11.2713C0.902262 11.1546 0.935596 11.0546 0.985596 10.9713C1.3356 10.2213 1.75226 9.52964 2.2356 8.89631C2.71893 8.26297 3.25226 7.67964 3.8356 7.14631L1.7606 5.04631C1.57726 4.86297 1.4856 4.63381 1.4856 4.35881C1.4856 4.08381 1.5856 3.84631 1.7856 3.64631C1.96893 3.46297 2.20226 3.37131 2.4856 3.37131C2.76893 3.37131 3.00226 3.46297 3.1856 3.64631L20.1856 20.6463C20.3689 20.8296 20.4648 21.0588 20.4731 21.3338C20.4814 21.6088 20.3856 21.8463 20.1856 22.0463C20.0023 22.2296 19.7689 22.3213 19.4856 22.3213C19.2023 22.3213 18.9689 22.2296 18.7856 22.0463ZM11.6856 16.1463C11.8689 16.1463 12.0398 16.138 12.1981 16.1213C12.3564 16.1046 12.5273 16.0713 12.7106 16.0213L7.3106 10.6213C7.2606 10.8046 7.22726 10.9755 7.2106 11.1338C7.19393 11.2921 7.1856 11.463 7.1856 11.6463C7.1856 12.8963 7.6231 13.9588 8.4981 14.8338C9.3731 15.7088 10.4356 16.1463 11.6856 16.1463ZM14.3356 11.9963L11.3356 8.99631C12.2856 8.84631 13.0606 9.11297 13.6606 9.79631C14.2606 10.4796 14.4856 11.213 14.3356 11.9963Z"/></svg>