<svg width="24" height="24" viewBox="0 0 24 24" xmlns="http://www.w3.org/2000/svg" fill="currentColor"><g clip-path="url(#clip0_1113_6828)"><path d="M12 11C13.1 11 14.0417 10.6083 14.825 9.825C15.6083 9.04167 16 8.1 16 7V4H8V7C8 8.1 8.39167 9.04167 9.175 9.825C9.95833 10.6083 10.9 11 12 11ZM19 22H5C4.71667 22 4.479 21.904 4.287 21.712C4.09567 21.5207 4 21.2833 4 21C4 20.7167 4.09567 20.4793 4.287 20.288C4.479 20.096 4.71667 20 5 20H6V17C6 15.9833 6.23767 15.029 6.713 14.137C7.18767 13.2457 7.85 12.5333 8.7 12C7.85 11.4667 7.18767 10.754 6.713 9.862C6.23767 8.97067 6 8.01667 6 7V4H5C4.71667 4 4.479 3.904 4.287 3.712C4.09567 3.52067 4 3.28333 4 3C4 2.71667 4.09567 2.479 4.287 2.287C4.479 2.09567 4.71667 2 5 2H19C19.2833 2 19.5207 2.09567 19.712 2.287C19.904 2.479 20 2.71667 20 3C20 3.28333 19.904 3.52067 19.712 3.712C19.5207 3.904 19.2833 4 19 4H18V7C18 8.01667 17.7627 8.97067 17.288 9.862C16.8127 10.754 16.15 11.4667 15.3 12C16.15 12.5333 16.8127 13.2457 17.288 14.137C17.7627 15.029 18 15.9833 18 17V20H19C19.2833 20 19.5207 20.096 19.712 20.288C19.904 20.4793 20 20.7167 20 21C20 21.2833 19.904 21.5207 19.712 21.712C19.5207 21.904 19.2833 22 19 22Z"/></g><defs><clipPath id="clip0_1113_6828"><rect width="24" height="24"/></clipPath></defs></svg>