<svg width="24" height="24" viewBox="0 0 24 24" xmlns="http://www.w3.org/2000/svg" fill="currentColor"><g clip-path="url(#clip0_1113_6813)"><path d="M3 20C2.45 20 1.97933 19.8043 1.588 19.413C1.196 19.021 1 18.55 1 18C1 17.45 1.196 16.979 1.588 16.587C1.97933 16.1957 2.45 16 3 16H3.263C3.33767 16 3.41667 16.0167 3.5 16.05L8.05 11.5C8.01667 11.4167 8 11.3373 8 11.262V11C8 10.45 8.196 9.979 8.588 9.587C8.97933 9.19567 9.45 9 10 9C10.55 9 11.021 9.19567 11.413 9.587C11.8043 9.979 12 10.45 12 11C12 11.0333 11.9833 11.2 11.95 11.5L14.5 14.05C14.5833 14.0167 14.6627 14 14.738 14H15.262C15.3373 14 15.4167 14.0167 15.5 14.05L19.05 10.5C19.0167 10.4167 19 10.3373 19 10.262V10C19 9.45 19.1957 8.979 19.587 8.587C19.979 8.19567 20.45 8 21 8C21.55 8 22.021 8.19567 22.413 8.587C22.8043 8.979 23 9.45 23 10C23 10.55 22.8043 11.0207 22.413 11.412C22.021 11.804 21.55 12 21 12H20.738C20.6627 12 20.5833 11.9833 20.5 11.95L16.95 15.5C16.9833 15.5833 17 15.6627 17 15.738V16C17 16.55 16.8043 17.021 16.413 17.413C16.021 17.8043 15.55 18 15 18C14.45 18 13.9793 17.8043 13.588 17.413C13.196 17.021 13 16.55 13 16V15.738C13 15.6627 13.0167 15.5833 13.05 15.5L10.5 12.95C10.4167 12.9833 10.3373 13 10.262 13H10C9.96667 13 9.8 12.9833 9.5 12.95L4.95 17.5C4.98333 17.5833 5 17.6627 5 17.738V18C5 18.55 4.804 19.021 4.412 19.413C4.02067 19.8043 3.55 20 3 20ZM4 9.975L3.375 8.625L2.025 8L3.375 7.375L4 6.025L4.625 7.375L5.975 8L4.625 8.625L4 9.975ZM15 9L14.05 6.95L12 6L14.05 5.05L15 3L15.95 5.05L18 6L15.95 6.95L15 9Z"/></g><defs><clipPath id="clip0_1113_6813"><rect width="24" height="24"/></clipPath></defs></svg>