<svg width="24" height="24" viewBox="0 0 24 24" xmlns="http://www.w3.org/2000/svg" fill="currentColor"><g clip-path="url(#clip0_1113_6810)"><path d="M12 16C11.7167 16 11.4793 15.904 11.288 15.712C11.096 15.5207 11 15.2833 11 15V4.82499L10.1 5.72499C9.91667 5.90832 9.68767 5.99999 9.413 5.99999C9.13767 5.99999 8.9 5.89999 8.7 5.69999C8.51667 5.49999 8.425 5.26232 8.425 4.98699C8.425 4.71232 8.51667 4.48332 8.7 4.29999L11.3 1.69999C11.3833 1.61665 11.4877 1.54999 11.613 1.49999C11.7377 1.44999 11.8667 1.42499 12 1.42499C12.1333 1.42499 12.2627 1.44999 12.388 1.49999C12.5127 1.54999 12.6167 1.61665 12.7 1.69999L15.3 4.29999C15.5 4.49999 15.6 4.74165 15.6 5.02499C15.6 5.30832 15.5 5.54165 15.3 5.72499C15.1 5.90832 14.8627 5.99999 14.588 5.99999C14.3127 5.99999 14.0833 5.90832 13.9 5.72499L13 4.82499V15C13 15.2833 12.9043 15.5207 12.713 15.712C12.521 15.904 12.2833 16 12 16ZM6 23C5.45 23 4.97933 22.8043 4.588 22.413C4.196 22.021 4 21.55 4 21V9.99999C4 9.44999 4.196 8.97899 4.588 8.58699C4.97933 8.19565 5.45 7.99999 6 7.99999H8C8.28333 7.99999 8.521 8.09565 8.713 8.28699C8.90433 8.47899 9 8.71665 9 8.99999C9 9.28332 8.90433 9.52065 8.713 9.71199C8.521 9.90399 8.28333 9.99999 8 9.99999H6V21H18V9.99999H16C15.7167 9.99999 15.4793 9.90399 15.288 9.71199C15.096 9.52065 15 9.28332 15 8.99999C15 8.71665 15.096 8.47899 15.288 8.28699C15.4793 8.09565 15.7167 7.99999 16 7.99999H18C18.55 7.99999 19.021 8.19565 19.413 8.58699C19.8043 8.97899 20 9.44999 20 9.99999V21C20 21.55 19.8043 22.021 19.413 22.413C19.021 22.8043 18.55 23 18 23H6Z"/></g><defs><clipPath id="clip0_1113_6810"><rect width="24" height="24"/></clipPath></defs></svg>