<svg width="24" height="24" viewBox="0 0 24 24" xmlns="http://www.w3.org/2000/svg" fill="currentColor"><g clip-path="url(#clip0_1113_6804)"><path d="M12 20.525C11.7833 20.525 11.571 20.4877 11.363 20.413C11.1543 20.3377 10.9583 20.2334 10.775 20.1L4.025 14.85C3.75833 14.65 3.62933 14.3874 3.638 14.062C3.646 13.7374 3.78333 13.475 4.05 13.275C4.23333 13.1417 4.43333 13.075 4.65 13.075C4.86667 13.075 5.06667 13.1417 5.25 13.275L12 18.5L18.75 13.275C18.9333 13.1417 19.1333 13.075 19.35 13.075C19.5667 13.075 19.7667 13.1417 19.95 13.275C20.2167 13.475 20.3543 13.7374 20.363 14.062C20.371 14.3874 20.2417 14.65 19.975 14.85L13.225 20.1C13.0417 20.2334 12.846 20.3377 12.638 20.413C12.4293 20.4877 12.2167 20.525 12 20.525ZM12 15.475C11.7833 15.475 11.571 15.4377 11.363 15.363C11.1543 15.2877 10.9583 15.1834 10.775 15.05L4.025 9.80002C3.89167 9.70002 3.79167 9.57936 3.725 9.43802C3.65833 9.29602 3.625 9.15002 3.625 9.00002C3.625 8.85002 3.65833 8.70402 3.725 8.56202C3.79167 8.42069 3.89167 8.30002 4.025 8.20002L10.775 2.95002C10.9583 2.81669 11.1543 2.71236 11.363 2.63702C11.571 2.56236 11.7833 2.52502 12 2.52502C12.2167 2.52502 12.4293 2.56236 12.638 2.63702C12.846 2.71236 13.0417 2.81669 13.225 2.95002L19.975 8.20002C20.1083 8.30002 20.2083 8.42069 20.275 8.56202C20.3417 8.70402 20.375 8.85002 20.375 9.00002C20.375 9.15002 20.3417 9.29602 20.275 9.43802C20.2083 9.57936 20.1083 9.70002 19.975 9.80002L13.225 15.05C13.0417 15.1834 12.846 15.2877 12.638 15.363C12.4293 15.4377 12.2167 15.475 12 15.475Z"/></g><defs><clipPath id="clip0_1113_6804"><rect width="24" height="24"/></clipPath></defs></svg>