<svg width="24" height="24" viewBox="0 0 24 24" fill="none" xmlns="http://www.w3.org/2000/svg" stroke="currentColor"><path d="M7 9.49994L2 11.9999L11.6422 16.8211C11.7734 16.8866 11.839 16.9194 11.9078 16.9324C11.9687 16.9438 12.0313 16.9438 12.0922 16.9324C12.161 16.9194 12.2266 16.8866 12.3578 16.8211L22 11.9999L17 9.49994M7 14.4999L2 16.9999L11.6422 21.8211C11.7734 21.8866 11.839 21.9194 11.9078 21.9324C11.9687 21.9438 12.0313 21.9438 12.0922 21.9324C12.161 21.9194 12.2266 21.8866 12.3578 21.8211L22 16.9999L17 14.4999M2 6.99994L11.6422 2.17883C11.7734 2.11324 11.839 2.08044 11.9078 2.06753C11.9687 2.0561 12.0313 2.0561 12.0922 2.06753C12.161 2.08044 12.2266 2.11324 12.3578 2.17883L22 6.99994L12.3578 11.8211C12.2266 11.8866 12.161 11.9194 12.0922 11.9324C12.0313 11.9438 11.9687 11.9438 11.9078 11.9324C11.839 11.9194 11.7734 11.8866 11.6422 11.8211L2 6.99994Z" stroke-width="2" stroke-linecap="round" stroke-linejoin="round"/></svg>