<svg width="24" height="24" viewBox="0 0 24 24" xmlns="http://www.w3.org/2000/svg" fill="currentColor"><g clip-path="url(#clip0_1113_6783)"><path d="M4 20C3.45 20 2.97933 19.8043 2.588 19.413C2.196 19.021 2 18.55 2 18V6C2 5.45 2.196 4.97933 2.588 4.588C2.97933 4.196 3.45 4 4 4H20C20.55 4 21.021 4.196 21.413 4.588C21.8043 4.97933 22 5.45 22 6V18C22 18.55 21.8043 19.021 21.413 19.413C21.021 19.8043 20.55 20 20 20H4ZM12 12.825C12.0833 12.825 12.1707 12.8123 12.262 12.787C12.354 12.7623 12.4417 12.725 12.525 12.675L19.6 8.25C19.7333 8.16667 19.8333 8.06267 19.9 7.938C19.9667 7.81267 20 7.675 20 7.525C20 7.19167 19.8583 6.94167 19.575 6.775C19.2917 6.60833 19 6.61667 18.7 6.8L12 11L5.3 6.8C5 6.61667 4.70833 6.61233 4.425 6.787C4.14167 6.96233 4 7.20833 4 7.525C4 7.69167 4.03333 7.83733 4.1 7.962C4.16667 8.08733 4.26667 8.18333 4.4 8.25L11.475 12.675C11.5583 12.725 11.646 12.7623 11.738 12.787C11.8293 12.8123 11.9167 12.825 12 12.825Z"/></g><defs><clipPath id="clip0_1113_6783"><rect width="24" height="24"/></clipPath></defs></svg>