<svg width="24" height="24" viewBox="0 0 24 24" fill="none" xmlns="http://www.w3.org/2000/svg" stroke="currentColor"><path d="M6.915 4.03005C4.947 4.03005 3.232 5.31005 2.044 7.14305C0.704 9.20805 0 11.8831 0 14.4491C0 15.1551 0.07 15.8181 0.21 16.4221C0.278736 16.7144 0.367274 17.0017 0.475 17.2821C0.578164 17.5452 0.702227 17.7997 0.846 18.0431C1.542 19.2021 2.664 19.9701 4.439 19.9701C5.936 19.9701 7.072 19.2991 8.404 17.5261C9.164 16.5141 9.548 15.9001 11.067 13.2061L11.823 11.8671L12.009 11.5421C12.07 11.6421 12.13 11.7381 12.192 11.8421L14.344 15.4371C15.068 16.6471 16.009 17.9931 16.814 18.7511C17.86 19.7381 18.806 19.9711 19.874 19.9711C20.949 19.9711 21.75 19.6161 22.329 19.1281C22.6523 18.8521 22.9262 18.523 23.139 18.1551C23.681 17.2161 24 16.0281 24 14.4101C24 11.6901 23.319 9.05305 21.916 6.96005C20.634 5.04805 18.959 4.03005 17.2 4.03005C16.153 4.03005 15.112 4.49705 14.147 5.33805C13.495 5.90805 12.89 6.62805 12.327 7.38805C11.637 6.51305 10.992 5.84105 10.369 5.33205C9.187 4.36605 8.054 4.02905 6.915 4.02905V4.03005ZM17.075 6.08305C18.222 6.08305 19.263 6.84105 20.067 8.08205C21.199 9.83005 21.714 12.2771 21.714 14.4821C21.714 16.0301 21.346 17.3821 19.875 17.3821C19.295 17.3821 18.848 17.1521 18.211 16.3781C17.715 15.7771 16.868 14.5001 15.379 12.0201L14.762 10.9921C14.361 10.3212 13.9425 9.66102 13.507 9.01205C13.577 8.90305 13.648 8.78805 13.718 8.68505C14.838 7.01805 15.835 6.08305 17.075 6.08305ZM6.874 6.63605C8.139 6.63605 8.932 7.42705 9.549 8.08205C9.856 8.40905 10.286 8.95305 10.783 9.66105L9.763 11.2271C9.006 12.3901 7.881 14.2441 6.926 15.5651C5.735 17.2141 5.116 17.3821 4.44 17.3821C3.916 17.3821 3.402 17.1451 3.057 16.5881C2.794 16.1621 2.593 15.4581 2.593 14.5421C2.593 12.3211 3.223 10.0071 4.253 8.45405C4.707 7.76705 5.217 7.22805 5.786 6.92105C6.11892 6.73605 6.49313 6.63802 6.874 6.63605Z" fill="#8F8F8F"/></svg>