<svg width="24" height="24" viewBox="0 0 24 24" fill="none" xmlns="http://www.w3.org/2000/svg" stroke="currentColor"><path d="M6.20472 10.5579C5.72578 8.76965 6.08709 6.80318 7.28865 5.28378M17.7952 10.5579C18.2742 8.7696 17.9129 6.80314 16.7113 5.28373M2.34183 11.5997C1.50387 8.47493 2.20543 5.0233 4.44651 2.44592M21.6547 11.5997C22.4926 8.47497 21.7911 5.02334 19.55 2.44597M12 15V9.00004M5.49998 18.5H9.49998M5.19998 22H18.8C19.9201 22 20.4801 22 20.908 21.7821C21.2843 21.5903 21.5902 21.2843 21.782 20.908C22 20.4802 22 19.9201 22 18.8V18.2C22 17.0799 22 16.5199 21.782 16.0921C21.5902 15.7157 21.2843 15.4098 20.908 15.218C20.4801 15 19.9201 15 18.8 15H5.19998C4.07987 15 3.51982 15 3.092 15.218C2.71567 15.4098 2.40971 15.7157 2.21796 16.0921C1.99998 16.5199 1.99998 17.0799 1.99998 18.2V18.8C1.99998 19.9201 1.99998 20.4802 2.21796 20.908C2.40971 21.2843 2.71567 21.5903 3.092 21.7821C3.51982 22 4.07987 22 5.19998 22Z" stroke-width="2" stroke-linecap="round" stroke-linejoin="round"/></svg>