<svg width="24" height="24" viewBox="0 0 24 24" xmlns="http://www.w3.org/2000/svg" fill="currentColor"><path d="M6.275 20.275C6.09167 20.0917 6 19.8667 6 19.6C6 19.3333 6.09167 19.1 6.275 18.9L7.175 17.95C5.425 17.75 3.95833 16.9917 2.775 15.675C1.59167 14.3583 1 12.8 1 11C1 9.05 1.67917 7.39583 3.0375 6.0375C4.39583 4.67917 6.05 4 8 4H10C10.2833 4 10.5208 4.09583 10.7125 4.2875C10.9042 4.47917 11 4.71667 11 5C11 5.28333 10.9042 5.52083 10.7125 5.7125C10.5208 5.90417 10.2833 6 10 6H8C6.61667 6 5.4375 6.4875 4.4625 7.4625C3.4875 8.4375 3 9.61667 3 11C3 12.2333 3.3875 13.3 4.1625 14.2C4.9375 15.1 5.90833 15.6667 7.075 15.9L6.3 15.125C6.11667 14.9417 6.025 14.7125 6.025 14.4375C6.025 14.1625 6.11667 13.925 6.3 13.725C6.5 13.525 6.7375 13.425 7.0125 13.425C7.2875 13.425 7.525 13.525 7.725 13.725L10.3 16.3C10.4 16.4 10.4708 16.5083 10.5125 16.625C10.5542 16.7417 10.575 16.8667 10.575 17C10.575 17.1333 10.5542 17.2583 10.5125 17.375C10.4708 17.4917 10.4 17.6 10.3 17.7L7.7 20.3C7.51667 20.4833 7.28333 20.575 7 20.575C6.71667 20.575 6.475 20.475 6.275 20.275ZM15 11C14.45 11 13.9792 10.8042 13.5875 10.4125C13.1958 10.0208 13 9.55 13 9V6C13 5.45 13.1958 4.97917 13.5875 4.5875C13.9792 4.19583 14.45 4 15 4H20C20.55 4 21.0208 4.19583 21.4125 4.5875C21.8042 4.97917 22 5.45 22 6V9C22 9.55 21.8042 10.0208 21.4125 10.4125C21.0208 10.8042 20.55 11 20 11H15ZM15 9H20V6H15V9ZM15 20C14.45 20 13.9792 19.8042 13.5875 19.4125C13.1958 19.0208 13 18.55 13 18V15C13 14.45 13.1958 13.9792 13.5875 13.5875C13.9792 13.1958 14.45 13 15 13H20C20.55 13 21.0208 13.1958 21.4125 13.5875C21.8042 13.9792 22 14.45 22 15V18C22 18.55 21.8042 19.0208 21.4125 19.4125C21.0208 19.8042 20.55 20 20 20H15Z"/></svg>