<svg width="24" height="24" viewBox="0 0 24 24" fill="none" xmlns="http://www.w3.org/2000/svg" stroke="currentColor"><path d="M20.5 7.27771L12 11.9999M12 11.9999L3.49997 7.27771M12 11.9999L12 21.5M14 20.8889L12.777 21.5683C12.4934 21.7258 12.3516 21.8046 12.2015 21.8355C12.0685 21.8628 11.9315 21.8628 11.7986 21.8355C11.6484 21.8046 11.5066 21.7258 11.223 21.5683L3.82297 17.4572C3.52346 17.2908 3.37368 17.2076 3.26463 17.0892C3.16816 16.9845 3.09515 16.8605 3.05048 16.7253C3 16.5725 3 16.4012 3 16.0585V7.94141C3 7.59877 3 7.42744 3.05048 7.27465C3.09515 7.13947 3.16816 7.01539 3.26463 6.9107C3.37368 6.79236 3.52345 6.70916 3.82297 6.54276L11.223 2.43165C11.5066 2.27409 11.6484 2.19531 11.7986 2.16442C11.9315 2.13709 12.0685 2.13709 12.2015 2.16442C12.3516 2.19531 12.4934 2.27409 12.777 2.43164L20.177 6.54276C20.4766 6.70916 20.6263 6.79236 20.7354 6.9107C20.8318 7.01539 20.9049 7.13947 20.9495 7.27464C21 7.42744 21 7.59876 21 7.94141V13M7.5 4.49996L16.5 9.49996M16 18H22" stroke-width="2" stroke-linecap="round" stroke-linejoin="round"/></svg>