<svg width="24" height="24" viewBox="0 0 24 24" xmlns="http://www.w3.org/2000/svg" fill="currentColor"><g clip-path="url(#clip0_1113_6756)"><path d="M3 19C2.71667 19 2.47933 18.904 2.288 18.712C2.096 18.5207 2 18.2834 2 18C2 17.7167 2.096 17.4794 2.288 17.288C2.47933 17.096 2.71667 17 3 17H21C21.2833 17 21.5207 17.096 21.712 17.288C21.904 17.4794 22 17.7167 22 18C22 18.2834 21.904 18.5207 21.712 18.712C21.5207 18.904 21.2833 19 21 19H3ZM2.5 12.575C2.31667 12.475 2.2 12.325 2.15 12.125C2.1 11.925 2.125 11.7334 2.225 11.55L2.7 10.7H1.75C1.53333 10.7 1.354 10.629 1.212 10.487C1.07067 10.3457 1 10.1667 1 9.95002C1 9.73336 1.07067 9.55402 1.212 9.41202C1.354 9.27069 1.53333 9.20002 1.75 9.20002H2.7L2.225 8.40002C2.125 8.21669 2.1 8.02502 2.15 7.82502C2.2 7.62502 2.31667 7.47502 2.5 7.37502C2.68333 7.27502 2.875 7.25002 3.075 7.30002C3.275 7.35002 3.425 7.46669 3.525 7.65002L4 8.45002L4.475 7.65002C4.575 7.46669 4.725 7.35002 4.925 7.30002C5.125 7.25002 5.31667 7.27502 5.5 7.37502C5.68333 7.47502 5.8 7.62502 5.85 7.82502C5.9 8.02502 5.875 8.21669 5.775 8.40002L5.3 9.20002H6.25C6.46667 9.20002 6.64567 9.27069 6.787 9.41202C6.929 9.55402 7 9.73336 7 9.95002C7 10.1667 6.929 10.3457 6.787 10.487C6.64567 10.629 6.46667 10.7 6.25 10.7H5.3L5.775 11.55C5.875 11.7334 5.9 11.925 5.85 12.125C5.8 12.325 5.68333 12.475 5.5 12.575C5.31667 12.675 5.125 12.7 4.925 12.65C4.725 12.6 4.575 12.4834 4.475 12.3L4 11.45L3.525 12.3C3.425 12.4834 3.275 12.6 3.075 12.65C2.875 12.7 2.68333 12.675 2.5 12.575ZM10.5 12.575C10.3167 12.475 10.2 12.325 10.15 12.125C10.1 11.925 10.125 11.7334 10.225 11.55L10.7 10.7H9.75C9.53333 10.7 9.35433 10.629 9.213 10.487C9.071 10.3457 9 10.1667 9 9.95002C9 9.73336 9.071 9.55402 9.213 9.41202C9.35433 9.27069 9.53333 9.20002 9.75 9.20002H10.7L10.225 8.40002C10.125 8.21669 10.1 8.02502 10.15 7.82502C10.2 7.62502 10.3167 7.47502 10.5 7.37502C10.6833 7.27502 10.875 7.25002 11.075 7.30002C11.275 7.35002 11.425 7.46669 11.525 7.65002L12 8.45002L12.475 7.65002C12.575 7.46669 12.725 7.35002 12.925 7.30002C13.125 7.25002 13.3167 7.27502 13.5 7.37502C13.6833 7.47502 13.8 7.62502 13.85 7.82502C13.9 8.02502 13.875 8.21669 13.775 8.40002L13.3 9.20002H14.25C14.4667 9.20002 14.646 9.27069 14.788 9.41202C14.9293 9.55402 15 9.73336 15 9.95002C15 10.1667 14.9293 10.3457 14.788 10.487C14.646 10.629 14.4667 10.7 14.25 10.7H13.3L13.775 11.55C13.875 11.7334 13.9 11.925 13.85 12.125C13.8 12.325 13.6833 12.475 13.5 12.575C13.3167 12.675 13.125 12.7 12.925 12.65C12.725 12.6 12.575 12.4834 12.475 12.3L12 11.45L11.525 12.3C11.425 12.4834 11.275 12.6 11.075 12.65C10.875 12.7 10.6833 12.675 10.5 12.575ZM18.5 12.575C18.3167 12.475 18.2 12.325 18.15 12.125C18.1 11.925 18.125 11.7334 18.225 11.55L18.7 10.7H17.75C17.5333 10.7 17.354 10.629 17.212 10.487C17.0707 10.3457 17 10.1667 17 9.95002C17 9.73336 17.0707 9.55402 17.212 9.41202C17.354 9.27069 17.5333 9.20002 17.75 9.20002H18.7L18.225 8.40002C18.125 8.21669 18.1 8.02502 18.15 7.82502C18.2 7.62502 18.3167 7.47502 18.5 7.37502C18.6833 7.27502 18.875 7.25002 19.075 7.30002C19.275 7.35002 19.425 7.46669 19.525 7.65002L20 8.45002L20.475 7.65002C20.575 7.46669 20.725 7.35002 20.925 7.30002C21.125 7.25002 21.3167 7.27502 21.5 7.37502C21.6833 7.47502 21.8 7.62502 21.85 7.82502C21.9 8.02502 21.875 8.21669 21.775 8.40002L21.3 9.20002H22.25C22.4667 9.20002 22.646 9.27069 22.788 9.41202C22.9293 9.55402 23 9.73336 23 9.95002C23 10.1667 22.9293 10.3457 22.788 10.487C22.646 10.629 22.4667 10.7 22.25 10.7H21.3L21.775 11.55C21.875 11.7334 21.9 11.925 21.85 12.125C21.8 12.325 21.6833 12.475 21.5 12.575C21.3167 12.675 21.125 12.7 20.925 12.65C20.725 12.6 20.575 12.4834 20.475 12.3L20 11.45L19.525 12.3C19.425 12.4834 19.275 12.6 19.075 12.65C18.875 12.7 18.6833 12.675 18.5 12.575Z"/></g><defs><clipPath id="clip0_1113_6756"><rect width="24" height="24"/></clipPath></defs></svg>