<svg width="24" height="24" viewBox="0 0 24 24" fill="none" xmlns="http://www.w3.org/2000/svg" stroke="currentColor"><path d="M17.2 14C17.477 14 17.6155 14 17.7278 14.0616C17.8204 14.1123 17.9065 14.2076 17.9478 14.3048C17.9978 14.4226 17.9852 14.548 17.96 14.7987C17.8296 16.0988 17.3822 17.3515 16.6518 18.4446C15.7727 19.7602 14.5233 20.7856 13.0615 21.3911C11.5997 21.9966 9.99113 22.155 8.43928 21.8463C6.88743 21.5376 5.46197 20.7757 4.34315 19.6569C3.22433 18.5381 2.4624 17.1126 2.15372 15.5608C1.84504 14.0089 2.00347 12.4004 2.60897 10.9386C3.21447 9.47677 4.23985 8.22734 5.55544 7.34829C6.64856 6.61789 7.90125 6.17045 9.20131 6.04001C9.45207 6.01485 9.57745 6.00227 9.69528 6.05226C9.79249 6.0935 9.88776 6.1797 9.9385 6.2723C10 6.38455 10 6.52305 10 6.80005V13.2C10 13.4801 10 13.6201 10.0545 13.727C10.1024 13.8211 10.1789 13.8976 10.273 13.9456C10.38 14 10.52 14 10.8 14H17.2Z" stroke-width="2" stroke-linecap="round" stroke-linejoin="round"/><path d="M14 2.80005C14 2.52304 14 2.38454 14.0615 2.27229C14.1122 2.17969 14.2075 2.0935 14.3047 2.05226C14.4225 2.00226 14.5479 2.01484 14.7987 2.03999C16.6271 2.22339 18.346 3.03235 19.6569 4.34319C20.9677 5.65404 21.7767 7.37295 21.9601 9.20135C21.9852 9.45212 21.9978 9.5775 21.9478 9.69533C21.9066 9.79254 21.8204 9.88781 21.7278 9.93854C21.6155 10 21.477 10 21.2 10L14.8 10C14.52 10 14.38 10 14.273 9.94555C14.1789 9.89761 14.1024 9.82112 14.0545 9.72704C14 9.62009 14 9.48007 14 9.20005V2.80005Z" stroke-width="2" stroke-linecap="round" stroke-linejoin="round"/></svg>