<svg width="24" height="24" viewBox="0 0 24 24" fill="none" xmlns="http://www.w3.org/2000/svg" stroke="currentColor"><path d="M17.7448 2.81286C18.7095 1.81638 20.3036 1.80349 21.2843 2.78424C22.2382 3.73811 22.256 5.27908 21.3243 6.25469L18.5457 9.16445C18.3279 9.39252 18.219 9.50656 18.1519 9.64012C18.0925 9.75835 18.0571 9.8872 18.0479 10.0192C18.0374 10.1683 18.0729 10.3219 18.1438 10.6292L19.8717 18.1168C19.9445 18.4322 19.9809 18.5899 19.9691 18.7425C19.9587 18.8775 19.921 19.009 19.8582 19.129C19.7874 19.2646 19.6729 19.379 19.444 19.6079L19.0732 19.9787C18.4671 20.5848 18.164 20.8879 17.8538 20.9428C17.583 20.9907 17.3043 20.9249 17.0835 20.7609C16.8306 20.5731 16.6951 20.1665 16.424 19.3533L14.4142 13.324L11.0689 16.6693C10.8692 16.869 10.7694 16.9689 10.7026 17.0864C10.6434 17.1906 10.6034 17.3045 10.5846 17.4228C10.5633 17.5564 10.5789 17.6967 10.6101 17.9774L10.7938 19.6308C10.8249 19.9115 10.8405 20.0518 10.8192 20.1853C10.8004 20.3036 10.7604 20.4176 10.7012 20.5217C10.6345 20.6393 10.5346 20.7392 10.3349 20.9388L10.1374 21.1363C9.66436 21.6094 9.42783 21.8459 9.16498 21.9144C8.93443 21.9745 8.69001 21.9503 8.47572 21.8462C8.23141 21.7275 8.04586 21.4491 7.67476 20.8925L6.10644 18.54C6.04014 18.4406 6.00699 18.3908 5.96851 18.3457C5.93432 18.3057 5.89702 18.2684 5.85696 18.2342C5.81186 18.1957 5.76213 18.1626 5.66268 18.0963L3.3102 16.5279C2.75355 16.1568 2.47523 15.9713 2.35651 15.727C2.25238 15.5127 2.22818 15.2683 2.28826 15.0377C2.35676 14.7749 2.59329 14.5383 3.06635 14.0653L3.26385 13.8678C3.46354 13.6681 3.56338 13.5682 3.68096 13.5015C3.78512 13.4423 3.89907 13.4023 4.01737 13.3834C4.15091 13.3622 4.29124 13.3777 4.57192 13.4089L6.2253 13.5926C6.50597 13.6238 6.64631 13.6394 6.77985 13.6181C6.89815 13.5993 7.01209 13.5593 7.11626 13.5001C7.23383 13.4333 7.33368 13.3335 7.53336 13.1338L10.8787 9.78848L4.84941 7.77872C4.03618 7.50764 3.62957 7.3721 3.44177 7.11919C3.27779 6.89836 3.21201 6.61972 3.25992 6.34886C3.31478 6.03867 3.61786 5.7356 4.224 5.12945L4.59477 4.75868C4.82367 4.52979 4.93811 4.41534 5.07371 4.34445C5.19372 4.28171 5.32522 4.24399 5.46024 4.23359C5.6128 4.22184 5.7705 4.25824 6.08592 4.33103L13.5451 6.05236C13.855 6.12389 14.01 6.15966 14.1596 6.14902C14.3041 6.13874 14.4446 6.09721 14.5714 6.0273C14.7028 5.95488 14.8134 5.84062 15.0347 5.61208L17.7448 2.81286Z" stroke-width="2" stroke-linecap="round" stroke-linejoin="round"/></svg>