<svg xmlns="http://www.w3.org/2000/svg" version="1.1" width="24" height="24" viewBox="0 0 24 24" data-color="fill"> <path d="M 1.3333346,0 C 0.59732754,0 0,0.59732754 0,1.3333346 v 5.3333386 c 0,0.7360071 0.59732754,1.3333346 1.3333346,1.3333346 h 5.3333386 c 0.7360071,0 1.3333346,-0.5973275 1.3333346,-1.3333346 V 1.3333346 C 8.0000078,0.59732754 7.4026803,0 6.6666732,0 Z m 9.3333194,0 v 2.6666693 h 2.666668 V 0 Z m 6.666673,0 c -0.736008,0 -1.333335,0.59732754 -1.333335,1.3333346 v 5.3333386 c 0,0.7360071 0.597327,1.3333346 1.333335,1.3333346 h 5.333339 C 23.402673,8.0000078 24,7.4026803 24,6.6666732 V 1.3333346 C 24,0.59732754 23.402673,0 22.666666,0 Z M 2.6666693,2.6666693 H 5.3333386 V 5.3333386 H 2.6666693 Z m 15.9999687,0 h 2.666669 v 2.6666693 h -2.666669 z m -7.999984,2.6666693 v 2.6666692 h 2.666668 V 5.3333386 Z M 0,10.666654 v 2.666668 h 2.6666693 v -2.666668 z m 5.3333386,0 v 2.666668 h 2.6666692 v -2.666668 z m 5.3333154,0 v 2.666668 h 2.666668 v -2.666668 z m 2.666668,2.666668 v 2.66667 h 2.66667 v -2.66667 z m 2.66667,0 h 2.666669 v -2.666668 h -2.666669 z m 2.666646,0 v 2.66667 h 2.666669 v -2.66667 z m 2.666669,0 h 2.66667 v -2.666668 h -2.66667 z m 0,2.66667 v 2.666669 h 2.66667 v -2.666669 z m 0,2.666646 h -2.666669 v 2.666669 h 2.666669 z m 0,2.666669 v 2.66667 h 2.66667 v -2.66667 z m -2.666669,0 h -2.66667 v 2.66667 h 2.66667 z m -2.666646,0 v -2.666669 h -2.66667 v 2.666669 z m -2.66667,0 h -2.666668 v 2.66667 h 2.666668 z m 0,-2.666669 v -2.66667 h -2.666668 v 2.66667 z m 2.66667,0 h 2.666669 v -2.66667 H 15.999992 Z M 1.3333346,15.999992 C 0.59732754,15.999992 0,16.597319 0,17.333327 v 5.333339 C 0,23.402673 0.59732754,24 1.3333346,24 h 5.3333386 c 0.7360071,0 1.3333346,-0.597327 1.3333346,-1.333334 v -5.333339 c 0,-0.736008 -0.5973275,-1.333335 -1.3333346,-1.333335 z m 1.3333347,2.666646 h 2.6666693 v 2.666669 H 2.6666693 Z" style="stroke-width:0.0234374" /></svg>
