<svg width="24" height="24" viewBox="0 0 24 24" xmlns="http://www.w3.org/2000/svg" fill="currentColor"><g clip-path="url(#clip0_1113_6741)"><path d="M3 7C2.71667 7 2.47933 6.90433 2.288 6.713C2.096 6.521 2 6.28333 2 6V3C2 2.71667 2.096 2.479 2.288 2.287C2.47933 2.09567 2.71667 2 3 2H6C6.28333 2 6.521 2.09567 6.713 2.287C6.90433 2.479 7 2.71667 7 3C7 3.28333 6.90433 3.52067 6.713 3.712C6.521 3.904 6.28333 4 6 4H4V6C4 6.28333 3.90433 6.521 3.713 6.713C3.521 6.90433 3.28333 7 3 7ZM3 22C2.71667 22 2.47933 21.904 2.288 21.712C2.096 21.5207 2 21.2833 2 21V18C2 17.7167 2.096 17.4793 2.288 17.288C2.47933 17.096 2.71667 17 3 17C3.28333 17 3.521 17.096 3.713 17.288C3.90433 17.4793 4 17.7167 4 18V20H6C6.28333 20 6.521 20.096 6.713 20.288C6.90433 20.4793 7 20.7167 7 21C7 21.2833 6.90433 21.5207 6.713 21.712C6.521 21.904 6.28333 22 6 22H3ZM18 22C17.7167 22 17.4793 21.904 17.288 21.712C17.096 21.5207 17 21.2833 17 21C17 20.7167 17.096 20.4793 17.288 20.288C17.4793 20.096 17.7167 20 18 20H20V18C20 17.7167 20.096 17.4793 20.288 17.288C20.4793 17.096 20.7167 17 21 17C21.2833 17 21.5207 17.096 21.712 17.288C21.904 17.4793 22 17.7167 22 18V21C22 21.2833 21.904 21.5207 21.712 21.712C21.5207 21.904 21.2833 22 21 22H18ZM21 7C20.7167 7 20.4793 6.90433 20.288 6.713C20.096 6.521 20 6.28333 20 6V4H18C17.7167 4 17.4793 3.904 17.288 3.712C17.096 3.52067 17 3.28333 17 3C17 2.71667 17.096 2.479 17.288 2.287C17.4793 2.09567 17.7167 2 18 2H21C21.2833 2 21.5207 2.09567 21.712 2.287C21.904 2.479 22 2.71667 22 3V6C22 6.28333 21.904 6.521 21.712 6.713C21.5207 6.90433 21.2833 7 21 7ZM17.5 17.5H19V19H17.5V17.5ZM17.5 14.5H19V16H17.5V14.5ZM16 16H17.5V17.5H16V16ZM14.5 17.5H16V19H14.5V17.5ZM13 16H14.5V17.5H13V16ZM16 13H17.5V14.5H16V13ZM14.5 14.5H16V16H14.5V14.5ZM13 13H14.5V14.5H13V13ZM19 5V11H13V5H19ZM11 13V19H5V13H11ZM11 5V11H5V5H11ZM9.5 17.5V14.5H6.5V17.5H9.5ZM9.5 9.5V6.5H6.5V9.5H9.5ZM17.5 9.5V6.5H14.5V9.5H17.5Z"/></g><defs><clipPath id="clip0_1113_6741"><rect width="24" height="24"/></clipPath></defs></svg>