<svg width="24" height="24" viewBox="0 0 24 24" xmlns="http://www.w3.org/2000/svg" fill="currentColor"><g clip-path="url(#clip0_1113_6744)"><path d="M13 21V19H15V21H13ZM11 19V14H13V19H11ZM19 16V12H21V16H19ZM17 12V10H19V12H17ZM5 14V12H7V14H5ZM3 12V10H5V12H3ZM12 5V3H14V5H12ZM4.5 7.5H7.5V4.5H4.5V7.5ZM4 9C3.71667 9 3.47933 8.904 3.288 8.712C3.096 8.52067 3 8.28333 3 8V4C3 3.71667 3.096 3.479 3.288 3.287C3.47933 3.09567 3.71667 3 4 3H8C8.28333 3 8.521 3.09567 8.713 3.287C8.90433 3.479 9 3.71667 9 4V8C9 8.28333 8.90433 8.52067 8.713 8.712C8.521 8.904 8.28333 9 8 9H4ZM4.5 19.5H7.5V16.5H4.5V19.5ZM4 21C3.71667 21 3.47933 20.904 3.288 20.712C3.096 20.5207 3 20.2833 3 20V16C3 15.7167 3.096 15.479 3.288 15.287C3.47933 15.0957 3.71667 15 4 15H8C8.28333 15 8.521 15.0957 8.713 15.287C8.90433 15.479 9 15.7167 9 16V20C9 20.2833 8.90433 20.5207 8.713 20.712C8.521 20.904 8.28333 21 8 21H4ZM16.5 7.5H19.5V4.5H16.5V7.5ZM16 9C15.7167 9 15.4793 8.904 15.288 8.712C15.096 8.52067 15 8.28333 15 8V4C15 3.71667 15.096 3.479 15.288 3.287C15.4793 3.09567 15.7167 3 16 3H20C20.2833 3 20.5207 3.09567 20.712 3.287C20.904 3.479 21 3.71667 21 4V8C21 8.28333 20.904 8.52067 20.712 8.712C20.5207 8.904 20.2833 9 20 9H16ZM17 21V18H15V16H19V19H21V21H17ZM13 14V12H17V14H13ZM9 14V12H7V10H13V12H11V14H9ZM10 9V5H12V7H14V9H10ZM5.25 6.75V5.25H6.75V6.75H5.25ZM5.25 18.75V17.25H6.75V18.75H5.25ZM17.25 6.75V5.25H18.75V6.75H17.25Z"/></g><defs><clipPath id="clip0_1113_6744"><rect width="24" height="24"/></clipPath></defs></svg>