<svg width="24" height="24" viewBox="0 0 24 24" xmlns="http://www.w3.org/2000/svg" fill="currentColor"><g clip-path="url(#clip0_1113_6738)"><path d="M4 17V19H20V17H4ZM4 21C3.45 21 2.97933 20.8043 2.588 20.413C2.196 20.021 2 19.55 2 19V8C2 7.45 2.196 6.97933 2.588 6.588C2.97933 6.196 3.45 6 4 6H6.2C6.11667 5.85 6.06233 5.69167 6.037 5.525C6.01233 5.35833 6 5.18333 6 5C6 4.16667 6.29167 3.45833 6.875 2.875C7.45833 2.29167 8.16667 2 9 2C9.5 2 9.96233 2.129 10.387 2.387C10.8123 2.64567 11.1833 2.96667 11.5 3.35L12 4L12.5 3.35C12.8 2.95 13.1667 2.625 13.6 2.375C14.0333 2.125 14.5 2 15 2C15.8333 2 16.5417 2.29167 17.125 2.875C17.7083 3.45833 18 4.16667 18 5C18 5.18333 17.9873 5.35833 17.962 5.525C17.9373 5.69167 17.8833 5.85 17.8 6H20C20.55 6 21.021 6.196 21.413 6.588C21.8043 6.97933 22 7.45 22 8V19C22 19.55 21.8043 20.021 21.413 20.413C21.021 20.8043 20.55 21 20 21H4ZM4 14H20V8H14.9L16.425 10.075C16.575 10.275 16.6207 10.504 16.562 10.762C16.504 11.0207 16.3833 11.2417 16.2 11.425C15.9833 11.5917 15.7417 11.65 15.475 11.6C15.2083 11.55 14.9917 11.4167 14.825 11.2L12 7.4L9.175 11.225C8.99167 11.4583 8.76267 11.5957 8.488 11.637C8.21267 11.679 7.98333 11.6083 7.8 11.425C7.56667 11.2583 7.42933 11.0417 7.388 10.775C7.346 10.5083 7.40833 10.2667 7.575 10.05L9.05 8H4V14ZM9 6C9.28333 6 9.521 5.90433 9.713 5.713C9.90433 5.521 10 5.28333 10 5C10 4.71667 9.90433 4.479 9.713 4.287C9.521 4.09567 9.28333 4 9 4C8.71667 4 8.47933 4.09567 8.288 4.287C8.096 4.479 8 4.71667 8 5C8 5.28333 8.096 5.521 8.288 5.713C8.47933 5.90433 8.71667 6 9 6ZM15 6C15.2833 6 15.521 5.90433 15.713 5.713C15.9043 5.521 16 5.28333 16 5C16 4.71667 15.9043 4.479 15.713 4.287C15.521 4.09567 15.2833 4 15 4C14.7167 4 14.4793 4.09567 14.288 4.287C14.096 4.479 14 4.71667 14 5C14 5.28333 14.096 5.521 14.288 5.713C14.4793 5.90433 14.7167 6 15 6Z"/></g><defs><clipPath id="clip0_1113_6738"><rect width="24" height="24"/></clipPath></defs></svg>