<svg width="24" height="24" viewBox="0 0 24 24" xmlns="http://www.w3.org/2000/svg" fill="currentColor"><g clip-path="url(#clip0_1113_6735)"><path d="M12.05 20C9.81672 20 7.91672 19.225 6.35005 17.675C4.78338 16.125 4.00005 14.2333 4.00005 12V11.825L3.10005 12.725C2.91672 12.9083 2.68338 13 2.40005 13C2.11672 13 1.88338 12.9083 1.70005 12.725C1.51672 12.5417 1.42505 12.3083 1.42505 12.025C1.42505 11.7417 1.51672 11.5083 1.70005 11.325L4.30005 8.725C4.40005 8.625 4.50838 8.554 4.62505 8.512C4.74172 8.47067 4.86672 8.45 5.00005 8.45C5.13338 8.45 5.25838 8.47067 5.37505 8.512C5.49172 8.554 5.60005 8.625 5.70005 8.725L8.30005 11.325C8.48338 11.5083 8.57505 11.7417 8.57505 12.025C8.57505 12.3083 8.48338 12.5417 8.30005 12.725C8.11672 12.9083 7.88338 13 7.60005 13C7.31672 13 7.08338 12.9083 6.90005 12.725L6.00005 11.825V12C6.00005 13.6667 6.58772 15.0833 7.76305 16.25C8.93772 17.4167 10.3667 18 12.05 18C12.3834 18 12.7084 17.971 13.025 17.913C13.3417 17.8543 13.6584 17.7667 13.975 17.65C14.1417 17.5833 14.321 17.5667 14.513 17.6C14.7044 17.6333 14.8667 17.7167 15 17.85C15.3 18.15 15.421 18.4707 15.363 18.812C15.3044 19.154 15.0834 19.3917 14.7 19.525C14.2667 19.675 13.8294 19.7917 13.388 19.875C12.946 19.9583 12.5 20 12.05 20ZM19 15.55C18.8667 15.55 18.7417 15.529 18.625 15.487C18.5084 15.4457 18.4 15.375 18.3 15.275L15.7 12.675C15.5167 12.4917 15.425 12.2583 15.425 11.975C15.425 11.6917 15.5167 11.4583 15.7 11.275C15.8834 11.0917 16.1167 11 16.4 11C16.6834 11 16.9167 11.0917 17.1 11.275L18 12.175V12C18 10.3333 17.4127 8.91667 16.238 7.75C15.0627 6.58333 13.6334 6 11.95 6C11.6167 6 11.2917 6.02933 10.975 6.088C10.6584 6.146 10.3417 6.23333 10.025 6.35C9.85838 6.41667 9.67938 6.43333 9.48805 6.4C9.29605 6.36667 9.13338 6.28333 9.00005 6.15C8.70005 5.85 8.57905 5.529 8.63705 5.187C8.69572 4.84567 8.91672 4.60833 9.30005 4.475C9.73338 4.325 10.171 4.20833 10.613 4.125C11.0544 4.04167 11.5 4 11.95 4C14.1834 4 16.0834 4.775 17.65 6.325C19.2167 7.875 20 9.76667 20 12V12.175L20.9 11.275C21.0834 11.0917 21.3167 11 21.6 11C21.8834 11 22.1167 11.0917 22.3 11.275C22.4834 11.4583 22.5751 11.6917 22.5751 11.975C22.5751 12.2583 22.4834 12.4917 22.3 12.675L19.7001 15.275C19.6001 15.375 19.4917 15.4457 19.375 15.487C19.2584 15.529 19.1334 15.55 19 15.55Z"/></g><defs><clipPath id="clip0_1113_6735"><rect width="24" height="24"/></clipPath></defs></svg>