<svg width="24" height="24" viewBox="0 0 24 24" xmlns="http://www.w3.org/2000/svg" fill="currentColor"><g clip-path="url(#clip0_1113_6732)"><path d="M4.475 14.7C4.30833 14.2667 4.18767 13.829 4.113 13.387C4.03767 12.9457 4 12.5 4 12.05C4 9.81665 4.775 7.91665 6.325 6.34999C7.875 4.78332 9.76667 3.99999 12 3.99999H12.175L11.275 3.09999C11.0917 2.91665 11 2.68332 11 2.39999C11 2.11665 11.0917 1.88332 11.275 1.69999C11.4583 1.51665 11.6917 1.42499 11.975 1.42499C12.2583 1.42499 12.4917 1.51665 12.675 1.69999L15.275 4.29999C15.375 4.39999 15.446 4.50832 15.488 4.62499C15.5293 4.74165 15.55 4.86665 15.55 4.99999C15.55 5.13332 15.5293 5.25832 15.488 5.37499C15.446 5.49165 15.375 5.59999 15.275 5.69999L12.675 8.29999C12.4917 8.48332 12.2583 8.57499 11.975 8.57499C11.6917 8.57499 11.4583 8.48332 11.275 8.29999C11.0917 8.11665 11 7.88332 11 7.59999C11 7.31665 11.0917 7.08332 11.275 6.89999L12.175 5.99999H12C10.3333 5.99999 8.91667 6.58732 7.75 7.76199C6.58333 8.93732 6 10.3667 6 12.05C6 12.3833 6.02933 12.7083 6.088 13.025C6.146 13.3417 6.23333 13.6583 6.35 13.975C6.41667 14.1417 6.43333 14.3207 6.4 14.512C6.36667 14.704 6.28333 14.8667 6.15 15C5.85 15.3 5.52933 15.421 5.188 15.363C4.846 15.3043 4.60833 15.0833 4.475 14.7ZM11.325 22.3L8.725 19.7C8.625 19.6 8.55433 19.4917 8.513 19.375C8.471 19.2583 8.45 19.1333 8.45 19C8.45 18.8667 8.471 18.7417 8.513 18.625C8.55433 18.5083 8.625 18.4 8.725 18.3L11.325 15.7C11.5083 15.5167 11.7417 15.425 12.025 15.425C12.3083 15.425 12.5417 15.5167 12.725 15.7C12.9083 15.8833 13 16.1167 13 16.4C13 16.6833 12.9083 16.9167 12.725 17.1L11.825 18H12C13.6667 18 15.0833 17.4127 16.25 16.238C17.4167 15.0627 18 13.6333 18 11.95C18 11.6167 17.971 11.2917 17.913 10.975C17.8543 10.6583 17.7667 10.3417 17.65 10.025C17.5833 9.85832 17.5667 9.67899 17.6 9.48699C17.6333 9.29565 17.7167 9.13332 17.85 8.99999C18.15 8.69999 18.4707 8.57899 18.812 8.63699C19.154 8.69565 19.3917 8.91665 19.525 9.29999C19.6917 9.73332 19.8127 10.1707 19.888 10.612C19.9627 11.054 20 11.5 20 11.95C20 14.1833 19.225 16.0833 17.675 17.65C16.125 19.2167 14.2333 20 12 20H11.825L12.725 20.9C12.9083 21.0833 13 21.3167 13 21.6C13 21.8833 12.9083 22.1167 12.725 22.3C12.5417 22.4833 12.3083 22.575 12.025 22.575C11.7417 22.575 11.5083 22.4833 11.325 22.3Z"/></g><defs><clipPath id="clip0_1113_6732"><rect width="24" height="24"/></clipPath></defs></svg>