<svg width="24" height="24" viewBox="0 0 24 24" xmlns="http://www.w3.org/2000/svg" fill="currentColor"><g clip-path="url(#clip0_1113_6729)"><path d="M12 22C9.66667 22 7.65433 21.2333 5.963 19.7C4.271 18.1667 3.3 16.2667 3.05 14C3.01667 13.7333 3.096 13.5 3.288 13.3C3.47933 13.1 3.71667 13 4 13C4.26667 13 4.50433 13.0957 4.713 13.287C4.921 13.479 5.04167 13.7167 5.075 14C5.30833 15.7167 6.075 17.146 7.375 18.288C8.675 19.4293 10.2167 20 12 20C13.95 20 15.604 19.3207 16.962 17.962C18.3207 16.604 19 14.95 19 13C19 11.05 18.3207 9.39565 16.962 8.03699C15.604 6.67899 13.95 5.99999 12 5.99999H11.85L12.725 6.87499C12.9083 7.05832 13 7.29165 13 7.57499C13 7.85832 12.9083 8.09165 12.725 8.27499C12.525 8.47499 12.2833 8.57499 12 8.57499C11.7167 8.57499 11.4833 8.47499 11.3 8.27499L8.7 5.69999C8.6 5.59999 8.52933 5.49165 8.488 5.37499C8.446 5.25832 8.425 5.13332 8.425 4.99999C8.425 4.86665 8.446 4.74165 8.488 4.62499C8.52933 4.50832 8.6 4.39999 8.7 4.29999L11.3 1.69999C11.4833 1.51665 11.7167 1.42499 12 1.42499C12.2833 1.42499 12.525 1.51665 12.725 1.69999C12.9083 1.89999 13 2.14165 13 2.42499C13 2.70832 12.9083 2.94165 12.725 3.12499L11.85 3.99999H12C13.25 3.99999 14.421 4.23765 15.513 4.71299C16.6043 5.18765 17.5543 5.82899 18.363 6.63699C19.171 7.44565 19.8127 8.39565 20.288 9.48699C20.7627 10.579 21 11.75 21 13C21 14.25 20.7627 15.4207 20.288 16.512C19.8127 17.604 19.171 18.554 18.363 19.362C17.5543 20.1707 16.6043 20.8127 15.513 21.288C14.421 21.7627 13.25 22 12 22Z"/></g><defs><clipPath id="clip0_1113_6729"><rect width="24" height="24"/></clipPath></defs></svg>