<svg width="24" height="24" viewBox="0 0 24 24" fill="none" xmlns="http://www.w3.org/2000/svg" stroke="currentColor"><path d="M14.5 5.50001L16 7.00001M11.5 8.50001L13 10M8.5 11.5L10 13M5.5 14.5L7 16M2.56564 17.5657L6.43427 21.4344C6.63228 21.6324 6.73128 21.7314 6.84545 21.7685C6.94587 21.8011 7.05404 21.8011 7.15446 21.7685C7.26863 21.7314 7.36763 21.6324 7.56564 21.4344L21.4343 7.56573C21.6323 7.36772 21.7313 7.26872 21.7684 7.15455C21.801 7.05413 21.801 6.94596 21.7684 6.84554C21.7313 6.73137 21.6323 6.63237 21.4343 6.43436L17.5656 2.56573C17.3676 2.36772 17.2686 2.26872 17.1545 2.23163C17.054 2.199 16.9459 2.199 16.8454 2.23163C16.7313 2.26872 16.6323 2.36772 16.4343 2.56573L2.56564 16.4344C2.36763 16.6324 2.26863 16.7314 2.23153 16.8455C2.1989 16.946 2.1989 17.0541 2.23153 17.1546C2.26863 17.2687 2.36763 17.3677 2.56564 17.5657Z" stroke-width="2" stroke-linecap="round" stroke-linejoin="round"/></svg>