<!-- Generated by IcoMoon.io -->
<svg version="1.1" xmlns="http://www.w3.org/2000/svg" width="1024" height="1024" viewBox="0 0 1024 1024">
<title></title>
<g id="icomoon-ignore">
</g>
<path d="M426.718 0.309c-234.994 0-426.409 191.414-426.409 426.409s191.414 426.409 426.409 426.409c102.189 0 196.037-36.288 269.587-96.525l254.596 254.596c7.773 8.086 18.681 13.111 30.763 13.111 23.552 0 42.645-19.093 42.645-42.645 0-12.081-5.024-22.99-13.096-30.749l-254.61-254.61c60.237-73.551 96.525-167.398 96.525-269.587 0-234.994-191.414-426.409-426.409-426.409zM426.718 85.591c188.905 0 341.128 152.223 341.128 341.128s-152.223 341.128-341.128 341.128c-188.905 0-341.128-152.223-341.128-341.128s152.223-341.128 341.128-341.128z"></path>
</svg>
