<svg width="24" height="24" viewBox="0 0 24 24" xmlns="http://www.w3.org/2000/svg" fill="currentColor"><path d="M12 21.925H11.75C11.6667 21.925 11.5917 21.9083 11.525 21.875C9.34167 21.1917 7.54167 19.8375 6.125 17.8125C4.70833 15.7875 4 13.55 4 11.1V6.37499C4 5.95833 4.12083 5.58333 4.3625 5.24999C4.60417 4.91666 4.91667 4.67499 5.3 4.52499L11.3 2.27499C11.5333 2.19166 11.7667 2.14999 12 2.14999C12.2333 2.14999 12.4667 2.19166 12.7 2.27499L18.7 4.52499C19.0833 4.67499 19.3958 4.91666 19.6375 5.24999C19.8792 5.58333 20 5.95833 20 6.37499V11.1C20 13.55 19.2917 15.7875 17.875 17.8125C16.4583 19.8375 14.6583 21.1917 12.475 21.875C12.3917 21.9083 12.2333 21.925 12 21.925Z"/></svg>