<svg width="24" height="24" viewBox="0 0 24 24" fill="none" xmlns="http://www.w3.org/2000/svg" stroke="currentColor"><path d="M12 2.49999V21.5M20 12C20 16.9084 14.646 20.4784 12.698 21.6149C12.4766 21.744 12.3659 21.8086 12.2097 21.8421C12.0884 21.8681 11.9116 21.8681 11.7903 21.8421C11.6341 21.8086 11.5234 21.744 11.302 21.6149C9.35396 20.4784 4 16.9084 4 12V7.21759C4 6.41808 4 6.01833 4.13076 5.6747C4.24627 5.37113 4.43398 5.10027 4.67766 4.88552C4.9535 4.64243 5.3278 4.50207 6.0764 4.22134L11.4382 2.21067C11.6461 2.13271 11.75 2.09373 11.857 2.07827C11.9518 2.06457 12.0482 2.06457 12.143 2.07827C12.25 2.09373 12.3539 2.13271 12.5618 2.21067L17.9236 4.22134C18.6722 4.50207 19.0465 4.64243 19.3223 4.88552C19.566 5.10027 19.7537 5.37113 19.8692 5.6747C20 6.01833 20 6.41808 20 7.21759V12Z" stroke-width="2" stroke-linecap="round" stroke-linejoin="round"/></svg>