<svg width="24" height="24" viewBox="0 0 24 24" xmlns="http://www.w3.org/2000/svg" fill="currentColor"><path d="M11.9329 16.1463C13.1829 16.1463 14.2454 15.7088 15.1204 14.8338C15.9954 13.9588 16.4329 12.8963 16.4329 11.6463C16.4329 10.3963 15.9954 9.3338 15.1204 8.4588C14.2454 7.5838 13.1829 7.1463 11.9329 7.1463C10.6829 7.1463 9.62041 7.5838 8.74541 8.4588C7.87041 9.3338 7.43291 10.3963 7.43291 11.6463C7.43291 12.8963 7.87041 13.9588 8.74541 14.8338C9.62041 15.7088 10.6829 16.1463 11.9329 16.1463ZM11.9329 14.3463C11.1829 14.3463 10.5454 14.0838 10.0204 13.5588C9.49541 13.0338 9.23291 12.3963 9.23291 11.6463C9.23291 10.8963 9.49541 10.2588 10.0204 9.7338C10.5454 9.2088 11.1829 8.9463 11.9329 8.9463C12.6829 8.9463 13.3204 9.2088 13.8454 9.7338C14.3704 10.2588 14.6329 10.8963 14.6329 11.6463C14.6329 12.3963 14.3704 13.0338 13.8454 13.5588C13.3204 14.0838 12.6829 14.3463 11.9329 14.3463ZM11.9329 19.1463C9.61624 19.1463 7.49958 18.5338 5.58291 17.3088C3.66624 16.0838 2.21624 14.4296 1.23291 12.3463C1.18291 12.263 1.14958 12.1588 1.13291 12.0338C1.11624 11.9088 1.10791 11.7796 1.10791 11.6463C1.10791 11.513 1.11624 11.3838 1.13291 11.2588C1.14958 11.1338 1.18291 11.0296 1.23291 10.9463C2.21624 8.86297 3.66624 7.2088 5.58291 5.9838C7.49958 4.7588 9.61624 4.1463 11.9329 4.1463C14.2496 4.1463 16.3662 4.7588 18.2829 5.9838C20.1996 7.2088 21.6496 8.86297 22.6329 10.9463C22.6829 11.0296 22.7162 11.1338 22.7329 11.2588C22.7496 11.3838 22.7579 11.513 22.7579 11.6463C22.7579 11.7796 22.7496 11.9088 22.7329 12.0338C22.7162 12.1588 22.6829 12.263 22.6329 12.3463C21.6496 14.4296 20.1996 16.0838 18.2829 17.3088C16.3662 18.5338 14.2496 19.1463 11.9329 19.1463Z"/></svg>