<svg width="24" height="24" viewBox="0 0 24 24" xmlns="http://www.w3.org/2000/svg" fill="currentColor"><g clip-path="url(#clip0_1113_6714)"><path d="M18.5 20C18.0833 20 17.7293 19.854 17.438 19.562C17.146 19.2707 17 18.9167 17 18.5V5.5C17 5.08333 17.146 4.72933 17.438 4.438C17.7293 4.146 18.0833 4 18.5 4C18.9167 4 19.2707 4.146 19.562 4.438C19.854 4.72933 20 5.08333 20 5.5V18.5C20 18.9167 19.854 19.2707 19.562 19.562C19.2707 19.854 18.9167 20 18.5 20ZM6.5 20C6.3 20 6.10833 19.9623 5.925 19.887C5.74167 19.8123 5.57933 19.704 5.438 19.562C5.296 19.4207 5.18767 19.2583 5.113 19.075C5.03767 18.8917 5 18.7 5 18.5V15.5C5 15.0833 5.146 14.7293 5.438 14.438C5.72933 14.146 6.08333 14 6.5 14C6.91667 14 7.27067 14.146 7.562 14.438C7.854 14.7293 8 15.0833 8 15.5V18.5C8 18.7 7.96267 18.8917 7.888 19.075C7.81267 19.2583 7.704 19.4207 7.562 19.562C7.42067 19.704 7.25833 19.8123 7.075 19.887C6.89167 19.9623 6.7 20 6.5 20ZM12.5 20C12.0833 20 11.7293 19.854 11.438 19.562C11.146 19.2707 11 18.9167 11 18.5V10.5C11 10.0833 11.146 9.72933 11.438 9.438C11.7293 9.146 12.0833 9 12.5 9C12.9167 9 13.2707 9.146 13.562 9.438C13.854 9.72933 14 10.0833 14 10.5V18.5C14 18.9167 13.854 19.2707 13.562 19.562C13.2707 19.854 12.9167 20 12.5 20Z"/></g><defs><clipPath id="clip0_1113_6714"><rect width="24" height="24"/></clipPath></defs></svg>