<svg width="24" height="24" viewBox="0 0 24 24" xmlns="http://www.w3.org/2000/svg" fill="currentColor"><path d="M15.5 11C15.9333 11 16.2917 10.8583 16.575 10.575C16.8583 10.2917 17 9.93333 17 9.5C17 9.06667 16.8583 8.70833 16.575 8.425C16.2917 8.14167 15.9333 8 15.5 8C15.0667 8 14.7083 8.14167 14.425 8.425C14.1417 8.70833 14 9.06667 14 9.5C14 9.93333 14.1417 10.2917 14.425 10.575C14.7083 10.8583 15.0667 11 15.5 11ZM8.5 11C8.93333 11 9.29167 10.8583 9.575 10.575C9.85833 10.2917 10 9.93333 10 9.5C10 9.06667 9.85833 8.70833 9.575 8.425C9.29167 8.14167 8.93333 8 8.5 8C8.06667 8 7.70833 8.14167 7.425 8.425C7.14167 8.70833 7 9.06667 7 9.5C7 9.93333 7.14167 10.2917 7.425 10.575C7.70833 10.8583 8.06667 11 8.5 11ZM12 17.5C13.0333 17.5 13.9583 17.25 14.775 16.75C15.5917 16.25 16.2417 15.5917 16.725 14.775C16.8417 14.575 16.85 14.3958 16.75 14.2375C16.65 14.0792 16.4833 14 16.25 14H7.75C7.51667 14 7.35 14.0792 7.25 14.2375C7.15 14.3958 7.15833 14.575 7.275 14.775C7.75833 15.5917 8.40833 16.25 9.225 16.75C10.0417 17.25 10.9667 17.5 12 17.5ZM12 22C10.6167 22 9.31667 21.7375 8.1 21.2125C6.88333 20.6875 5.825 19.975 4.925 19.075C4.025 18.175 3.3125 17.1167 2.7875 15.9C2.2625 14.6833 2 13.3833 2 12C2 10.6167 2.2625 9.31667 2.7875 8.1C3.3125 6.88333 4.025 5.825 4.925 4.925C5.825 4.025 6.88333 3.3125 8.1 2.7875C9.31667 2.2625 10.6167 2 12 2C13.3833 2 14.6833 2.2625 15.9 2.7875C17.1167 3.3125 18.175 4.025 19.075 4.925C19.975 5.825 20.6875 6.88333 21.2125 8.1C21.7375 9.31667 22 10.6167 22 12C22 13.3833 21.7375 14.6833 21.2125 15.9C20.6875 17.1167 19.975 18.175 19.075 19.075C18.175 19.975 17.1167 20.6875 15.9 21.2125C14.6833 21.7375 13.3833 22 12 22Z"/></svg>