<svg width="24" height="24" viewBox="0 0 24 24" xmlns="http://www.w3.org/2000/svg" fill="currentColor"><g clip-path="url(#clip0_1113_6711)"><path d="M3.40003 17C3.0167 17 2.73737 16.875 2.56203 16.625C2.38737 16.375 2.3667 16.0667 2.50003 15.7L5.37503 8.00001C5.47503 7.71668 5.6667 7.47901 5.95003 7.28701C6.23337 7.09568 6.52503 7.00001 6.82503 7.00001C7.10837 7.00001 7.39603 7.09568 7.68803 7.28701C7.97937 7.47901 8.17503 7.71668 8.27503 8.00001L11.175 15.725C11.3084 16.075 11.2877 16.375 11.113 16.625C10.9377 16.875 10.6584 17 10.275 17C10.0917 17 9.9127 16.9417 9.73803 16.825C9.5627 16.7083 9.4417 16.5583 9.37503 16.375L8.75003 14.6H4.90003L4.32503 16.35C4.25837 16.5333 4.1377 16.6873 3.96303 16.812C3.7877 16.9373 3.60003 17 3.40003 17ZM5.50003 12.9H8.10003L6.90003 9.15001H6.75003L5.50003 12.9ZM14.925 17C14.5917 17 14.304 16.879 14.062 16.637C13.8207 16.3957 13.7 16.1083 13.7 15.775C13.7 15.5917 13.7417 15.379 13.825 15.137C13.9084 14.8957 14.0084 14.7083 14.125 14.575L18.75 8.80001H14.8C14.55 8.80001 14.3377 8.71235 14.163 8.53701C13.9877 8.36235 13.9 8.15001 13.9 7.90001C13.9 7.65001 13.9877 7.43735 14.163 7.26201C14.3377 7.08735 14.55 7.00001 14.8 7.00001H19.725C20.0584 7.00001 20.346 7.12068 20.588 7.36201C20.8294 7.60401 20.95 7.90001 20.95 8.25001C20.95 8.43335 20.9127 8.64168 20.838 8.87501C20.7627 9.10835 20.6667 9.29168 20.55 9.42501L15.95 15.2H20.1C20.35 15.2 20.5627 15.2873 20.738 15.462C20.9127 15.6373 21 15.85 21 16.1C21 16.35 20.9127 16.5627 20.738 16.738C20.5627 16.9127 20.35 17 20.1 17H14.925ZM10.2 5.00001C9.9667 5.00001 9.80837 4.90001 9.72503 4.70001C9.6417 4.50001 9.68337 4.31668 9.85003 4.15001L11.65 2.35001C11.6834 2.31668 11.8 2.26668 12 2.20001C12.0334 2.20001 12.15 2.25001 12.35 2.35001L14.15 4.15001C14.3167 4.31668 14.3584 4.50001 14.275 4.70001C14.1917 4.90001 14.0334 5.00001 13.8 5.00001H10.2ZM12 21.8C11.9667 21.8 11.85 21.75 11.65 21.65L9.85003 19.85C9.68337 19.6833 9.6417 19.5 9.72503 19.3C9.80837 19.1 9.9667 19 10.2 19H13.8C14.0334 19 14.1917 19.1 14.275 19.3C14.3584 19.5 14.3167 19.6833 14.15 19.85L12.35 21.65C12.3167 21.6833 12.2 21.7333 12 21.8Z"/></g><defs><clipPath id="clip0_1113_6711"><rect width="24" height="24"/></clipPath></defs></svg>