<svg width="24" height="24" viewBox="0 0 24 24" xmlns="http://www.w3.org/2000/svg" fill="currentColor"><g clip-path="url(#clip0_1113_6705)"><path d="M9.50005 15.5L4.25005 20.75C4.03338 20.9667 3.78338 21.075 3.50005 21.075C3.21672 21.075 2.96672 20.9667 2.75005 20.75C2.53338 20.5333 2.42505 20.2833 2.42505 20C2.42505 19.7167 2.53338 19.4667 2.75005 19.25L8.80005 13.2C9.00005 13 9.23338 12.9 9.50005 12.9C9.76672 12.9 10 13 10.2 13.2L13.5 16.5L19.9 9.27501C20.0834 9.05835 20.3211 8.95001 20.6131 8.95001C20.9044 8.95001 21.15 9.05001 21.35 9.25001C21.5334 9.43335 21.6294 9.65401 21.6381 9.91201C21.6461 10.1707 21.5584 10.4 21.375 10.6L14.2 18.7C14.0167 18.9167 13.7794 19.0293 13.488 19.038C13.196 19.046 12.95 18.95 12.75 18.75L9.50005 15.5ZM9.50005 9.50001L4.25005 14.75C4.03338 14.9667 3.78338 15.075 3.50005 15.075C3.21672 15.075 2.96672 14.9667 2.75005 14.75C2.53338 14.5333 2.42505 14.2833 2.42505 14C2.42505 13.7167 2.53338 13.4667 2.75005 13.25L8.80005 7.20001C9.00005 7.00001 9.23338 6.90001 9.50005 6.90001C9.76672 6.90001 10 7.00001 10.2 7.20001L13.5 10.5L19.9 3.27501C20.0834 3.05835 20.3211 2.95001 20.6131 2.95001C20.9044 2.95001 21.15 3.05001 21.35 3.25001C21.5334 3.43335 21.6294 3.65401 21.6381 3.91201C21.6461 4.17068 21.5584 4.40001 21.375 4.60001L14.2 12.7C14.0167 12.9167 13.7794 13.029 13.488 13.037C13.196 13.0457 12.95 12.95 12.75 12.75L9.50005 9.50001Z"/></g><defs><clipPath id="clip0_1113_6705"><rect width="24" height="24"/></clipPath></defs></svg>