<svg width="24" height="24" viewBox="0 0 24 24" fill="none" xmlns="http://www.w3.org/2000/svg" stroke="currentColor"><path d="M11.3064 3.20705C11.5339 2.8112 11.6476 2.61327 11.7963 2.54693C11.9259 2.48908 12.0741 2.48908 12.2037 2.54693C12.3524 2.61327 12.4661 2.8112 12.6936 3.20705L14.6488 6.60938C14.733 6.75592 14.7751 6.82919 14.8341 6.88243C14.8864 6.92954 14.948 6.9651 15.0149 6.98678C15.0905 7.01129 15.175 7.01112 15.344 7.01078L19.2681 7.00284C19.7247 7.00191 19.953 7.00145 20.0847 7.09703C20.1997 7.1804 20.2738 7.3087 20.2885 7.44992C20.3054 7.61184 20.1908 7.8093 19.9618 8.20424L17.9928 11.5986C17.908 11.7448 17.8656 11.8179 17.849 11.8957C17.8344 11.9645 17.8344 12.0356 17.849 12.1044C17.8656 12.1821 17.908 12.2552 17.9928 12.4014L19.9618 15.7958C20.1908 16.1907 20.3054 16.3882 20.2885 16.5501C20.2738 16.6913 20.1997 16.8196 20.0847 16.903C19.953 16.9986 19.7247 16.9981 19.2681 16.9972L15.344 16.9893C15.175 16.9889 15.0905 16.9888 15.0149 17.0133C14.948 17.0349 14.8864 17.0705 14.8341 17.1176C14.7751 17.1709 14.733 17.2441 14.6488 17.3907L12.6936 20.793C12.4661 21.1888 12.3524 21.3868 12.2037 21.4531C12.0741 21.511 11.9259 21.511 11.7963 21.4531C11.6476 21.3868 11.5339 21.1888 11.3064 20.793L9.35121 17.3907C9.267 17.2441 9.22489 17.1709 9.16585 17.1176C9.11362 17.0705 9.05203 17.0349 8.98511 17.0133C8.90948 16.9888 8.82497 16.9889 8.65596 16.9893L4.73188 16.9972C4.27532 16.9981 4.04704 16.9986 3.91525 16.903C3.80032 16.8196 3.72624 16.6913 3.71152 16.5501C3.69463 16.3882 3.80917 16.1907 4.03825 15.7958L6.00717 12.4014C6.09197 12.2552 6.13437 12.1821 6.15096 12.1044C6.16565 12.0356 6.16565 11.9645 6.15096 11.8957C6.13437 11.8179 6.09197 11.7448 6.00717 11.5986L4.03825 8.20424C3.80917 7.8093 3.69463 7.61184 3.71152 7.44992C3.72624 7.3087 3.80032 7.1804 3.91525 7.09703C4.04704 7.00145 4.27532 7.00191 4.73188 7.00284L8.65596 7.01078C8.82497 7.01112 8.90948 7.01129 8.98511 6.98678C9.05203 6.9651 9.11362 6.92954 9.16585 6.88243C9.22489 6.82919 9.267 6.75592 9.35121 6.60938L11.3064 3.20705Z" stroke-width="2" stroke-linecap="round" stroke-linejoin="round"/></svg>