<svg width="24" height="24" viewBox="0 0 24 24" xmlns="http://www.w3.org/2000/svg" fill="currentColor"><path d="M12.0459 14.7979C12.8792 14.7979 13.5876 14.5062 14.1709 13.9229C14.7542 13.3396 15.0459 12.6312 15.0459 11.7979C15.0459 10.9646 14.7542 10.2562 14.1709 9.67291C13.5876 9.08958 12.8792 8.79791 12.0459 8.79791C11.2126 8.79791 10.5042 9.08958 9.9209 9.67291C9.33756 10.2562 9.0459 10.9646 9.0459 11.7979C9.0459 12.6312 9.33756 13.3396 9.9209 13.9229C10.5042 14.5062 11.2126 14.7979 12.0459 14.7979ZM12.0459 21.7979C10.6626 21.7979 9.36257 21.5354 8.1459 21.0104C6.92923 20.4854 5.8709 19.7729 4.9709 18.8729C4.0709 17.9729 3.3584 16.9146 2.8334 15.6979C2.3084 14.4812 2.0459 13.1812 2.0459 11.7979C2.0459 10.4146 2.3084 9.11458 2.8334 7.89791C3.3584 6.68125 4.0709 5.62291 4.9709 4.72291C5.8709 3.82291 6.92923 3.11041 8.1459 2.58541C9.36257 2.06041 10.6626 1.79791 12.0459 1.79791C13.4292 1.79791 14.7292 2.06041 15.9459 2.58541C17.1626 3.11041 18.2209 3.82291 19.1209 4.72291C20.0209 5.62291 20.7334 6.68125 21.2584 7.89791C21.7834 9.11458 22.0459 10.4146 22.0459 11.7979C22.0459 13.1812 21.7834 14.4812 21.2584 15.6979C20.7334 16.9146 20.0209 17.9729 19.1209 18.8729C18.2209 19.7729 17.1626 20.4854 15.9459 21.0104C14.7292 21.5354 13.4292 21.7979 12.0459 21.7979Z"/></svg>