<svg width="24" height="24" viewBox="0 0 24 24" xmlns="http://www.w3.org/2000/svg" fill="currentColor"><g clip-path="url(#clip0_1113_6702)"><path d="M4.99995 6C4.71662 6 4.47895 5.90433 4.28695 5.713C4.09562 5.521 3.99995 5.28333 3.99995 5C3.99995 4.71667 4.09562 4.479 4.28695 4.287C4.47895 4.09567 4.71662 4 4.99995 4H19C19.2833 4 19.5206 4.09567 19.712 4.287C19.904 4.479 20 4.71667 20 5C20 5.28333 19.904 5.521 19.712 5.713C19.5206 5.90433 19.2833 6 19 6H4.99995ZM4.99995 20C4.71662 20 4.47895 19.904 4.28695 19.712C4.09562 19.5207 3.99995 19.2833 3.99995 19V14H3.82495C3.50828 14 3.24995 13.879 3.04995 13.637C2.84995 13.3957 2.78328 13.1167 2.84995 12.8L3.84995 7.8C3.89995 7.56667 4.01662 7.375 4.19995 7.225C4.38328 7.075 4.59162 7 4.82495 7H19.1749C19.4083 7 19.6166 7.075 19.7999 7.225C19.9833 7.375 20.1 7.56667 20.15 7.8L21.15 12.8C21.2166 13.1167 21.15 13.3957 20.95 13.637C20.75 13.879 20.4916 14 20.1749 14H20V19C20 19.2833 19.904 19.5207 19.712 19.712C19.5206 19.904 19.2833 20 19 20C18.7166 20 18.4793 19.904 18.288 19.712C18.096 19.5207 18 19.2833 18 19V14H14V19C14 19.2833 13.9043 19.5207 13.713 19.712C13.521 19.904 13.2833 20 13 20H4.99995ZM5.99995 18H12V14H5.99995V18Z"/></g><defs><clipPath id="clip0_1113_6702"><rect width="24" height="24"/></clipPath></defs></svg>