<!-- Generated by IcoMoon.io -->
<svg version="1.1" xmlns="http://www.w3.org/2000/svg" width="512" height="512" viewBox="0 0 512 512">
<title></title>
<g id="icomoon-ignore">
</g>
<path d="M256 0c-141.376 0-256 114.624-256 256s114.624 256 256 256c141.376 0 256-114.624 256-256s-114.624-256-256-256zM399.082 207.083l-161.279 161.279c-4.011 4.013-9.429 6.253-15.083 6.253s-11.094-2.24-15.083-6.253l-73.664-73.663c-8.341-8.341-8.341-21.824 0-30.165s21.824-8.341 30.165 0l58.582 58.58 146.198-146.196c8.339-8.341 21.824-8.341 30.163 0 8.342 8.341 8.342 21.824 0 30.165z"></path>
</svg>
