<!-- Generated by IcoMoon.io -->
<svg version="1.1" xmlns="http://www.w3.org/2000/svg" width="512" height="512" viewBox="0 0 512 512">
<title></title>
<g id="icomoon-ignore">
</g>
<path d="M255.733 16.834c-9.311 0.15-16.802 7.733-16.802 17.067 0 0.082 0 0.164 0.001 0.246v-0.013 51.2c-0.001 0.072-0.001 0.156-0.001 0.242 0 9.427 7.642 17.069 17.069 17.069s17.068-7.642 17.068-17.069c0-0.085-0-0.169-0.002-0.254v0.013-51.2c0.001-0.069 0.002-0.151 0.002-0.233 0-9.427-7.642-17.069-17.069-17.069-0.094 0-0.188 0.001-0.28 0.003h0.014zM98.933 81.9c-9.41 0.022-17.031 7.655-17.031 17.069 0 4.794 1.977 9.127 5.16 12.228l36.204 36.204c3.111 3.237 7.477 5.247 12.312 5.247 9.427 0 17.069-7.642 17.069-17.069 0-4.835-2.011-9.201-5.242-12.306l-36.206-36.206c-3.105-3.189-7.439-5.166-12.234-5.166-0.011 0-0.022 0-0.034 0h0.002zM412.534 81.9c-4.613 0.141-8.744 2.093-11.729 5.162l-36.204 36.204c-3.236 3.111-5.247 7.476-5.247 12.312 0 9.427 7.642 17.069 17.069 17.069 4.836 0 9.201-2.011 12.307-5.242l36.205-36.206c3.192-3.105 5.171-7.441 5.171-12.239 0-9.427-7.642-17.069-17.068-17.069-0.177 0-0.353 0.002-0.529 0.008l0.026-0.001zM256 136.534c-65.98 0-119.466 53.487-119.466 119.466v0c0 65.98 53.487 119.466 119.466 119.466v0c65.98 0 119.466-53.487 119.466-119.466v0c0-65.98-53.487-119.466-119.466-119.466v0zM34.133 238.934c-0.072-0.001-0.157-0.001-0.242-0.001-9.427 0-17.069 7.642-17.069 17.068s7.642 17.068 17.069 17.068c0.085 0 0.169-0 0.254-0.002h51.187c0.072 0.001 0.156 0.002 0.242 0.002 9.427 0 17.069-7.642 17.069-17.069s-7.642-17.069-17.069-17.069c-0.085 0-0.169 0-0.254 0.002h-51.187zM426.666 238.934c-0.072-0.001-0.156-0.001-0.241-0.001-9.426 0-17.069 7.642-17.069 17.068s7.642 17.068 17.068 17.068c0.085 0 0.17-0 0.254-0.002h51.187c0.072 0.001 0.156 0.002 0.241 0.002 9.426 0 17.068-7.642 17.068-17.069s-7.642-17.069-17.068-17.069c-0.085 0-0.17 0-0.254 0.002h-51.187zM135 359.433c-4.613 0.142-8.744 2.092-11.73 5.163l-36.204 36.204c-3.237 3.111-5.247 7.476-5.247 12.312 0 9.426 7.642 17.069 17.069 17.069 4.835 0 9.201-2.010 12.306-5.241l36.205-36.205c3.191-3.104 5.172-7.44 5.172-12.239 0-9.426-7.642-17.068-17.069-17.068-0.177 0-0.353 0.002-0.529 0.008l0.025-0zM376.5 359.433c-9.425 0.002-17.064 7.644-17.064 17.068 0 4.795 1.977 9.127 5.16 12.228l36.203 36.203c3.111 3.236 7.476 5.247 12.312 5.247 9.426 0 17.068-7.642 17.068-17.068 0-4.835-2.010-9.201-5.241-12.307l-36.205-36.205c-3.104-3.188-7.438-5.166-12.233-5.166v0zM255.733 409.366c-9.311 0.15-16.802 7.733-16.802 17.067 0 0.082 0 0.164 0.001 0.246v-0.012 51.2c-0.001 0.072-0.001 0.156-0.001 0.241 0 9.426 7.642 17.068 17.069 17.068s17.068-7.642 17.068-17.068c0-0.085-0-0.17-0.002-0.254v0.013-51.2c0.001-0.070 0.002-0.151 0.002-0.233 0-9.426-7.642-17.069-17.069-17.069-0.094 0-0.188 0.001-0.28 0.002h0.014z"></path>
</svg>
