<svg width="24" height="24" viewBox="0 0 24 24" xmlns="http://www.w3.org/2000/svg" fill="currentColor"><g clip-path="url(#clip0_1113_6699)"><path d="M15 20C12.7667 20 10.875 19.225 9.325 17.675C7.775 16.125 7 14.2333 7 12C7 9.76667 7.775 7.875 9.325 6.325C10.875 4.775 12.7667 4 15 4C17.2333 4 19.125 4.775 20.675 6.325C22.225 7.875 23 9.76667 23 12C23 14.2333 22.225 16.125 20.675 17.675C19.125 19.225 17.2333 20 15 20ZM5.625 19.25C4.225 18.6 3.10433 17.625 2.263 16.325C1.421 15.025 1 13.5833 1 12C1 10.4167 1.421 8.975 2.263 7.675C3.10433 6.375 4.225 5.4 5.625 4.75C5.975 4.58333 6.29167 4.59567 6.575 4.787C6.85833 4.979 7 5.29167 7 5.725C7 5.89167 6.946 6.054 6.838 6.212C6.72933 6.37067 6.59167 6.49167 6.425 6.575C5.375 7.05833 4.54167 7.78733 3.925 8.762C3.30833 9.73733 3 10.8167 3 12C3 13.1833 3.30833 14.2623 3.925 15.237C4.54167 16.2123 5.375 16.9417 6.425 17.425C6.59167 17.5083 6.72933 17.625 6.838 17.775C6.946 17.925 7 18.0917 7 18.275C7 18.6917 6.85833 19 6.575 19.2C6.29167 19.4 5.975 19.4167 5.625 19.25Z"/></g><defs><clipPath id="clip0_1113_6699"><rect width="24" height="24"/></clipPath></defs></svg>