<svg width="24" height="24" viewBox="0 0 24 24" fill="none" xmlns="http://www.w3.org/2000/svg" stroke="currentColor"><path d="M17 19.4C17 20.8359 15.8807 22 14.5 22C13.1193 22 12 20.8359 12 19.4V12M2.12633 10.4063C2.88954 5.64091 7.01959 2 12 2C16.9805 2 21.1105 5.64091 21.8737 10.4063C21.9482 10.8714 21.9855 11.1039 21.8919 11.3523C21.8175 11.55 21.6354 11.7636 21.452 11.8684C21.2215 12 20.9477 12 20.4 12H3.60003C3.05238 12 2.77856 12 2.54808 11.8684C2.36469 11.7636 2.18252 11.55 2.10811 11.3523C2.01459 11.1039 2.05184 10.8714 2.12633 10.4063Z" stroke-width="2" stroke-linecap="round" stroke-linejoin="round"/></svg>