<svg width="24" height="24" viewBox="0 0 24 24" xmlns="http://www.w3.org/2000/svg" fill="currentColor"><g clip-path="url(#clip0_1113_6693)"><path d="M12 9.47499C11.8667 9.47499 11.7377 9.44999 11.613 9.39999C11.4877 9.34999 11.3834 9.28332 11.3 9.19999L8.20005 6.09999C8.01672 5.91665 7.92505 5.68332 7.92505 5.39999C7.92505 5.11665 8.01672 4.88332 8.20005 4.69999C8.38338 4.51665 8.61671 4.42499 8.90005 4.42499C9.18338 4.42499 9.41672 4.51665 9.60005 4.69999L12 7.09999L14.4 4.69999C14.5834 4.51665 14.8167 4.42499 15.1 4.42499C15.3834 4.42499 15.6167 4.51665 15.8 4.69999C15.9834 4.88332 16.075 5.11665 16.075 5.39999C16.075 5.68332 15.9834 5.91665 15.8 6.09999L12.7 9.19999C12.6 9.29999 12.4917 9.37065 12.375 9.41199C12.2584 9.45399 12.1334 9.47499 12 9.47499ZM8.20005 19.3C8.01672 19.1167 7.92505 18.8833 7.92505 18.6C7.92505 18.3167 8.01672 18.0833 8.20005 17.9L11.3 14.8C11.4 14.7 11.5084 14.6293 11.625 14.588C11.7417 14.546 11.8667 14.525 12 14.525C12.1334 14.525 12.2627 14.546 12.388 14.588C12.5127 14.6293 12.6167 14.7 12.7 14.8L15.825 17.925C16.0084 18.1083 16.0957 18.3373 16.087 18.612C16.079 18.8873 15.9834 19.1167 15.8 19.3C15.6167 19.4833 15.3834 19.575 15.1 19.575C14.8167 19.575 14.5834 19.4833 14.4 19.3L12 16.9L9.60005 19.3C9.41672 19.4833 9.18338 19.575 8.90005 19.575C8.61671 19.575 8.38338 19.4833 8.20005 19.3Z"/></g><defs><clipPath id="clip0_1113_6693"><rect width="24" height="24"/></clipPath></defs></svg>