<svg width="24" height="24" viewBox="0 0 24 24" xmlns="http://www.w3.org/2000/svg" fill="currentColor"><g clip-path="url(#clip0_1113_6690)"><path d="M8.22495 8.32502C8.04162 8.14169 7.94995 7.90002 7.94995 7.60002C7.94995 7.30002 8.04162 7.05836 8.22495 6.87502L11.3 3.80002C11.4 3.70002 11.5083 3.62902 11.625 3.58702C11.7416 3.54569 11.8666 3.52502 12 3.52502C12.1333 3.52502 12.2626 3.54569 12.388 3.58702C12.5126 3.62902 12.6166 3.70002 12.7 3.80002L15.8 6.90002C15.9833 7.08336 16.0706 7.32069 16.062 7.61202C16.054 7.90402 15.9583 8.14169 15.775 8.32502C15.5916 8.50836 15.35 8.60002 15.05 8.60002C14.75 8.60002 14.5083 8.50836 14.325 8.32502L12 6.00002L9.64995 8.35002C9.46662 8.53336 9.22928 8.62102 8.93795 8.61302C8.64595 8.60436 8.40829 8.50836 8.22495 8.32502ZM12 20.575C11.8666 20.575 11.7416 20.55 11.625 20.5C11.5083 20.45 11.4 20.3834 11.3 20.3L8.22495 17.225C8.04162 17.0417 7.94995 16.8 7.94995 16.5C7.94995 16.2 8.04162 15.9584 8.22495 15.775C8.40829 15.5917 8.64995 15.5 8.94995 15.5C9.24995 15.5 9.49162 15.5917 9.67495 15.775L12 18.1L14.35 15.75C14.5333 15.5667 14.7706 15.4794 15.062 15.488C15.354 15.496 15.5916 15.5917 15.775 15.775C15.9583 15.9584 16.05 16.2 16.05 16.5C16.05 16.8 15.9583 17.0417 15.775 17.225L12.7 20.3C12.6166 20.3834 12.5126 20.45 12.388 20.5C12.2626 20.55 12.1333 20.575 12 20.575Z"/></g><defs><clipPath id="clip0_1113_6690"><rect width="24" height="24"/></clipPath></defs></svg>