<svg width="24" height="24" viewBox="0 0 24 24" xmlns="http://www.w3.org/2000/svg" fill="currentColor"><g clip-path="url(#clip0_1113_6681)"><path d="M6.69995 19.3L3.94995 18.7C3.69995 18.65 3.49995 18.5206 3.34995 18.312C3.19995 18.104 3.14162 17.875 3.17495 17.625L3.44995 14.8L1.57495 12.65C1.40828 12.4666 1.32495 12.25 1.32495 12C1.32495 11.75 1.40828 11.5333 1.57495 11.35L3.44995 9.19996L3.17495 6.37496C3.14162 6.12496 3.19995 5.89596 3.34995 5.68796C3.49995 5.4793 3.69995 5.34996 3.94995 5.29996L6.69995 4.69996L8.14995 2.24996C8.28328 2.0333 8.46662 1.89163 8.69995 1.82496C8.93328 1.7583 9.16662 1.76663 9.39995 1.84996L12 2.94996L14.6 1.84996C14.8333 1.76663 15.0666 1.7583 15.3 1.82496C15.5333 1.89163 15.7166 2.0333 15.85 2.24996L17.3 4.69996L20.0499 5.29996C20.2999 5.34996 20.5 5.4793 20.65 5.68796C20.8 5.89596 20.8583 6.12496 20.825 6.37496L20.5499 9.19996L22.4249 11.35C22.5916 11.5333 22.6749 11.75 22.6749 12C22.6749 12.25 22.5916 12.4666 22.4249 12.65L20.5499 14.8L20.825 17.625C20.8583 17.875 20.8 18.104 20.65 18.312C20.5 18.5206 20.2999 18.65 20.0499 18.7L17.3 19.3L15.85 21.75C15.7166 21.9666 15.5333 22.1083 15.3 22.175C15.0666 22.2416 14.8333 22.2333 14.6 22.15L12 21.05L9.39995 22.15C9.16662 22.2333 8.93328 22.2416 8.69995 22.175C8.46662 22.1083 8.28328 21.9666 8.14995 21.75L6.69995 19.3ZM10.25 14.85C10.4333 15.0333 10.6666 15.125 10.95 15.125C11.2333 15.125 11.4666 15.0333 11.65 14.85L15.9 10.6C16.1 10.4 16.2 10.1623 16.2 9.88696C16.2 9.6123 16.1 9.37496 15.9 9.17496C15.7 8.97496 15.4626 8.87496 15.188 8.87496C14.9126 8.87496 14.675 8.97496 14.475 9.17496L10.95 12.7L9.49995 11.275C9.29995 11.0916 9.06262 11.004 8.78795 11.012C8.51262 11.0206 8.28329 11.1166 8.09995 11.3C7.91662 11.4833 7.82495 11.7166 7.82495 12C7.82495 12.2833 7.91662 12.5166 8.09995 12.7L10.25 14.85Z"/></g><defs><clipPath id="clip0_1113_6681"><rect width="24" height="24"/></clipPath></defs></svg>