<svg width="24" height="24" viewBox="0 0 24 24" xmlns="http://www.w3.org/2000/svg" fill="currentColor"><g clip-path="url(#clip0_1113_6678)"><path d="M10.95 12.7L9.575 11.3C9.375 11.1 9.13767 11 8.863 11C8.58767 11 8.35 11.1 8.15 11.3C7.95 11.5 7.846 11.7374 7.838 12.012C7.82933 12.2874 7.925 12.525 8.125 12.725L10.25 14.85C10.45 15.05 10.6833 15.15 10.95 15.15C11.2167 15.15 11.45 15.05 11.65 14.85L15.9 10.6C16.1 10.4 16.2 10.1624 16.2 9.88702C16.2 9.61236 16.1 9.37502 15.9 9.17502C15.7 8.97502 15.4627 8.87502 15.188 8.87502C14.9127 8.87502 14.675 8.97502 14.475 9.17502L10.95 12.7ZM12 21.925H11.75C11.6667 21.925 11.5917 21.9084 11.525 21.875C9.34167 21.1917 7.54167 19.8374 6.125 17.812C4.70833 15.7874 4 13.55 4 11.1V6.37502C4 5.95836 4.121 5.58336 4.363 5.25002C4.60433 4.91669 4.91667 4.67502 5.3 4.52502L11.3 2.27502C11.5333 2.19169 11.7667 2.15002 12 2.15002C12.2333 2.15002 12.4667 2.19169 12.7 2.27502L18.7 4.52502C19.0833 4.67502 19.396 4.91669 19.638 5.25002C19.8793 5.58336 20 5.95836 20 6.37502V11.1C20 13.55 19.2917 15.7874 17.875 17.812C16.4583 19.8374 14.6583 21.1917 12.475 21.875C12.3917 21.9084 12.2333 21.925 12 21.925Z"/></g><defs><clipPath id="clip0_1113_6678"><rect width="24" height="24"/></clipPath></defs></svg>