<svg width="24" height="24" viewBox="0 0 24 24" xmlns="http://www.w3.org/2000/svg" fill="currentColor"><g clip-path="url(#clip0_1113_6675)"><path d="M7 18C5.33333 18 3.91667 17.4167 2.75 16.25C1.58333 15.0833 1 13.6667 1 12C1 10.3333 1.58333 8.91667 2.75 7.75C3.91667 6.58333 5.33333 6 7 6C8.35 6 9.52933 6.379 10.538 7.137C11.546 7.89567 12.25 8.85 12.65 10H21C21.55 10 22.021 10.1957 22.413 10.587C22.8043 10.979 23 11.45 23 12C23 12.6 22.7917 13.0833 22.375 13.45C21.9583 13.8167 21.5 14 21 14V16C21 16.55 20.8043 17.021 20.413 17.413C20.021 17.8043 19.55 18 19 18C18.45 18 17.979 17.8043 17.587 17.413C17.1957 17.021 17 16.55 17 16V14H12.65C12.25 15.15 11.546 16.1043 10.538 16.863C9.52933 17.621 8.35 18 7 18ZM7 14C7.55 14 8.02067 13.804 8.412 13.412C8.804 13.0207 9 12.55 9 12C9 11.45 8.804 10.979 8.412 10.587C8.02067 10.1957 7.55 10 7 10C6.45 10 5.97933 10.1957 5.588 10.587C5.196 10.979 5 11.45 5 12C5 12.55 5.196 13.0207 5.588 13.412C5.97933 13.804 6.45 14 7 14Z"/></g><defs><clipPath id="clip0_1113_6675"><rect width="24" height="24"/></clipPath></defs></svg>