<svg width="24" height="24" viewBox="0 0 24 24" xmlns="http://www.w3.org/2000/svg" fill="currentColor"><g clip-path="url(#clip0_1113_6672)"><path d="M6 20C4.9 20 3.95833 19.6083 3.175 18.825C2.39167 18.0417 2 17.1 2 16V8C2 6.9 2.39167 5.95833 3.175 5.175C3.95833 4.39167 4.9 4 6 4H18C19.1 4 20.0417 4.39167 20.825 5.175C21.6083 5.95833 22 6.9 22 8V16C22 17.1 21.6083 18.0417 20.825 18.825C20.0417 19.6083 19.1 20 18 20H6ZM6 8H18C18.3667 8 18.7167 8.04167 19.05 8.125C19.3833 8.20833 19.7 8.34167 20 8.525V8C20 7.45 19.8043 6.97933 19.413 6.588C19.021 6.196 18.55 6 18 6H6C5.45 6 4.97933 6.196 4.588 6.588C4.196 6.97933 4 7.45 4 8V8.525C4.3 8.34167 4.61667 8.20833 4.95 8.125C5.28333 8.04167 5.63333 8 6 8ZM4.15 11.25L15.275 13.95C15.425 13.9833 15.575 13.9833 15.725 13.95C15.875 13.9167 16.0167 13.85 16.15 13.75L19.625 10.85C19.4417 10.6 19.2083 10.396 18.925 10.238C18.6417 10.0793 18.3333 10 18 10H6C5.56667 10 5.18767 10.1123 4.863 10.337C4.53767 10.5623 4.3 10.8667 4.15 11.25Z"/></g><defs><clipPath id="clip0_1113_6672"><rect width="24" height="24"/></clipPath></defs></svg>