<!-- Generated by IcoMoon.io -->
<svg version="1.1" xmlns="http://www.w3.org/2000/svg" width="512" height="512" viewBox="0 0 512 512">
<title></title>
<g id="icomoon-ignore">
</g>
<path d="M256 32c-16.375 0-30.404 9.87-36.346 23.93l-213.731 364.647c-3.857 6.147-5.909 13.232-5.923 20.467 0 21.517 17.633 38.957 39.385 38.957 0.924-0.007 1.847-0.045 2.77-0.115l0.077 0.115 427.615-0.154c0.922 0.083 1.843 0.135 2.768 0.154 21.754 0 39.385-17.44 39.385-38.957-0.007-7.248-2.058-14.349-5.923-20.505l-0.307-0.531c-0.012-0.012-0.026-0.026-0.038-0.038l-213.385-364.038c-5.942-14.059-19.971-23.93-36.346-23.93zM232.115 194.826h47.769l-3.961 126.076h-39.846l-3.961-126.076zM256.076 359.44c16.187 0 25.885 8.615 25.885 23.322 0 14.432-9.697 23.014-25.885 23.014-16.305 0-26.077-8.582-26.077-23.014 0-14.707 9.752-23.322 26.077-23.322z"></path>
</svg>
