<svg width="24" height="24" viewBox="0 0 24 24" xmlns="http://www.w3.org/2000/svg" fill="currentColor"><g clip-path="url(#clip0_1113_6666)"><path d="M4 9C3.71667 9 3.47933 8.904 3.288 8.712C3.096 8.52067 3 8.28333 3 8V4C3 3.71667 3.096 3.479 3.288 3.287C3.47933 3.09567 3.71667 3 4 3H8C8.28333 3 8.521 3.09567 8.713 3.287C8.90433 3.479 9 3.71667 9 4C9 4.28333 8.90433 4.52067 8.713 4.712C8.521 4.904 8.28333 5 8 5H6.4L8.825 7.425C9.00833 7.60833 9.1 7.83333 9.1 8.1C9.1 8.36667 9 8.6 8.8 8.8C8.61667 8.98333 8.38333 9.075 8.1 9.075C7.81667 9.075 7.58333 8.98333 7.4 8.8L5 6.4V8C5 8.28333 4.90433 8.52067 4.713 8.712C4.521 8.904 4.28333 9 4 9ZM15.2 8.8C15.0167 8.61667 14.925 8.38333 14.925 8.1C14.925 7.81667 15.0167 7.58333 15.2 7.4L17.6 5H16C15.7167 5 15.4793 4.904 15.288 4.712C15.096 4.52067 15 4.28333 15 4C15 3.71667 15.096 3.479 15.288 3.287C15.4793 3.09567 15.7167 3 16 3H20C20.2833 3 20.5207 3.09567 20.712 3.287C20.904 3.479 21 3.71667 21 4V8C21 8.28333 20.904 8.52067 20.712 8.712C20.5207 8.904 20.2833 9 20 9C19.7167 9 19.4793 8.904 19.288 8.712C19.096 8.52067 19 8.28333 19 8V6.4L16.575 8.825C16.3917 9.00833 16.1667 9.1 15.9 9.1C15.6333 9.1 15.4 9 15.2 8.8ZM16 21C15.7167 21 15.4793 20.904 15.288 20.712C15.096 20.5207 15 20.2833 15 20C15 19.7167 15.096 19.4793 15.288 19.288C15.4793 19.096 15.7167 19 16 19H17.6L15.175 16.575C14.9917 16.3917 14.9 16.1667 14.9 15.9C14.9 15.6333 15 15.4 15.2 15.2C15.3833 15.0167 15.6167 14.925 15.9 14.925C16.1833 14.925 16.4167 15.0167 16.6 15.2L19 17.6V16C19 15.7167 19.096 15.479 19.288 15.287C19.4793 15.0957 19.7167 15 20 15C20.2833 15 20.5207 15.0957 20.712 15.287C20.904 15.479 21 15.7167 21 16V20C21 20.2833 20.904 20.5207 20.712 20.712C20.5207 20.904 20.2833 21 20 21H16ZM4 21C3.71667 21 3.47933 20.904 3.288 20.712C3.096 20.5207 3 20.2833 3 20V16C3 15.7167 3.096 15.479 3.288 15.287C3.47933 15.0957 3.71667 15 4 15C4.28333 15 4.521 15.0957 4.713 15.287C4.90433 15.479 5 15.7167 5 16V17.6L7.425 15.175C7.60833 14.9917 7.83333 14.9 8.1 14.9C8.36667 14.9 8.6 15 8.8 15.2C8.98333 15.3833 9.075 15.6167 9.075 15.9C9.075 16.1833 8.98333 16.4167 8.8 16.6L6.4 19H8C8.28333 19 8.521 19.096 8.713 19.288C8.90433 19.4793 9 19.7167 9 20C9 20.2833 8.90433 20.5207 8.713 20.712C8.521 20.904 8.28333 21 8 21H4Z"/></g><defs><clipPath id="clip0_1113_6666"><rect width="24" height="24"/></clipPath></defs></svg>