<svg width="24" height="21" viewBox="0 0 24 21" xmlns="http://www.w3.org/2000/svg"><style>path{fill:#ffffff;}@media(prefers-color-scheme:light){path{fill:#000000;}}</style><path d="M20.6126 2.65734L17.7228 4.12967L3.76815 11.2375C3.72096 10.8776 3.69722 10.515 3.69707 10.152C3.69898 8.70373 4.07922 7.28108 4.80012 6.02498C5.52103 4.76887 6.55758 3.7229 7.80712 2.99066C9.05665 2.25843 10.4758 1.86533 11.924 1.85033C13.3722 1.83532 14.7992 2.19891 16.0636 2.9051L17.7177 2.06231L17.9645 1.93641C16.4492 0.836614 14.6594 0.177186 12.7928 0.0310013C10.9262 -0.115183 9.05555 0.257569 7.38756 1.10806C5.71957 1.95855 4.31921 3.25366 3.34125 4.85026C2.36329 6.44685 1.8458 8.28275 1.846 10.1551C1.846 10.4136 1.85581 10.6712 1.87544 10.9278C1.90294 11.2911 1.82236 11.6544 1.64385 11.9721C1.46534 12.2897 1.19687 12.5474 0.872229 12.7128L0 13.1576V15.2321L2.56795 13.9232L3.39956 13.4988L4.21899 13.0814L18.9301 5.58575L20.5832 4.74399L24 3.00258V0.929128L20.6126 2.65734ZM24 5.07805L5.05466 14.7244L3.40159 15.5682L0 17.3014V19.3739L3.37824 17.6528L6.26807 16.1804L20.2369 9.06248C20.2841 9.42476 20.3079 9.78971 20.308 10.1551C20.3071 11.605 19.927 13.0295 19.2054 14.2871C18.4838 15.5448 17.4458 16.5918 16.1944 17.3243C14.9431 18.0567 13.5219 18.4492 12.0721 18.4626C10.6222 18.4761 9.19397 18.1101 7.92926 17.401L7.82772 17.4548L6.03452 18.3686C7.54942 19.4685 9.33888 20.1281 11.2052 20.2746C13.0715 20.4211 14.942 20.0489 16.6099 19.199C18.2779 18.3491 19.6785 17.0546 20.6569 15.4586C21.6353 13.8625 22.1534 12.0271 22.154 10.1551C22.154 9.8941 22.1438 9.63314 22.1246 9.37523C22.0971 9.01204 22.1776 8.64883 22.3559 8.33124C22.5342 8.01364 22.8024 7.75582 23.1268 7.59015L24 7.14541V5.07805Z"/></svg>
