<!-- Generated by IcoMoon.io -->
<svg version="1.1" xmlns="http://www.w3.org/2000/svg" width="1024" height="1024" viewBox="0 0 1024 1024">
<title></title>
<g id="icomoon-ignore">
</g>
<path d="M203.998 117.334c-71.66 0-130.666 59.006-130.666 130.666v616c0 71.66 59.006 130.666 130.666 130.666h616c71.66 0 130.668-59.006 130.668-130.666v-616c0-71.66-59.008-130.666-130.668-130.666zM203.998 202.666h616c25.536 0 45.334 19.798 45.334 45.334v616c0 25.536-19.798 45.334-45.334 45.334h-616c-25.536 0-45.332-19.798-45.332-45.334v-616c0-25.536 19.796-45.334 45.332-45.334z"></path>
<path d="M687.357 28.73c-23.288 0.362-42.028 19.326-42.028 42.666 0 0.211 0.002 0.423 0.005 0.633v-0.032 176c-0.003 0.192-0.005 0.419-0.005 0.646 0 23.566 19.104 42.671 42.671 42.671s42.671-19.104 42.671-42.671c0-0.227-0.002-0.454-0.005-0.681v0.034-176c0.003-0.179 0.004-0.39 0.004-0.601 0-23.566-19.104-42.671-42.671-42.671-0.226 0-0.451 0.002-0.676 0.005h0.034z"></path>
<path d="M335.357 28.73c-23.288 0.362-42.028 19.326-42.028 42.666 0 0.211 0.002 0.423 0.005 0.633v-0.032 176c-0.003 0.192-0.005 0.419-0.005 0.646 0 23.566 19.104 42.671 42.671 42.671s42.671-19.104 42.671-42.671c0-0.227-0.002-0.454-0.005-0.681v0.034-176c0.003-0.179 0.004-0.39 0.004-0.601 0-23.566-19.104-42.671-42.671-42.671-0.226 0-0.451 0.002-0.676 0.005h0.034z"></path>
<path d="M116 381.334c-0.192-0.003-0.419-0.005-0.646-0.005-23.566 0-42.671 19.104-42.671 42.671s19.104 42.671 42.671 42.671c0.227 0 0.454-0.002 0.681-0.005h791.966c0.192 0.003 0.419 0.005 0.646 0.005 23.566 0 42.671-19.104 42.671-42.671s-19.104-42.671-42.671-42.671c-0.227 0-0.454 0.002-0.681 0.005h0.034z"></path>
</svg>
