<svg width="24" height="24" viewBox="0 0 24 24" fill="none" xmlns="http://www.w3.org/2000/svg"><g clip-path="url(#clip0_2079_573)"><path d="M8.8086 14.9194L14.9193 3.8826C15.003 3.7313 15.0875 3.5806 15.163 3.4242C15.2315 3.2822 15.2897 3.1388 15.3276 2.9839C15.4079 2.658 15.3864 2.3183 15.2616 2.0072C15.1378 1.6977 14.9199 1.4394 14.6415 1.2717C14.3654 1.10458 14.0405 1.0367 13.7205 1.0793C13.3998 1.1223 13.107 1.2728 12.8762 1.5081C12.7668 1.6199 12.6766 1.7442 12.593 1.8771C12.501 2.0234 12.418 2.175 12.334 2.3263L11.9476 3.0242L11.5611 2.3263C11.4774 2.1748 11.3944 2.0233 11.3024 1.8771C11.2187 1.7442 11.1285 1.6199 11.0189 1.5081C10.7884 1.2728 10.4956 1.1224 10.1749 1.0791C9.85493 1.03661 9.53003 1.10455 9.2539 1.2717C8.9755 1.4394 8.7575 1.6977 8.6336 2.0072C8.509 2.3182 8.4875 2.658 8.5676 2.9839C8.6056 3.1389 8.6638 3.2823 8.7324 3.4242C8.8077 3.5806 8.8922 3.7312 8.9761 3.8826L10.2241 6.1369L5.3616 14.9194H2.0295C1.8619 14.9194 1.6944 14.9187 1.5269 14.9286C1.3747 14.9376 1.2265 14.957 1.0789 15C0.7681 15.0906 0.4967 15.2798 0.3006 15.548C0.1056 15.8145 0 16.1409 0 16.4759C0 16.8111 0.1057 17.1371 0.3006 17.4036C0.4966 17.6719 0.7681 17.8611 1.0788 17.9516C1.2265 17.9946 1.3748 18.0139 1.5269 18.0231C1.6944 18.0331 1.8619 18.0321 2.0295 18.0321H15.1269C15.144 17.9964 15.1859 17.9027 15.2269 17.7624C15.6419 16.3473 14.6113 14.9194 13.1922 14.9194H8.8086ZM3.113 18.5418L2.3208 20.0426C2.239 20.1979 2.1564 20.3526 2.0824 20.5131C2.0154 20.6589 1.9584 20.8061 1.9213 20.9651C1.8428 21.2997 1.8637 21.6485 1.9858 21.968C2.107 22.2855 2.3204 22.551 2.5928 22.7229C2.8655 22.8949 3.1819 22.9645 3.4941 22.9204C3.808 22.8764 4.0946 22.7218 4.3204 22.4802C4.4276 22.3654 4.5158 22.2378 4.5976 22.1015C4.6878 21.9512 4.769 21.7956 4.8511 21.6403L6 19.4636C5.9104 19.3146 5.0527 17.9932 3.113 18.5418ZM23.6991 15.5362C23.5063 15.2749 23.2323 15.0848 22.9201 14.9955C22.7725 14.953 22.624 14.9339 22.4718 14.925C22.304 14.9151 22.1366 14.9159 21.9688 14.9159H18.648L14.2589 7.0989C13.5934 7.7994 13.2957 8.5839 13.1816 9.2965C13.0161 10.3298 13.2183 11.3899 13.7276 12.2969L19.0017 21.6902C19.0857 21.8396 19.1687 21.9892 19.2608 22.1337C19.3445 22.2647 19.4347 22.3874 19.5444 22.4977C19.7754 22.73 20.0682 22.8786 20.3893 22.9209C20.7085 22.9633 21.0323 22.8965 21.311 22.731C21.5894 22.5657 21.8078 22.3106 21.932 22.0053C22.0566 21.6981 22.078 21.3628 21.9978 21.0412C21.9597 20.8883 21.9016 20.7467 21.8328 20.6066C21.7575 20.4523 21.673 20.3036 21.589 20.1542L20.373 17.988H21.969C22.1367 17.988 22.3041 17.9889 22.4719 17.979C22.6241 17.97 22.7726 17.951 22.9202 17.9085C23.2324 17.8192 23.5064 17.6291 23.6992 17.3678C23.895 17.1026 24.0004 16.7816 24 16.452C24.0004 16.1224 23.8949 15.8014 23.6991 15.5362Z" fill="var(--sds-logo-fill, #8F8F8F)"/></g><defs><clipPath id="clip0_2079_573"><rect width="24" height="24" fill="white"/></clipPath></defs></svg>