<svg width="24" height="24" viewBox="0 0 24 24" fill="none" xmlns="http://www.w3.org/2000/svg"><g clip-path="url(#clip0_2079_929)"><path d="M20.317 4.36979C18.761 3.65555 17.119 3.14623 15.4319 2.85459C15.4166 2.85173 15.4007 2.85378 15.3867 2.86044C15.3726 2.8671 15.3609 2.87803 15.3534 2.89169C15.1424 3.26699 14.9087 3.75649 14.7451 4.14119C12.9004 3.86499 11.0651 3.86499 9.2583 4.14119C9.0947 3.74789 8.8525 3.26699 8.6406 2.89169C8.63276 2.87835 8.62107 2.86768 8.60706 2.86108C8.59306 2.85448 8.57739 2.85225 8.5621 2.85469C6.87488 3.14566 5.2327 3.65493 3.6769 4.36969C3.66359 4.37538 3.65238 4.38506 3.6448 4.39739C0.533404 9.04579 -0.318996 13.5799 0.099204 18.0578C0.100386 18.0688 0.103757 18.0794 0.109116 18.089C0.114476 18.0986 0.121714 18.1071 0.130404 18.1139C2.1832 19.6215 4.1717 20.5367 6.1233 21.1433C6.13848 21.1478 6.15468 21.1476 6.16972 21.1427C6.18477 21.1377 6.19795 21.1283 6.2075 21.1157C6.6691 20.4853 7.0806 19.8205 7.4335 19.1215C7.43835 19.1119 7.44112 19.1014 7.44163 19.0907C7.44213 19.08 7.44036 19.0693 7.43643 19.0593C7.4325 19.0493 7.4265 19.0403 7.41883 19.0328C7.41115 19.0253 7.40198 19.0195 7.3919 19.0158C6.7391 18.7682 6.1176 18.4663 5.5197 18.1235C5.5088 18.1171 5.49964 18.1081 5.49304 18.0973C5.48643 18.0865 5.48258 18.0743 5.48183 18.0617C5.48108 18.049 5.48345 18.0364 5.48873 18.0249C5.49401 18.0135 5.50204 18.0034 5.5121 17.9958C5.6379 17.9015 5.7638 17.8035 5.8839 17.7044C5.89458 17.6956 5.9075 17.6899 5.92121 17.6881C5.93492 17.6862 5.94887 17.6882 5.9615 17.6939C9.8893 19.4872 14.1415 19.4872 18.0229 17.6939C18.0355 17.6879 18.0496 17.6856 18.0635 17.6873C18.0774 17.6889 18.0906 17.6945 18.1014 17.7034C18.2216 17.8024 18.3474 17.9015 18.4742 17.9958C18.4843 18.0034 18.4924 18.0133 18.4977 18.0247C18.5031 18.0362 18.5055 18.0487 18.5049 18.0613C18.5042 18.074 18.5005 18.0862 18.494 18.097C18.4875 18.1078 18.4784 18.1169 18.4676 18.1234C17.8695 18.4727 17.2429 18.7709 16.5946 19.0148C16.5845 19.0186 16.5754 19.0246 16.5678 19.0322C16.5602 19.0398 16.5542 19.049 16.5504 19.059C16.5466 19.0691 16.5449 19.0799 16.5455 19.0906C16.5461 19.1014 16.549 19.1119 16.5539 19.1215C16.9143 19.8195 17.3258 20.4843 17.7789 21.1147C17.7882 21.1277 17.8013 21.1375 17.8164 21.1426C17.8315 21.1477 17.8478 21.148 17.8631 21.1433C19.8241 20.5366 21.8126 19.6214 23.8654 18.1139C23.8742 18.1074 23.8816 18.0992 23.887 18.0897C23.8924 18.0801 23.8957 18.0696 23.8967 18.0587C24.3971 12.8817 23.0585 8.38479 20.3482 4.39829C20.3416 4.38534 20.3305 4.37529 20.317 4.36979ZM8.02 15.3312C6.8375 15.3312 5.8631 14.2455 5.8631 12.9122C5.8631 11.579 6.8186 10.4933 8.0201 10.4933C9.2309 10.4933 10.1958 11.5885 10.1769 12.9123C10.1769 14.2455 9.2214 15.3312 8.02 15.3312ZM15.9948 15.3312C14.8123 15.3312 13.8379 14.2455 13.8379 12.9122C13.8379 11.579 14.7933 10.4933 15.9948 10.4933C17.2056 10.4933 18.1705 11.5885 18.1516 12.9123C18.1516 14.2455 17.2056 15.3312 15.9948 15.3312Z" fill="var(--sds-logo-fill, #8F8F8F)"/></g><defs><clipPath id="clip0_2079_929"><rect width="24" height="24" fill="white"/></clipPath></defs></svg>