<svg xmlns="http://www.w3.org/2000/svg" width="18" height="24"><g clip-path="url(#a)"><path fill="#6969F2" d="M16.033 17.287a14.682 14.682 0 0 0-1.43-1.149 6.134 6.134 0 0 0-4.365-4.145v-2.82h2.567V6.198h-2.567V5.067h4.081V2.092h-4.081V0H7.254v11.993a6.08 6.08 0 0 0-1.039.364 14.652 14.652 0 0 0-1.692-.294c-2.488-.271-3.353.424-3.64 1.054-.289.631-.246 1.738 1.592 3.43.083.077.17.154.257.23-.068.364-.105.74-.105 1.124C2.627 21.264 5.372 24 8.746 24c1.93 0 3.653-.895 4.775-2.29.158.023.313.044.464.06a9.4 9.4 0 0 0 1.03.061c1.707 0 2.366-.58 2.61-1.115.289-.63.246-1.738-1.592-3.43Zm-7.287-2.51a3.133 3.133 0 0 1 3.134 3.125 3.11 3.11 0 0 1-.96 2.247 25.115 25.115 0 0 1-2.67-1.036 24.885 24.885 0 0 1-2.633-1.384 3.134 3.134 0 0 1 3.129-2.952Zm-7.03-1.28c.165-.361.798-.577 1.79-.577.443 0 .96.044 1.537.136a6.12 6.12 0 0 0-2.037 2.735c-1.01-.953-1.503-1.827-1.29-2.295Zm7.03 7.528a3.138 3.138 0 0 1-2.977-2.147 26.708 26.708 0 0 0 4.18 1.908c-.37.154-.777.24-1.203.24Zm8.045-.688c-.219.481-1.253.682-2.697.526a6.045 6.045 0 0 0 .756-3.39c.199.161.386.323.562.485 1.07.986 1.6 1.898 1.38 2.38Z"/></g><defs><clipPath id="a"><path d="M.75 0h17v24h-17z"/></clipPath></defs></svg>
