<svg width="24" height="24" viewBox="0 0 24 24" fill="none" xmlns="http://www.w3.org/2000/svg"><path d="M22.018 13.2981L18.099 15.5161L14.584 12.0231L18.127 8.50206L22.018 10.7041C22.2476 10.8339 22.4387 11.0224 22.5716 11.2503C22.7045 11.4782 22.7746 11.7372 22.7746 12.0011C22.7746 12.2649 22.7045 12.524 22.5716 12.7518C22.4387 12.9797 22.2476 13.1682 22.018 13.2981ZM1.337 0.924058C1.26279 1.10422 1.22473 1.29721 1.225 1.49206V22.5091C1.225 22.7261 1.27 22.9281 1.349 23.1091L12.504 12.0221L1.337 0.924058ZM13.544 10.9891L16.802 7.75106L3.45 0.195058C3.16381 0.0305939 2.83049 -0.0324757 2.504 0.0160585L13.544 10.9891ZM13.544 13.0561L2.544 23.9891C2.842 24.0251 3.156 23.9731 3.45 23.8061L16.774 16.2661L13.544 13.0561Z" fill="var(--sds-logo-fill, #8F8F8F)"/></svg>