<svg width="24" height="24" viewBox="0 0 24 24" fill="none" xmlns="http://www.w3.org/2000/svg"><g clip-path="url(#clip0_2079_612)"><path d="M13.54 12.0001C13.5453 13.8018 12.8354 15.532 11.566 16.8107C10.2967 18.0894 8.57177 18.8121 6.77003 18.8201C4.96829 18.8121 3.24335 18.0894 1.97402 16.8107C0.704678 15.532 -0.00528713 13.8018 2.96483e-05 12.0001C-0.00528713 10.1983 0.704678 8.4681 1.97402 7.18938C3.24335 5.91067 4.96829 5.18799 6.77003 5.18005C8.57177 5.18799 10.2967 5.91067 11.566 7.18938C12.8354 8.4681 13.5453 10.1983 13.54 12.0001ZM20.96 12.0001C20.96 15.5401 19.45 18.4201 17.58 18.4201C15.71 18.4201 14.19 15.5401 14.19 12.0001C14.19 8.46005 15.71 5.58005 17.58 5.58005C19.45 5.58005 20.96 8.46005 20.96 12.0001ZM24 12.0001C24 15.1701 23.47 17.7501 22.81 17.7501C22.15 17.7501 21.62 15.1701 21.62 12.0001C21.62 8.83005 22.15 6.25005 22.81 6.25005C23.47 6.25005 24 8.83005 24 12.0001Z" fill="var(--sds-logo-fill, #8F8F8F)"/></g><defs><clipPath id="clip0_2079_612"><rect width="24" height="24" fill="white"/></clipPath></defs></svg>