<svg xmlns="http://www.w3.org/2000/svg" width="128" height="32" viewBox="0 0 128 32" fill="currentColor"><g clip-path="url(#a)"><path d="M18.687 0a15.749 15.749 0 0 1 9.1 2.883l-.198.102-2.533 1.292a13.102 13.102 0 0 0-6.37-1.642h-.102c-1.72.017-3.398.359-4.982 1.018a13.174 13.174 0 0 0-4.22 2.83 13.087 13.087 0 0 0-3.852 9.299c0 .573.034 1.146.111 1.72l.026.179.162-.086L37.356 1.523v2.96l-5.281 2.694-2.594 1.317L6.43 20.256l-.103.06-2.38 1.206v-.009l-.111.051L0 23.524v-2.96l1.301-.66a3.02 3.02 0 0 0 1.644-2.925 18.92 18.92 0 0 1-.043-1.206A15.76 15.76 0 0 1 7.524 4.602a15.742 15.742 0 0 1 5.017-3.387A16.169 16.169 0 0 1 18.687 0Zm37.04 5.055c3.809.009 7.224 1.703 8.046 5.791H60.88c-.728-2.455-3.125-3.276-5.265-3.276-1.635 0-4.502.727-4.502 3.097 0 1.873 1.49 2.805 3.45 3.242l2.456.556c3.245.701 7.13 1.924 7.13 6.193 0 4.148-3.86 6.338-8.071 6.338-5 0-8.158-2.72-8.715-6.954h2.928c.556 2.925 2.602 4.44 5.847 4.44 3.124 0 4.939-1.49 4.939-3.568 0-2.224-1.9-3.156-4.563-3.738l-2.628-.556c-2.893-.641-5.82-2.25-5.82-5.782 0-4.03 4.236-5.783 7.66-5.783ZM71.785 26.62c-3.013 0-3.715-.676-3.715-3.944v-9.64h-2.482v-2.13h2.482V6.963h2.663v3.943h2.978v2.13h-2.978v9.315c0 1.634.12 2.045 1.635 2.045h1.344v2.224h-1.927Z"/><path d="M87.014 22.069c-.676 1.548-1.96 2.6-4.297 2.6-2.337 0-4.734-1.642-4.862-5.03h12.104c.35-4.97-2.543-8.998-7.336-8.998-4.298 0-7.627 3.182-7.627 8.152 0 4.645 2.747 8.212 7.72 8.212 3.827 0 6.318-2.216 7.046-4.936h-2.748Zm-4.383-9.144c2.808 0 4.469 2.215 4.528 4.44h-9.262c.231-3.157 2.363-4.44 4.734-4.44Zm20.913 9.546c-.009-3.704 4.168-4.79 10.631-5.517v-.377c0-2.865-1.609-3.823-3.569-3.823-2.192 0-3.476 1.197-3.596 3.122h-2.747c.265-3.387 3.244-5.286 6.317-5.286 4.323 0 6.283 2.07 6.258 6.483l-.026 3.619c-.026 2.626.12 4.44.411 5.928h-2.688a18.313 18.313 0 0 1-.206-2.165c-.967 1.609-2.602 2.541-5.375 2.541-2.954 0-5.41-1.634-5.41-4.525Zm2.944-.051c0 1.488 1.139 2.48 3.039 2.48 2.483 0 4.854-1.137 4.854-4.85v-.992c-4.828.496-7.893 1.198-7.893 3.362Z" clip-rule="evenodd"/><path d="M122.83 18.39c0-3.446 1.224-4.824 3.681-4.824.344 0 .726.038 1.146.079l.343.033v-2.832c-.291-.025-.522-.025-.788-.025-2.045.06-3.655 1.052-4.442 2.831v-2.746h-2.603v15.722h2.663v-8.237Zm-86.766-6.33 1.301-.658v-2.96L7.858 23.48l-2.593 1.318L0 27.484v2.96l31.527-16.04.163-.085.025.18c.077.573.112 1.155.112 1.728 0 3.507-1.37 6.817-3.852 9.298a13.173 13.173 0 0 1-4.22 2.831 12.939 12.939 0 0 1-4.983 1.018h-.094a13.15 13.15 0 0 1-6.386-1.65l-.102.05-2.62 1.335c.925.65 1.918 1.206 2.962 1.65A15.748 15.748 0 0 0 18.678 32a15.717 15.717 0 0 0 11.163-4.628 15.76 15.76 0 0 0 4.623-11.171c0-.402-.01-.813-.044-1.215a3.02 3.02 0 0 1 1.644-2.925Zm56.42 14.56V5.44h2.662v21.18h-2.662Zm5.932-21.18v21.18h2.662V5.44h-2.662Z"/></g><defs><clipPath id="a"><path fill="#fff" d="M0 0h128v32H0z"/></clipPath></defs></svg>
