<svg xmlns="http://www.w3.org/2000/svg" width="96" height="24" fill="currentColor"><g clip-path="url(#a)"><path d="M28.366 6.002v2.443l-1.032.526a2.184 2.184 0 0 0-1.185 2.11A12.001 12.001 0 0 1 7.132 21.71l2.12-1.08.12-.064a9.825 9.825 0 0 0 14.546-9.856L0 22.898V20.45L28.366 6.002ZM82.75 7.66c3.519 0 5.01 1.606 4.986 5.172l-.022 2.89c-.025 2.117.07 3.538.325 4.73h-2.144a13.77 13.77 0 0 1-.163-1.724c-.768 1.307-2.05 2.027-4.287 2.027-2.353 0-4.31-1.305-4.31-3.612 0-2.964 3.355-3.844 8.48-4.404v-.303c0-2.307-1.257-3.052-2.842-3.052-1.77 0-2.773.933-2.866 2.493h-2.19c.186-2.703 2.61-4.217 5.033-4.217Zm-20.659.043c3.844 0 6.105 3.192 5.848 7.176h-9.646c.07 2.703 2.027 4.008 3.868 4.008 1.865 0 2.89-.84 3.425-2.074h2.19c-.56 2.145-2.562 3.939-5.615 3.939-3.962 0-6.152-2.843-6.152-6.548 0-3.981 2.657-6.501 6.082-6.501ZM42.085 3.252c3.049 0 5.732 1.373 6.409 4.614h-2.308c-.56-1.934-2.514-2.61-4.194-2.61-1.308 0-3.589.583-3.589 2.47 0 1.492 1.17 2.236 2.76 2.587l1.952.443c2.587.559 5.686 1.538 5.686 4.94 0 3.285-3.071 5.057-6.431 5.057-3.985 0-6.501-2.186-6.944-5.546h2.335c.443 2.33 2.027 3.541 4.66 3.541 2.517 0 3.938-1.162 3.938-2.843 0-1.794-1.515-2.492-3.635-2.982l-2.106-.443c-2.331-.512-4.638-1.818-4.638-4.614 0-3.238 3.379-4.614 6.105-4.614Zm11.27 1.515v3.146h2.376v1.701h-2.377v7.434c0 1.304.093 1.63 1.305 1.63h1.072v1.771h-1.538c-2.4 0-2.96-.535-2.96-3.146V9.614h-1.98V7.913h1.98V4.767h2.121ZM95.37 7.843c.21-.003.42.005.629.023v2.266a7.612 7.612 0 0 0-1.188-.094c-1.957 0-2.937 1.044-2.937 3.84v6.571h-2.12V7.913h2.075v2.19c.629-1.42 1.886-2.19 3.541-2.26ZM71.488 3.546V20.45h-2.12V3.546h2.12Zm4.24 0V20.45h-2.12V3.546h2.12ZM85.78 14.417c-3.845.373-6.291.956-6.291 2.68 0 1.19.908 1.981 2.423 1.981 1.981 0 3.868-.91 3.868-3.867v-.794ZM8.73 1.31a12 12 0 0 1 12.501.979l-2.246 1.145a9.825 9.825 0 0 0-14.532 9.848L28.366 1.098v2.45L0 18.004v-2.452l1.03-.525a2.183 2.183 0 0 0 1.187-2.11A12.001 12.001 0 0 1 8.732 1.31Zm53.361 8.21c-1.865 0-3.588 1.022-3.775 3.542h7.386c-.07-1.77-1.35-3.541-3.61-3.541Z"/></g><defs><clipPath id="a"><path d="M0 0h96v24H0z"/></clipPath></defs></svg>
