<svg width="24" height="24" viewBox="0 0 24 24" fill="var(--sds-logo-fill, #8F8F8F)" xmlns="http://www.w3.org/2000/svg"><path d="M12.283 1.85099C10.9262 1.81316 9.57556 2.04775 8.31097 2.54088C7.04637 3.03401 5.89349 3.77568 4.92046 4.72205C3.94744 5.66841 3.17403 6.80025 2.64596 8.05065C2.11789 9.30106 1.84587 10.6446 1.846 12.002C1.846 12.261 1.856 12.518 1.876 12.775C1.90341 13.1384 1.82271 13.5018 1.64406 13.8194C1.4654 14.137 1.19678 14.3947 0.872 14.56L0 15.005V17.079L2.568 15.77L3.4 15.346L4.22 14.929L18.93 7.43299L20.583 6.59099L24 4.84999V2.77599L20.613 4.50399L17.723 5.97699L3.768 13.085C3.72115 12.7249 3.69777 12.3621 3.698 11.999C3.69992 10.5508 4.08015 9.12819 4.80101 7.87214C5.52187 6.61609 6.55837 5.57014 7.80782 4.8379C9.05728 4.10567 10.4764 3.71255 11.9245 3.69748C13.3726 3.68241 14.7996 4.04591 16.064 4.75199L17.718 3.90899L17.965 3.78299C16.3089 2.5812 14.3284 1.90777 12.283 1.85099ZM24 6.92499L5.055 16.571L3.402 17.415L0 19.15V21.222L3.378 19.5L6.268 18.027L20.238 10.91C20.2848 11.2721 20.3082 11.6369 20.308 12.002C20.3071 13.4519 19.927 14.8763 19.2054 16.1338C18.4839 17.3914 17.4459 18.4384 16.1947 19.1708C14.9435 19.9033 13.5224 20.2958 12.0726 20.3093C10.6228 20.3228 9.1947 19.957 7.93 19.248L7.829 19.302L6.036 20.216C7.55093 21.3157 9.34038 21.9752 11.2066 22.1217C13.0729 22.2681 14.9433 21.8958 16.6112 21.0458C18.2792 20.1959 19.6797 18.9014 20.658 17.3054C21.6363 15.7094 22.1544 13.874 22.155 12.002C22.155 11.742 22.145 11.48 22.125 11.222C22.0976 10.8587 22.1782 10.4955 22.3567 10.1779C22.5352 9.8603 22.8035 9.60253 23.128 9.43699L24 8.99199V6.92499Z" fill="var(--sds-logo-fill, #8F8F8F)"/></svg>
