<!-- Generated by IcoMoon.io -->
<svg version="1.1" xmlns="http://www.w3.org/2000/svg" width="4096" height="1024" viewBox="0 0 4096 1024" data-color="fill">
<title></title>
<g id="icomoon-ignore">
</g>
<path d="M1210.269 256.082v104.254l-44.036 22.428c-33.445 17.082-53.369 52.57-50.539 90.019 0.973 13.006 1.485 26.166 1.485 39.326-0.062 192.49-108.069 368.683-279.575 456.075s-377.532 71.214-533.296-41.874v0l90.427-46.085 5.12-2.714c129.774 72.766 288.393 71.294 416.795-3.867s207.346-212.75 207.439-361.535c-0.006-18.424-1.203-36.828-3.584-55.097v0l-1020.505 519.991v-104.51l1210.269-616.411zM3530.703 326.848c150.132 0 213.779 68.564 212.755 220.695v0l-0.973 123.303c-1.024 90.326 2.97 150.954 13.876 201.801v0h-91.451c-3.865-24.34-6.191-48.899-6.964-73.531-32.771 55.763-87.457 86.486-182.902 86.486-100.412 0-183.926-55.712-183.926-154.128 0-126.477 143.168-164.011 361.862-187.924v0-12.904c0-98.417-53.662-130.215-121.303-130.215-75.527 0-118.282 39.787-122.276 106.354v0h-93.448c7.937-115.315 111.37-179.936 214.752-179.936zM2649.269 328.692c164.008 0 260.477 136.206 249.519 306.209v0h-411.582c2.97 115.315 86.484 170.975 165.032 170.975 79.572 0 123.3-35.793 146.138-88.483v0h93.448c-23.861 91.504-109.322 168.056-239.586 168.056-169.026 0-262.474-121.306-262.474-279.377 0-169.848 113.367-277.38 259.504-277.38zM1795.639 138.771c130.059 0 244.553 58.579 273.432 196.834v0h-98.466c-23.861-82.492-107.273-111.321-178.96-111.321-55.813 0-153.101 24.835-153.101 105.381 0 63.648 49.924 95.396 117.77 110.348v0l83.258 18.895c110.397 23.862 242.607 65.645 242.607 210.762 0 140.2-131.032 215.78-274.405 215.78-169.999 0-277.375-93.245-296.269-236.62v0h99.644c18.894 99.39 86.484 151.107 198.827 151.107 107.376 0 168.002-49.618 168.002-121.306 0-76.552-64.62-106.354-155.098-127.246v0l-89.864-18.895c-99.439-21.865-197.854-77.576-197.854-196.885 0-138.152 144.141-196.834 260.477-196.834zM2276.449 203.392v134.209h101.385v72.609h-101.385v317.166c0 55.66 3.943 69.588 55.659 69.588v0h45.726v75.528h-65.593c-102.409 0-126.27-22.838-126.27-134.209v0-328.073h-84.539v-72.609h84.539v-134.209h90.478zM4069.169 334.631c8.954-0.127 17.909 0.198 26.831 0.973v0 96.676c-16.767-2.654-33.717-3.989-50.692-3.994-83.515 0-125.297 44.549-125.297 163.857v0 280.35h-90.478v-534.892h88.533v93.45c26.831-60.576 80.493-93.45 151.104-96.42zM3050.148 151.316v721.177h-90.478v-721.177h90.478zM3231.054 151.316v721.177h-90.478v-721.177h90.478zM3659.943 615.135c-164.059 15.925-268.414 40.76-268.414 114.342 0 50.745 38.762 84.54 103.382 84.54 84.539 0 165.032-38.814 165.032-165.035v0zM372.539 55.88c171.506-87.451 377.569-71.313 533.371 41.772v0l-95.855 48.85c-129.741-72.461-288.147-70.82-416.359 4.315s-207.065 212.532-207.261 361.138c0.007 18.305 1.205 36.589 3.584 54.739v0l1020.249-519.838v104.561l-1210.269 616.718v-104.613l43.985-22.428c33.475-17.057 53.425-52.556 50.59-90.019-0.99-12.938-1.485-25.927-1.485-38.967-0.020-192.518 107.943-368.778 279.449-456.229zM2649.269 406.217c-79.572 0-153.101 43.576-161.089 151.107v0h315.164c-2.97-75.528-57.656-151.107-154.074-151.107z"></path>
</svg>
