<svg xmlns="http://www.w3.org/2000/svg" width="18" height="24" fill="currentColor"><g clip-path="url(#a)"><path d="M9.516.002C6.124.002 3.38 2.666 3.38 5.958v2.233c-1.191.21-2.386.488-2.386.85v11.652s0 .322.374.475c1.352.531 6.67 2.359 7.893 2.777.157.057.202.057.243.057.058 0 .085 0 .243-.057 1.222-.418 6.555-2.246 7.907-2.777a.556.556 0 0 0 .36-.462V9.042c0-.363-1.178-.655-2.373-.851V5.958C15.657 2.666 12.895.002 9.517.002Zm0 2.847c2 0 3.208 1.173 3.208 3.113v1.94a44.887 44.887 0 0 0-6.411 0v-1.94c0-1.944 1.208-3.113 3.204-3.113Zm-.013 7.91c2.79 0 5.13.21 5.13.585v7.269c0 .113-.013.126-.116.166-.099.043-4.757 1.674-4.757 1.674s-.189.057-.244.057c-.058 0-.243-.07-.243-.07s-4.658-1.631-4.757-1.674c-.1-.043-.117-.057-.117-.166v-7.27c-.027-.375 2.314-.57 5.104-.57Z"/></g><defs><clipPath id="a"><path d="M.992 0h17v24h-17z"/></clipPath></defs></svg>
