<svg width="24" height="24" viewBox="0 0 24 24" xmlns="http://www.w3.org/2000/svg" fill="currentColor"><path d="M9.55012 17.575C9.41679 17.575 9.29179 17.554 9.17512 17.512C9.05846 17.4707 8.95012 17.4 8.85012 17.3L4.55012 13C4.36679 12.8167 4.27912 12.579 4.28712 12.287C4.29579 11.9957 4.39179 11.7584 4.57512 11.575C4.75846 11.3917 4.99179 11.3 5.27512 11.3C5.55846 11.3 5.79179 11.3917 5.97512 11.575L9.55012 15.15L18.0251 6.67502C18.2085 6.49169 18.4461 6.40002 18.7381 6.40002C19.0295 6.40002 19.2668 6.49169 19.4501 6.67502C19.6335 6.85836 19.7251 7.09569 19.7251 7.38702C19.7251 7.67902 19.6335 7.91669 19.4501 8.10002L10.2501 17.3C10.1501 17.4 10.0418 17.4707 9.92512 17.512C9.80846 17.554 9.68346 17.575 9.55012 17.575Z"/></svg>