<svg xmlns="http://www.w3.org/2000/svg" width="16" height="16" viewBox="0 0 16 16" fill="none">
  <path d="M11.1332 11.5333C11.011 11.6555 10.8583 11.7167 10.6752 11.7167C10.4916 11.7167 10.3332 11.65 10.1999 11.5167C10.0665 11.3833 9.99985 11.2249 9.99985 11.0413C9.99985 10.8582 10.0665 10.7 10.1999 10.5667L12.7832 7.98333L10.1832 5.38333C10.061 5.2611 10.0025 5.10822 10.0079 4.92466C10.0136 4.74155 10.0776 4.58888 10.1999 4.46666C10.3221 4.34444 10.4776 4.28333 10.6665 4.28333C10.8554 4.28333 11.011 4.34444 11.1332 4.46666L14.1999 7.53333C14.3332 7.66666 14.3999 7.82222 14.3999 7.99999C14.3999 8.17777 14.3332 8.33333 14.1999 8.46666L11.1332 11.5333ZM4.86652 11.5333L1.79985 8.46666C1.66652 8.33333 1.59985 8.17777 1.59985 7.99999C1.59985 7.82222 1.66652 7.66666 1.79985 7.53333L4.86652 4.46666C4.98874 4.34444 5.1443 4.28044 5.33319 4.27466C5.52208 4.26933 5.68319 4.33333 5.81652 4.46666C5.94985 4.59999 6.01652 4.75822 6.01652 4.94133C6.01652 5.12488 5.94985 5.28333 5.81652 5.41666L3.21652 8.01666L5.81652 10.6167C5.93874 10.7389 5.99719 10.8915 5.99185 11.0747C5.98608 11.2582 5.92208 11.4111 5.79985 11.5333C5.67763 11.6555 5.52208 11.7167 5.33319 11.7167C5.1443 11.7167 4.98874 11.6555 4.86652 11.5333Z" />
</svg>
